<svg width="1050" height="1061" xmlns="http://www.w3.org/2000/svg" xmlns:xlink="http://www.w3.org/1999/xlink" overflow="hidden"><defs><clipPath id="clip0"><rect x="839" y="1645" width="1050" height="1061"/></clipPath></defs><g clip-path="url(#clip0)" transform="translate(-839 -1645)"><path d="M0 839 0 0 513 839Z" stroke="#F2F2F2" stroke-width="13.75" stroke-miterlimit="8" fill="#F2F2F2" fill-rule="evenodd" fill-opacity="0.501961" transform="matrix(1 0 0 -1 1363 2677)"/><path d="M0 0 127.875 836" stroke="#F2F2F2" stroke-width="13.75" stroke-miterlimit="8" fill="none" fill-rule="evenodd" transform="matrix(1 0 0 -1 1363 2674)"/><path d="M0 0 380.875 842.875" stroke="#F2F2F2" stroke-width="13.75" stroke-miterlimit="8" fill="none" fill-rule="evenodd" transform="matrix(1 0 0 -1 1360 2680.88)"/><path d="M0 0 264 842.875" stroke="#F2F2F2" stroke-width="13.75" stroke-miterlimit="8" fill="none" fill-rule="evenodd" transform="matrix(1 0 0 -1 1363 2680.88)"/><path d="M0 0 244.979 137.5" stroke="#F2F2F2" stroke-width="13.75" stroke-miterlimit="8" fill="none" fill-rule="evenodd" transform="matrix(1 0 0 -1 1363 1835.5)"/><path d="M1115 1693 1359.98 1830.5" stroke="#F2F2F2" stroke-width="13.75" stroke-miterlimit="8" fill="none" fill-rule="evenodd"/><path d="M0 0 495 0.000360892" stroke="#F2F2F2" stroke-width="13.75" stroke-miterlimit="8" fill="none" fill-rule="evenodd" transform="matrix(1 0 0 -1 866 1838)"/><path d="M0 0 244.979 137.5" stroke="#F2F2F2" stroke-width="13.75" stroke-miterlimit="8" fill="none" fill-rule="evenodd" transform="matrix(1 0 0 -1 1115 1975.5)"/><path d="M1365.44 1920.99C1228.76 1920.43 1119.33 1883.04 1121.02 1837.48 1122.71 1791.92 1234.88 1755.44 1371.56 1756.01 1508.24 1756.57 1617.67 1793.96 1615.98 1839.52 1615.96 1840.07 1615.92 1840.62 1615.87 1841.18L1368.5 1838.5Z" stroke="#F2F2F2" stroke-width="13.75" stroke-miterlimit="8" fill="none" fill-rule="evenodd"/><path d="M1123 1687 1363.62 2677" stroke="#F2F2F2" stroke-width="13.75" stroke-miterlimit="8" fill="none" fill-rule="evenodd"/><path d="M0 0 244.979 983.125" stroke="#F2F2F2" stroke-width="13.75" stroke-miterlimit="8" fill="none" fill-rule="evenodd" transform="matrix(1 0 0 -1 1363 2681.13)"/><path d="M1118 1976 1364.12 2677.25" stroke="#F2F2F2" stroke-width="13.75" stroke-miterlimit="8" fill="none" fill-rule="evenodd"/><path d="M865 1852 1360 2677" stroke="#F2F2F2" stroke-width="13.75" stroke-miterlimit="8" fill="none" fill-rule="evenodd"/><path d="M0 0 493.625 826.375" stroke="#F2F2F2" stroke-width="13.75" stroke-miterlimit="8" fill="none" fill-rule="evenodd" transform="matrix(1 0 0 -1 1382 2664.38)"/><path d="M1360 1672 1360 2663.38" stroke="#F2F2F2" stroke-width="13.75" stroke-miterlimit="8" fill="none" fill-rule="evenodd"/><path d="M1360 2001C1086.62 2001 865 1927.13 865 1836 865 1744.87 1086.62 1671 1360 1671 1633.38 1671 1855 1744.87 1855 1836 1855 1837.42 1854.95 1838.83 1854.84 1840.25L1360 1836Z" stroke="#F2F2F2" stroke-width="13.75" stroke-miterlimit="8" fill="none" fill-rule="evenodd"/><path d="M1364 2471 1489.4 2471" stroke="#F2F2F2" stroke-width="13.75" stroke-miterlimit="8" fill="none" fill-rule="evenodd"/><path d="M1364 2065 1736.9 2065" stroke="#F2F2F2" stroke-width="13.75" stroke-miterlimit="8" fill="none" fill-rule="evenodd"/><path d="M1359.44 2346.99C1222.76 2346.43 1113.33 2309.04 1115.02 2263.48 1116.71 2217.92 1228.88 2181.44 1365.56 2182.01 1502.24 2182.57 1611.67 2219.96 1609.98 2265.52 1609.96 2266.01 1609.93 2266.51 1609.89 2267L1362.5 2264.5Z" stroke="#F2F2F2" stroke-width="13.75" stroke-miterlimit="8" fill="none" fill-rule="evenodd"/><path d="M839 1842.5C839 1828.97 849.969 1818 863.5 1818 877.031 1818 888 1828.97 888 1842.5 888 1856.03 877.031 1867 863.5 1867 849.969 1867 839 1856.03 839 1842.5Z" fill="#01FFFF" fill-rule="evenodd"/><path d="M1339 2681.5C1339 2667.97 1350.19 2657 1364 2657 1377.81 2657 1389 2667.97 1389 2681.5 1389 2695.03 1377.81 2706 1364 2706 1350.19 2706 1339 2695.03 1339 2681.5Z" fill-rule="evenodd"/><path d="M1339 2002C1339 1988.19 1350.19 1977 1364 1977 1377.81 1977 1389 1988.19 1389 2002 1389 2015.81 1377.81 2027 1364 2027 1350.19 2027 1339 2015.81 1339 2002Z" fill="#80FF01" fill-rule="evenodd"/><path d="M1837 1842.5C1837 1828.97 1848.19 1818 1862 1818 1875.81 1818 1887 1828.97 1887 1842.5 1887 1856.03 1875.81 1867 1862 1867 1848.19 1867 1837 1856.03 1837 1842.5Z" fill="#FF0000" fill-rule="evenodd"/><path d="M1339.5 1837.5C1339.5 1823.69 1350.69 1812.5 1364.5 1812.5 1378.31 1812.5 1389.5 1823.69 1389.5 1837.5 1389.5 1851.31 1378.31 1862.5 1364.5 1862.5 1350.69 1862.5 1339.5 1851.31 1339.5 1837.5Z" stroke="#F2F2F2" stroke-width="4.58333" stroke-miterlimit="8" fill="#FFFFFF" fill-rule="evenodd"/><path d="M1095 1697C1095 1683.19 1105.97 1672 1119.5 1672 1133.03 1672 1144 1683.19 1144 1697 1144 1710.81 1133.03 1722 1119.5 1722 1105.97 1722 1095 1710.81 1095 1697Z" fill="#013DFF" fill-rule="evenodd"/><path d="M1339 1669.5C1339 1655.97 1350.19 1645 1364 1645 1377.81 1645 1389 1655.97 1389 1669.5 1389 1683.03 1377.81 1694 1364 1694 1350.19 1694 1339 1683.03 1339 1669.5Z" fill="#8001FF" fill-rule="evenodd"/><path d="M1089 1980C1089 1966.19 1100.19 1955 1114 1955 1127.81 1955 1139 1966.19 1139 1980 1139 1993.81 1127.81 2005 1114 2005 1100.19 2005 1089 1993.81 1089 1980Z" fill="#01FF44" fill-rule="evenodd"/><path d="M1590 1702.5C1590 1688.97 1600.97 1678 1614.5 1678 1628.03 1678 1639 1688.97 1639 1702.5 1639 1716.03 1628.03 1727 1614.5 1727 1600.97 1727 1590 1716.03 1590 1702.5Z" fill="#FF01C3" fill-rule="evenodd"/><path d="M1590 2271.5C1590 2257.97 1600.97 2247 1614.5 2247 1628.03 2247 1639 2257.97 1639 2271.5 1639 2285.03 1628.03 2296 1614.5 2296 1600.97 2296 1590 2285.03 1590 2271.5Z" fill="#800000" fill-rule="evenodd"/><path d="M1337 2335C1337 2321.19 1347.97 2310 1361.5 2310 1375.03 2310 1386 2321.19 1386 2335 1386 2348.81 1375.03 2360 1361.5 2360 1347.97 2360 1337 2348.81 1337 2335Z" fill="#408000" fill-rule="evenodd"/><path d="M1213 2324C1213 2310.19 1223.97 2299 1237.5 2299 1251.03 2299 1262 2310.19 1262 2324 1262 2337.81 1251.03 2349 1237.5 2349 1223.97 2349 1213 2337.81 1213 2324Z" fill="#008022" fill-rule="evenodd"/><path d="M1092 2260.5C1092 2246.97 1102.97 2236 1116.5 2236 1130.03 2236 1141 2246.97 1141 2260.5 1141 2274.03 1130.03 2285 1116.5 2285 1102.97 2285 1092 2274.03 1092 2260.5Z" fill="#008080" fill-rule="evenodd"/><path d="M1339 2271.5C1339 2257.97 1350.19 2247 1364 2247 1377.81 2247 1389 2257.97 1389 2271.5 1389 2285.03 1377.81 2296 1364 2296 1350.19 2296 1339 2285.03 1339 2271.5Z" fill="#7F7F7F" fill-rule="evenodd"/><path d="M1601 1842.5C1601 1828.97 1611.97 1818 1625.5 1818 1639.03 1818 1650 1828.97 1650 1842.5 1650 1856.03 1639.03 1867 1625.5 1867 1611.97 1867 1601 1856.03 1601 1842.5Z" fill="#FF7F7F" fill-rule="evenodd"/><path d="M1339 1919.5C1339 1905.97 1350.19 1895 1364 1895 1377.81 1895 1389 1905.97 1389 1919.5 1389 1933.03 1377.81 1944 1364 1944 1350.19 1944 1339 1933.03 1339 1919.5Z" fill="#C2FF7F" fill-rule="evenodd"/><path d="M1218 1906C1218 1892.19 1229.19 1881 1243 1881 1256.81 1881 1268 1892.19 1268 1906 1268 1919.81 1256.81 1931 1243 1931 1229.19 1931 1218 1919.81 1218 1906Z" fill="#7FFFA1" fill-rule="evenodd"/><path d="M1089 1842.5C1089 1828.97 1100.19 1818 1114 1818 1127.81 1818 1139 1828.97 1139 1842.5 1139 1856.03 1127.81 1867 1114 1867 1100.19 1867 1089 1856.03 1089 1842.5Z" fill="#7FFFFF" fill-rule="evenodd"/><path d="M1224 1765.5C1224 1751.97 1234.97 1741 1248.5 1741 1262.03 1741 1273 1751.97 1273 1765.5 1273 1779.03 1262.03 1790 1248.5 1790 1234.97 1790 1224 1779.03 1224 1765.5Z" fill="#7F9DFF" fill-rule="evenodd"/><path d="M1337 1757.5C1337 1743.97 1347.97 1733 1361.5 1733 1375.03 1733 1386 1743.97 1386 1757.5 1386 1771.03 1375.03 1782 1361.5 1782 1347.97 1782 1337 1771.03 1337 1757.5Z" fill="#BC7FFF" fill-rule="evenodd"/><path d="M1466 1768.5C1466 1754.97 1476.97 1744 1490.5 1744 1504.03 1744 1515 1754.97 1515 1768.5 1515 1782.03 1504.03 1793 1490.5 1793 1476.97 1793 1466 1782.03 1466 1768.5Z" fill="#FF7FE1" fill-rule="evenodd"/><path d="M1469 2271.5C1469 2257.97 1479.97 2247 1493.5 2247 1507.03 2247 1518 2257.97 1518 2271.5 1518 2285.03 1507.03 2296 1493.5 2296 1479.97 2296 1469 2285.03 1469 2271.5Z" fill="#814141" fill-rule="evenodd"/><path d="M1337 2065.5C1337 2051.97 1347.97 2041 1361.5 2041 1375.03 2041 1386 2051.97 1386 2065.5 1386 2079.03 1375.03 2090 1361.5 2090 1347.97 2090 1337 2079.03 1337 2065.5Z" fill="#BFBFBF" fill-rule="evenodd"/><path d="M1713 2065.5C1713 2051.97 1724.19 2041 1738 2041 1751.81 2041 1763 2051.97 1763 2065.5 1763 2079.03 1751.81 2090 1738 2090 1724.19 2090 1713 2079.03 1713 2065.5Z" fill="#BC0000" fill-rule="evenodd"/><path d="M1532 2065.5C1532 2051.97 1542.97 2041 1556.5 2041 1570.03 2041 1581 2051.97 1581 2065.5 1581 2079.03 1570.03 2090 1556.5 2090 1542.97 2090 1532 2079.03 1532 2065.5Z" fill="#BF5F5F" fill-rule="evenodd"/><path d="M1474 2475C1474 2461.19 1485.19 2450 1499 2450 1512.81 2450 1524 2461.19 1524 2475 1524 2488.81 1512.81 2500 1499 2500 1485.19 2500 1474 2488.81 1474 2475Z" fill="#420000" fill-rule="evenodd"/><path d="M1339 2475C1339 2461.19 1350.19 2450 1364 2450 1377.81 2450 1389 2461.19 1389 2475 1389 2488.81 1377.81 2500 1364 2500 1350.19 2500 1339 2488.81 1339 2475Z" fill="#404040" fill-rule="evenodd"/><path d="M1405 2475C1405 2461.19 1416.19 2450 1430 2450 1443.81 2450 1455 2461.19 1455 2475 1455 2488.81 1443.81 2500 1430 2500 1416.19 2500 1405 2488.81 1405 2475Z" fill="#402020" fill-rule="evenodd"/><path d="M1713 1842.5C1713 1828.97 1724.19 1818 1738 1818 1751.81 1818 1763 1828.97 1763 1842.5 1763 1856.03 1751.81 1867 1738 1867 1724.19 1867 1713 1856.03 1713 1842.5Z" fill="#FF4343" fill-rule="evenodd"/><path d="M1466 1842.5C1466 1828.97 1476.97 1818 1490.5 1818 1504.03 1818 1515 1828.97 1515 1842.5 1515 1856.03 1504.03 1867 1490.5 1867 1476.97 1867 1466 1856.03 1466 1842.5Z" fill="#FFBDBD" fill-rule="evenodd"/><path d="M1403 2271.5C1403 2257.97 1413.97 2247 1427.5 2247 1441.03 2247 1452 2257.97 1452 2271.5 1452 2285.03 1441.03 2296 1427.5 2296 1413.97 2296 1403 2285.03 1403 2271.5Z" fill="#806060" fill-rule="evenodd"/><path d="M1526 2271.5C1526 2257.97 1537.19 2247 1551 2247 1564.81 2247 1576 2257.97 1576 2271.5 1576 2285.03 1564.81 2296 1551 2296 1537.19 2296 1526 2285.03 1526 2271.5Z" fill="#7E2020" fill-rule="evenodd"/><path d="M1614 2068C1614 2054.19 1625.19 2043 1639 2043 1652.81 2043 1664 2054.19 1664 2068 1664 2081.81 1652.81 2093 1639 2093 1625.19 2093 1614 2081.81 1614 2068Z" fill="#C03030" fill-rule="evenodd"/><path d="M1433 2065.5C1433 2051.97 1443.97 2041 1457.5 2041 1471.03 2041 1482 2051.97 1482 2065.5 1482 2079.03 1471.03 2090 1457.5 2090 1443.97 2090 1433 2079.03 1433 2065.5Z" fill="#BE8E8E" fill-rule="evenodd"/></g></svg>
