<svg width="481" height="361" xmlns="http://www.w3.org/2000/svg" xmlns:xlink="http://www.w3.org/1999/xlink" overflow="hidden"><defs><clipPath id="clip0"><rect x="739" y="567" width="481" height="361"/></clipPath><clipPath id="clip1"><rect x="739" y="566" width="480" height="360"/></clipPath><clipPath id="clip2"><rect x="739" y="566" width="480" height="360"/></clipPath><clipPath id="clip3"><rect x="739" y="566" width="480" height="360"/></clipPath><clipPath id="clip4"><rect x="739" y="566" width="480" height="360"/></clipPath><clipPath id="clip5"><rect x="789" y="585" width="305" height="304"/></clipPath><clipPath id="clip6"><rect x="789" y="585" width="305" height="304"/></clipPath><clipPath id="clip7"><rect x="789" y="585" width="305" height="304"/></clipPath><clipPath id="clip8"><rect x="789" y="585" width="305" height="304"/></clipPath><clipPath id="clip9"><rect x="789" y="585" width="305" height="304"/></clipPath><clipPath id="clip10"><rect x="789" y="585" width="305" height="304"/></clipPath><clipPath id="clip11"><rect x="789" y="585" width="305" height="304"/></clipPath><clipPath id="clip12"><rect x="789" y="585" width="305" height="304"/></clipPath><clipPath id="clip13"><rect x="739" y="566" width="480" height="360"/></clipPath><clipPath id="clip14"><rect x="739" y="566" width="480" height="360"/></clipPath><clipPath id="clip15"><rect x="739" y="566" width="480" height="360"/></clipPath><clipPath id="clip16"><rect x="739" y="566" width="480" height="360"/></clipPath><clipPath id="clip17"><rect x="739" y="566" width="480" height="360"/></clipPath><clipPath id="clip18"><rect x="739" y="566" width="480" height="360"/></clipPath><clipPath id="clip19"><rect x="739" y="566" width="480" height="360"/></clipPath><clipPath id="clip20"><rect x="739" y="566" width="480" height="360"/></clipPath><clipPath id="clip21"><rect x="739" y="566" width="480" height="360"/></clipPath><clipPath id="clip22"><rect x="739" y="566" width="480" height="360"/></clipPath><clipPath id="clip23"><rect x="739" y="566" width="480" height="360"/></clipPath><clipPath id="clip24"><rect x="739" y="566" width="480" height="360"/></clipPath><clipPath id="clip25"><rect x="739" y="566" width="480" height="360"/></clipPath><clipPath id="clip26"><rect x="739" y="566" width="480" height="360"/></clipPath><clipPath id="clip27"><rect x="739" y="566" width="480" height="360"/></clipPath><clipPath id="clip28"><rect x="739" y="566" width="480" height="360"/></clipPath><clipPath id="clip29"><rect x="739" y="566" width="480" height="360"/></clipPath><clipPath id="clip30"><rect x="739" y="566" width="480" height="360"/></clipPath><clipPath id="clip31"><rect x="739" y="566" width="480" height="360"/></clipPath><clipPath id="clip32"><rect x="739" y="566" width="480" height="360"/></clipPath><clipPath id="clip33"><rect x="739" y="566" width="480" height="360"/></clipPath><clipPath id="clip34"><rect x="739" y="566" width="480" height="360"/></clipPath><clipPath id="clip35"><rect x="739" y="566" width="480" height="360"/></clipPath><clipPath id="clip36"><rect x="739" y="566" width="480" height="360"/></clipPath><clipPath id="clip37"><rect x="739" y="566" width="480" height="360"/></clipPath><clipPath id="clip38"><rect x="739" y="566" width="480" height="360"/></clipPath></defs><g clip-path="url(#clip0)" transform="translate(-739 -567)"><path d="M739 567 1219 567 1219 927 739 927Z" fill="#FFFFFF"/><g clip-path="url(#clip1)"><path d="M789.5 787.5 1092.5 787.5M789.5 686.5 1092.5 686.5M789.5 585.5 1092.5 585.5" stroke="#D9D9D9" stroke-width="1.25" stroke-linejoin="round" stroke-miterlimit="10" fill="none"/></g><g clip-path="url(#clip2)"><path d="M789.5 585.5 789.5 888.5M847.5 585.5 847.5 888.5M906.5 585.5 906.5 888.5M964.5 585.5 964.5 888.5M1022.5 585.5 1022.5 888.5M1081.5 585.5 1081.5 888.5" stroke="#D9D9D9" stroke-width="1.25" stroke-linejoin="round" stroke-miterlimit="10" fill="none"/></g><g clip-path="url(#clip3)"><path d="M789.5 888.5 1092.5 888.5" stroke="#D9D9D9" stroke-width="1.25" stroke-linejoin="round" stroke-miterlimit="10" fill="none" fill-rule="evenodd"/></g><g clip-path="url(#clip4)"><path d="M789.5 888.5 789.5 893.5M847.5 888.5 847.5 893.5M906.5 888.5 906.5 893.5M964.5 888.5 964.5 893.5M1022.5 888.5 1022.5 893.5M1081.5 888.5 1081.5 893.5" stroke="#D9D9D9" stroke-width="1.25" stroke-linejoin="round" stroke-miterlimit="10" fill="none"/></g><g clip-path="url(#clip5)"><path d="M790 667 801 643 813 629 825 615 836 611 848 607 860 612 871 638 883 646 895 654 906 667 918 681 930 690 941 704 953 712 965 713 976 713 988 716 1000 724 1011 695 1023 663 1035 629 1046 611 1058 596 1070 601 1081 610 1093 612" stroke="#FF0000" stroke-width="3.75" stroke-linecap="round" stroke-linejoin="round" stroke-miterlimit="10" fill="none"/></g><g clip-path="url(#clip6)"><path d="M790 787 801 794 813 799 825 821 836 818 848 816 860 814 871 799 883 795 895 800 906 809 918 809 930 807 941 812 953 810 965 816 976 820 988 821 1000 823 1011 826 1023 823 1035 812 1046 799 1058 790 1070 791 1081 788 1093 791" stroke="#FFC000" stroke-width="3.75" stroke-linecap="round" stroke-linejoin="round" stroke-miterlimit="10" fill="none"/></g><g clip-path="url(#clip7)"><path d="M790 863 801 862 813 865 825 864 836 863 848 864 860 869 871 870 883 872 895 873 906 875 918 877 930 878 941 878 953 880 965 878 976 878 988 877 1000 878 1011 878 1023 875 1035 873 1046 867 1058 864 1070 861 1081 860 1093 862" stroke="#CCCC00" stroke-width="3.75" stroke-linecap="round" stroke-linejoin="round" stroke-miterlimit="10" fill="none"/></g><g clip-path="url(#clip8)"><path d="M790 880 801 878 813 878 825 878 836 877 848 877 860 878 871 877 883 878 895 876 906 876 918 874 930 873 941 876 953 876 965 877 976 878 988 877 1000 878 1011 877 1023 872 1035 871 1046 868 1058 867 1070 866 1081 866 1093 866" stroke="#00B050" stroke-width="3.75" stroke-linecap="round" stroke-linejoin="round" stroke-miterlimit="10" fill="none"/></g><g clip-path="url(#clip9)"><path d="M790 888 801 888 813 888 825 888 836 888 848 888 860 888 871 888 883 888 895 888 906 888 918 888 930 888 941 888 953 888 965 888 976 888 988 884 1000 883 1011 884 1023 882 1035 882 1046 880 1058 881 1070 880 1081 880 1093 880" stroke="#00B0F0" stroke-width="3.75" stroke-linecap="round" stroke-linejoin="round" stroke-miterlimit="10" fill="none"/></g><g clip-path="url(#clip10)"><path d="M790 888 801 888 813 888 825 888 836 888 848 888 860 888 871 888 883 888 895 888 906 888 918 888 930 888 941 888 953 888 965 888 976 888 988 884 1000 883 1011 883 1023 882 1035 881 1046 879 1058 880 1070 880 1081 879 1093 877" stroke="#002060" stroke-width="3.75" stroke-linecap="round" stroke-linejoin="round" stroke-miterlimit="10" fill="none"/></g><g clip-path="url(#clip11)"><path d="M790 887 801 887 813 887 825 887 836 887 848 887 860 887 871 887 883 887 895 888 906 888 918 888 930 888 941 888 953 888 965 888 976 888 988 888 1000 888 1011 888 1023 887 1035 888 1046 888 1058 888 1070 888 1081 888 1093 887" stroke="#7030A0" stroke-width="3.75" stroke-linecap="round" stroke-linejoin="round" stroke-miterlimit="10" fill="none"/></g><g clip-path="url(#clip12)"><path d="M790 888 801 888 813 888 825 888 836 888 848 888 860 888 871 888 883 888 895 888 906 888 918 888 930 888 941 888 953 888 965 888 976 888 988 888 1000 888 1011 888 1023 888 1035 884 1046 883 1058 879 1070 879 1081 878 1093 875" stroke="#FF3399" stroke-width="3.75" stroke-linecap="round" stroke-linejoin="round" stroke-miterlimit="10" fill="none"/></g><g clip-path="url(#clip13)"><text fill="#595959" font-family="Calibri,Calibri_MSFontService,sans-serif" font-weight="400" font-size="15" transform="translate(757.433 892)">0%</text></g><g clip-path="url(#clip14)"><text fill="#595959" font-family="Calibri,Calibri_MSFontService,sans-serif" font-weight="400" font-size="15" transform="translate(749.833 791)">20%</text></g><g clip-path="url(#clip15)"><text fill="#595959" font-family="Calibri,Calibri_MSFontService,sans-serif" font-weight="400" font-size="15" transform="translate(749.833 690)">40%</text></g><g clip-path="url(#clip16)"><text fill="#595959" font-family="Calibri,Calibri_MSFontService,sans-serif" font-weight="400" font-size="15" transform="translate(749.833 589)">60%</text></g><g clip-path="url(#clip17)"><text fill="#595959" font-family="Calibri,Calibri_MSFontService,sans-serif" font-weight="400" font-size="15" transform="translate(774.474 912)">1995</text></g><g clip-path="url(#clip18)"><text fill="#595959" font-family="Calibri,Calibri_MSFontService,sans-serif" font-weight="400" font-size="15" transform="translate(832.788 912)">2000</text></g><g clip-path="url(#clip19)"><text fill="#595959" font-family="Calibri,Calibri_MSFontService,sans-serif" font-weight="400" font-size="15" transform="translate(891.102 912)">2005</text></g><g clip-path="url(#clip20)"><text fill="#595959" font-family="Calibri,Calibri_MSFontService,sans-serif" font-weight="400" font-size="15" transform="translate(949.417 912)">2010</text></g><g clip-path="url(#clip21)"><text fill="#595959" font-family="Calibri,Calibri_MSFontService,sans-serif" font-weight="400" font-size="15" transform="translate(1007.73 912)">2015</text></g><g clip-path="url(#clip22)"><text fill="#595959" font-family="Calibri,Calibri_MSFontService,sans-serif" font-weight="400" font-size="15" transform="translate(1066.05 912)">2020</text></g><g clip-path="url(#clip23)"><path d="M1134 649 1166 649" stroke="#FF0000" stroke-width="3.75" stroke-linecap="round" stroke-linejoin="round" stroke-miterlimit="10" fill="none" fill-rule="evenodd"/></g><g clip-path="url(#clip24)"><text fill="#595959" font-family="Calibri,Calibri_MSFontService,sans-serif" font-weight="400" font-size="15" transform="translate(1169.57 653)">USD</text></g><g clip-path="url(#clip25)"><path d="M1134 677 1166 677" stroke="#FFC000" stroke-width="3.75" stroke-linecap="round" stroke-linejoin="round" stroke-miterlimit="10" fill="none" fill-rule="evenodd"/></g><g clip-path="url(#clip26)"><text fill="#595959" font-family="Calibri,Calibri_MSFontService,sans-serif" font-weight="400" font-size="15" transform="translate(1169.57 681)">EUR*</text></g><g clip-path="url(#clip27)"><path d="M1134 705 1166 705" stroke="#CCCC00" stroke-width="3.75" stroke-linecap="round" stroke-linejoin="round" stroke-miterlimit="10" fill="none" fill-rule="evenodd"/></g><g clip-path="url(#clip28)"><text fill="#595959" font-family="Calibri,Calibri_MSFontService,sans-serif" font-weight="400" font-size="15" transform="translate(1169.57 709)">JPY</text></g><g clip-path="url(#clip29)"><path d="M1134 733 1166 733" stroke="#00B050" stroke-width="3.75" stroke-linecap="round" stroke-linejoin="round" stroke-miterlimit="10" fill="none" fill-rule="evenodd"/></g><g clip-path="url(#clip30)"><text fill="#595959" font-family="Calibri,Calibri_MSFontService,sans-serif" font-weight="400" font-size="15" transform="translate(1169.57 737)">GBP</text></g><g clip-path="url(#clip31)"><path d="M1134 761 1166 761" stroke="#00B0F0" stroke-width="3.75" stroke-linecap="round" stroke-linejoin="round" stroke-miterlimit="10" fill="none" fill-rule="evenodd"/></g><g clip-path="url(#clip32)"><text fill="#595959" font-family="Calibri,Calibri_MSFontService,sans-serif" font-weight="400" font-size="15" transform="translate(1169.57 765)">AUD</text></g><g clip-path="url(#clip33)"><path d="M1134 789 1166 789" stroke="#002060" stroke-width="3.75" stroke-linecap="round" stroke-linejoin="round" stroke-miterlimit="10" fill="none" fill-rule="evenodd"/></g><g clip-path="url(#clip34)"><text fill="#595959" font-family="Calibri,Calibri_MSFontService,sans-serif" font-weight="400" font-size="15" transform="translate(1169.57 793)">CAD</text></g><g clip-path="url(#clip35)"><path d="M1134 817 1166 817" stroke="#7030A0" stroke-width="3.75" stroke-linecap="round" stroke-linejoin="round" stroke-miterlimit="10" fill="none" fill-rule="evenodd"/></g><g clip-path="url(#clip36)"><text fill="#595959" font-family="Calibri,Calibri_MSFontService,sans-serif" font-weight="400" font-size="15" transform="translate(1169.57 821)">CHF</text></g><g clip-path="url(#clip37)"><path d="M1134 845 1166 845" stroke="#FF3399" stroke-width="3.75" stroke-linecap="round" stroke-linejoin="round" stroke-miterlimit="10" fill="none" fill-rule="evenodd"/></g><g clip-path="url(#clip38)"><text fill="#595959" font-family="Calibri,Calibri_MSFontService,sans-serif" font-weight="400" font-size="15" transform="translate(1169.57 849)">CNY</text></g><path d="M739.5 567.5 1219.5 567.5 1219.5 927.5 739.5 927.5Z" stroke="#D9D9D9" stroke-width="1.25" stroke-linejoin="round" stroke-miterlimit="10" fill="none"/></g></svg>
