<svg width="481" height="361" xmlns="http://www.w3.org/2000/svg" xmlns:xlink="http://www.w3.org/1999/xlink" overflow="hidden"><defs><clipPath id="clip0"><rect x="624" y="273" width="481" height="361"/></clipPath><clipPath id="clip1"><rect x="624" y="273" width="480" height="360"/></clipPath><clipPath id="clip2"><rect x="624" y="273" width="480" height="360"/></clipPath><clipPath id="clip3"><rect x="624" y="273" width="480" height="360"/></clipPath><clipPath id="clip4"><rect x="624" y="273" width="480" height="360"/></clipPath><clipPath id="clip5"><rect x="674" y="291" width="305" height="304"/></clipPath><clipPath id="clip6"><rect x="674" y="291" width="305" height="304"/></clipPath><clipPath id="clip7"><rect x="674" y="291" width="305" height="304"/></clipPath><clipPath id="clip8"><rect x="674" y="291" width="305" height="304"/></clipPath><clipPath id="clip9"><rect x="674" y="291" width="305" height="304"/></clipPath><clipPath id="clip10"><rect x="674" y="291" width="305" height="304"/></clipPath><clipPath id="clip11"><rect x="674" y="291" width="305" height="304"/></clipPath><clipPath id="clip12"><rect x="674" y="291" width="305" height="304"/></clipPath><clipPath id="clip13"><rect x="674" y="291" width="305" height="304"/></clipPath><clipPath id="clip14"><rect x="674" y="291" width="305" height="304"/></clipPath><clipPath id="clip15"><rect x="624" y="273" width="480" height="360"/></clipPath><clipPath id="clip16"><rect x="624" y="273" width="480" height="360"/></clipPath><clipPath id="clip17"><rect x="624" y="273" width="480" height="360"/></clipPath><clipPath id="clip18"><rect x="624" y="273" width="480" height="360"/></clipPath><clipPath id="clip19"><rect x="624" y="273" width="480" height="360"/></clipPath><clipPath id="clip20"><rect x="624" y="273" width="480" height="360"/></clipPath><clipPath id="clip21"><rect x="624" y="273" width="480" height="360"/></clipPath><clipPath id="clip22"><rect x="624" y="273" width="480" height="360"/></clipPath><clipPath id="clip23"><rect x="624" y="273" width="480" height="360"/></clipPath><clipPath id="clip24"><rect x="624" y="273" width="480" height="360"/></clipPath><clipPath id="clip25"><rect x="624" y="273" width="480" height="360"/></clipPath><clipPath id="clip26"><rect x="624" y="273" width="480" height="360"/></clipPath><clipPath id="clip27"><rect x="624" y="273" width="480" height="360"/></clipPath><clipPath id="clip28"><rect x="624" y="273" width="480" height="360"/></clipPath><clipPath id="clip29"><rect x="624" y="273" width="480" height="360"/></clipPath><clipPath id="clip30"><rect x="624" y="273" width="480" height="360"/></clipPath><clipPath id="clip31"><rect x="624" y="273" width="480" height="360"/></clipPath><clipPath id="clip32"><rect x="624" y="273" width="480" height="360"/></clipPath><clipPath id="clip33"><rect x="624" y="273" width="480" height="360"/></clipPath><clipPath id="clip34"><rect x="624" y="273" width="480" height="360"/></clipPath><clipPath id="clip35"><rect x="624" y="273" width="480" height="360"/></clipPath><clipPath id="clip36"><rect x="624" y="273" width="480" height="360"/></clipPath><clipPath id="clip37"><rect x="624" y="273" width="480" height="360"/></clipPath><clipPath id="clip38"><rect x="624" y="273" width="480" height="360"/></clipPath><clipPath id="clip39"><rect x="624" y="273" width="480" height="360"/></clipPath><clipPath id="clip40"><rect x="624" y="273" width="480" height="360"/></clipPath><clipPath id="clip41"><rect x="624" y="273" width="480" height="360"/></clipPath><clipPath id="clip42"><rect x="624" y="273" width="480" height="360"/></clipPath><clipPath id="clip43"><rect x="624" y="273" width="480" height="360"/></clipPath><clipPath id="clip44"><rect x="624" y="273" width="480" height="360"/></clipPath><clipPath id="clip45"><rect x="624" y="273" width="480" height="360"/></clipPath><clipPath id="clip46"><rect x="624" y="273" width="480" height="360"/></clipPath><clipPath id="clip47"><rect x="624" y="273" width="480" height="360"/></clipPath><clipPath id="clip48"><rect x="624" y="273" width="480" height="360"/></clipPath><clipPath id="clip49"><rect x="624" y="273" width="480" height="360"/></clipPath><clipPath id="clip50"><rect x="624" y="273" width="480" height="360"/></clipPath><clipPath id="clip51"><rect x="624" y="273" width="480" height="360"/></clipPath><clipPath id="clip52"><rect x="624" y="273" width="480" height="360"/></clipPath><clipPath id="clip53"><rect x="624" y="273" width="480" height="360"/></clipPath><clipPath id="clip54"><rect x="624" y="273" width="480" height="360"/></clipPath></defs><g clip-path="url(#clip0)" transform="translate(-624 -273)"><path d="M624 273 1104 273 1104 633 624 633Z" fill="#FFFFFF"/><g clip-path="url(#clip1)"><path d="M674.5 493.5 978.5 493.5M674.5 392.5 978.5 392.5M674.5 291.5 978.5 291.5" stroke="#D9D9D9" stroke-width="1.25" stroke-linejoin="round" stroke-miterlimit="10" fill="none"/></g><g clip-path="url(#clip2)"><path d="M674.5 291.5 674.5 594.5M733.5 291.5 733.5 594.5M791.5 291.5 791.5 594.5M850.5 291.5 850.5 594.5M908.5 291.5 908.5 594.5M967.5 291.5 967.5 594.5" stroke="#D9D9D9" stroke-width="1.25" stroke-linejoin="round" stroke-miterlimit="10" fill="none"/></g><g clip-path="url(#clip3)"><path d="M674.5 594.5 978.5 594.5" stroke="#D9D9D9" stroke-width="1.25" stroke-linejoin="round" stroke-miterlimit="10" fill="none" fill-rule="evenodd"/></g><g clip-path="url(#clip4)"><path d="M674.5 594.5 674.5 599.5M733.5 594.5 733.5 599.5M791.5 594.5 791.5 599.5M850.5 594.5 850.5 599.5M908.5 594.5 908.5 599.5M967.5 594.5 967.5 599.5" stroke="#D9D9D9" stroke-width="1.25" stroke-linejoin="round" stroke-miterlimit="10" fill="none"/></g><g clip-path="url(#clip5)"><path d="M862 444 874 426 885 395 897 369 909 373 920 362 932 393 944 385 955 381 967 399 979 390" stroke="#FF0000" stroke-width="3.75" stroke-linecap="round" stroke-linejoin="round" stroke-miterlimit="10" fill="none"/></g><g clip-path="url(#clip6)"><path d="M862 372 874 394 885 427 897 452 909 446 920 434 932 415 944 428 955 435 967 409 979 410" stroke="#FFC000" stroke-width="3.75" stroke-linecap="round" stroke-linejoin="round" stroke-miterlimit="10" fill="none"/></g><g clip-path="url(#clip7)"><path d="M862 582 874 582 885 582 897 581 909 581 920 573 932 580 944 578 955 577 967 576 979 582" stroke="#CCCC00" stroke-width="3.75" stroke-linecap="round" stroke-linejoin="round" stroke-miterlimit="10" fill="none"/></g><g clip-path="url(#clip8)"><path d="M862 549 874 551 885 548 897 555 909 552 920 575 932 559 944 560 955 559 967 562 979 565" stroke="#00B050" stroke-width="3.75" stroke-linecap="round" stroke-linejoin="round" stroke-miterlimit="10" fill="none"/></g><g clip-path="url(#clip9)"><path d="M862 584 874 584 885 585 897 586 909 587 920 587 932 588 944 587 955 587 967 587 979 588" stroke="#00B0F0" stroke-width="3.75" stroke-linecap="round" stroke-linejoin="round" stroke-miterlimit="10" fill="none"/></g><g clip-path="url(#clip10)"><path d="M862 585 874 585 885 585 897 585 909 586 920 582 932 587 944 585 955 585 967 586 979 586" stroke="#002060" stroke-width="3.75" stroke-linecap="round" stroke-linejoin="round" stroke-miterlimit="10" fill="none"/></g><g clip-path="url(#clip11)"><path d="M862 588 874 585 885 588 897 588 909 587 920 582 932 588 944 590 955 591 967 591 979 591" stroke="#7030A0" stroke-width="3.75" stroke-linecap="round" stroke-linejoin="round" stroke-miterlimit="10" fill="none"/></g><g clip-path="url(#clip12)"><path d="M862 593 874 592 885 589 897 584 909 583 920 589 932 586 944 584 955 585 967 585 979 581" stroke="#FF3399" stroke-width="3.75" stroke-linecap="round" stroke-linejoin="round" stroke-miterlimit="10" fill="none"/></g><g clip-path="url(#clip13)"><path d="M616 353 628 365 640 364 652 352 663 349 675 352 687 354 698 352 710 346 722 353 733 345 745 337 757 347 768 352 780 358 792 358 803 351 815 351 827 359 839 348 850 344 862 336 874 331 885 327 897 330 909 335 920 337 932 340 944 340 955 340 967 340" stroke="#F1ADAD" stroke-width="3.75" stroke-linecap="round" stroke-linejoin="round" stroke-miterlimit="10" fill="none"/></g><g clip-path="url(#clip14)"><path d="M616 425 628 413 640 413 652 420 663 425 675 423 687 417 698 418 710 423 722 415 733 419 745 426 757 417 768 409 780 401 792 401 803 403 815 402 827 442 839 399 850 403 862 413 874 418 885 423 897 418 909 419 920 413 932 410 944 409 955 409 967 409" stroke="#F1D7AD" stroke-width="3.75" stroke-linecap="round" stroke-linejoin="round" stroke-miterlimit="10" fill="none"/></g><g clip-path="url(#clip15)"><text fill="#595959" font-family="Calibri,Calibri_MSFontService,sans-serif" font-weight="400" font-size="15" transform="translate(642.683 599)">0%</text></g><g clip-path="url(#clip16)"><text fill="#595959" font-family="Calibri,Calibri_MSFontService,sans-serif" font-weight="400" font-size="15" transform="translate(635.083 498)">20%</text></g><g clip-path="url(#clip17)"><text fill="#595959" font-family="Calibri,Calibri_MSFontService,sans-serif" font-weight="400" font-size="15" transform="translate(635.083 397)">40%</text></g><g clip-path="url(#clip18)"><text fill="#595959" font-family="Calibri,Calibri_MSFontService,sans-serif" font-weight="400" font-size="15" transform="translate(635.083 296)">60%</text></g><g clip-path="url(#clip19)"><text fill="#595959" font-family="Calibri,Calibri_MSFontService,sans-serif" font-weight="400" font-size="15" transform="translate(659.724 618)">1995</text></g><g clip-path="url(#clip20)"><text fill="#595959" font-family="Calibri,Calibri_MSFontService,sans-serif" font-weight="400" font-size="15" transform="translate(718.148 618)">2000</text></g><g clip-path="url(#clip21)"><text fill="#595959" font-family="Calibri,Calibri_MSFontService,sans-serif" font-weight="400" font-size="15" transform="translate(776.573 618)">2005</text></g><g clip-path="url(#clip22)"><text fill="#595959" font-family="Calibri,Calibri_MSFontService,sans-serif" font-weight="400" font-size="15" transform="translate(834.998 618)">2010</text></g><g clip-path="url(#clip23)"><text fill="#595959" font-family="Calibri,Calibri_MSFontService,sans-serif" font-weight="400" font-size="15" transform="translate(893.423 618)">2015</text></g><g clip-path="url(#clip24)"><text fill="#595959" font-family="Calibri,Calibri_MSFontService,sans-serif" font-weight="400" font-size="15" transform="translate(951.848 618)">2020</text></g><g clip-path="url(#clip25)"><path d="M1001 296 1033 296" stroke="#FF0000" stroke-width="3.75" stroke-linecap="round" stroke-linejoin="round" stroke-miterlimit="10" fill="none" fill-rule="evenodd"/></g><g clip-path="url(#clip26)"><text fill="#595959" font-family="Calibri,Calibri_MSFontService,sans-serif" font-weight="400" font-size="15" transform="translate(1036.28 300)">USD</text></g><g clip-path="url(#clip27)"><text fill="#595959" font-family="Calibri,Calibri_MSFontService,sans-serif" font-weight="400" font-size="15" transform="translate(1036.28 318)">(SWIFT)</text></g><g clip-path="url(#clip28)"><path d="M1001 329 1033 329" stroke="#FFC000" stroke-width="3.75" stroke-linecap="round" stroke-linejoin="round" stroke-miterlimit="10" fill="none" fill-rule="evenodd"/></g><g clip-path="url(#clip29)"><text fill="#595959" font-family="Calibri,Calibri_MSFontService,sans-serif" font-weight="400" font-size="15" transform="translate(1036.28 334)">EUR*</text></g><g clip-path="url(#clip30)"><text fill="#595959" font-family="Calibri,Calibri_MSFontService,sans-serif" font-weight="400" font-size="15" transform="translate(1036.28 352)">(SWIFT)</text></g><g clip-path="url(#clip31)"><path d="M1001 363 1033 363" stroke="#CCCC00" stroke-width="3.75" stroke-linecap="round" stroke-linejoin="round" stroke-miterlimit="10" fill="none" fill-rule="evenodd"/></g><g clip-path="url(#clip32)"><text fill="#595959" font-family="Calibri,Calibri_MSFontService,sans-serif" font-weight="400" font-size="15" transform="translate(1036.28 367)">JPY</text></g><g clip-path="url(#clip33)"><text fill="#595959" font-family="Calibri,Calibri_MSFontService,sans-serif" font-weight="400" font-size="15" transform="translate(1036.28 386)">(SWIFT)</text></g><g clip-path="url(#clip34)"><path d="M1001 397 1033 397" stroke="#00B050" stroke-width="3.75" stroke-linecap="round" stroke-linejoin="round" stroke-miterlimit="10" fill="none" fill-rule="evenodd"/></g><g clip-path="url(#clip35)"><text fill="#595959" font-family="Calibri,Calibri_MSFontService,sans-serif" font-weight="400" font-size="15" transform="translate(1036.28 401)">GBP</text></g><g clip-path="url(#clip36)"><text fill="#595959" font-family="Calibri,Calibri_MSFontService,sans-serif" font-weight="400" font-size="15" transform="translate(1036.28 420)">(SWIFT)</text></g><g clip-path="url(#clip37)"><path d="M1001 431 1033 431" stroke="#00B0F0" stroke-width="3.75" stroke-linecap="round" stroke-linejoin="round" stroke-miterlimit="10" fill="none" fill-rule="evenodd"/></g><g clip-path="url(#clip38)"><text fill="#595959" font-family="Calibri,Calibri_MSFontService,sans-serif" font-weight="400" font-size="15" transform="translate(1036.28 435)">AUD</text></g><g clip-path="url(#clip39)"><text fill="#595959" font-family="Calibri,Calibri_MSFontService,sans-serif" font-weight="400" font-size="15" transform="translate(1036.28 454)">(SWIFT)</text></g><g clip-path="url(#clip40)"><path d="M1001 465 1033 465" stroke="#002060" stroke-width="3.75" stroke-linecap="round" stroke-linejoin="round" stroke-miterlimit="10" fill="none" fill-rule="evenodd"/></g><g clip-path="url(#clip41)"><text fill="#595959" font-family="Calibri,Calibri_MSFontService,sans-serif" font-weight="400" font-size="15" transform="translate(1036.28 469)">CAD</text></g><g clip-path="url(#clip42)"><text fill="#595959" font-family="Calibri,Calibri_MSFontService,sans-serif" font-weight="400" font-size="15" transform="translate(1036.28 488)">(SWIFT)</text></g><g clip-path="url(#clip43)"><path d="M1001 499 1033 499" stroke="#7030A0" stroke-width="3.75" stroke-linecap="round" stroke-linejoin="round" stroke-miterlimit="10" fill="none" fill-rule="evenodd"/></g><g clip-path="url(#clip44)"><text fill="#595959" font-family="Calibri,Calibri_MSFontService,sans-serif" font-weight="400" font-size="15" transform="translate(1036.28 503)">CHF</text></g><g clip-path="url(#clip45)"><text fill="#595959" font-family="Calibri,Calibri_MSFontService,sans-serif" font-weight="400" font-size="15" transform="translate(1036.28 522)">(SWIFT)</text></g><g clip-path="url(#clip46)"><path d="M1001 533 1033 533" stroke="#FF3399" stroke-width="3.75" stroke-linecap="round" stroke-linejoin="round" stroke-miterlimit="10" fill="none" fill-rule="evenodd"/></g><g clip-path="url(#clip47)"><text fill="#595959" font-family="Calibri,Calibri_MSFontService,sans-serif" font-weight="400" font-size="15" transform="translate(1036.28 537)">CNY</text></g><g clip-path="url(#clip48)"><text fill="#595959" font-family="Calibri,Calibri_MSFontService,sans-serif" font-weight="400" font-size="15" transform="translate(1036.28 556)">(SWIFT)</text></g><g clip-path="url(#clip49)"><path d="M1001 567 1033 567" stroke="#F1ADAD" stroke-width="3.75" stroke-linecap="round" stroke-linejoin="round" stroke-miterlimit="10" fill="none" fill-rule="evenodd"/></g><g clip-path="url(#clip50)"><text fill="#595959" font-family="Calibri,Calibri_MSFontService,sans-serif" font-weight="400" font-size="15" transform="translate(1036.28 571)">USD</text></g><g clip-path="url(#clip51)"><text fill="#595959" font-family="Calibri,Calibri_MSFontService,sans-serif" font-weight="400" font-size="15" transform="translate(1036.28 590)">(Invoice)</text></g><g clip-path="url(#clip52)"><path d="M1001 601 1033 601" stroke="#F1D7AD" stroke-width="3.75" stroke-linecap="round" stroke-linejoin="round" stroke-miterlimit="10" fill="none" fill-rule="evenodd"/></g><g clip-path="url(#clip53)"><text fill="#595959" font-family="Calibri,Calibri_MSFontService,sans-serif" font-weight="400" font-size="15" transform="translate(1036.28 605)">EUR*</text></g><g clip-path="url(#clip54)"><text fill="#595959" font-family="Calibri,Calibri_MSFontService,sans-serif" font-weight="400" font-size="15" transform="translate(1036.28 623)">(Invoice)</text></g><path d="M624.5 273.5 1104.5 273.5 1104.5 633.5 624.5 633.5Z" stroke="#D9D9D9" stroke-width="1.25" stroke-linejoin="round" stroke-miterlimit="10" fill="none"/></g></svg>