<svg width="481" height="361" xmlns="http://www.w3.org/2000/svg" xmlns:xlink="http://www.w3.org/1999/xlink" overflow="hidden"><defs><clipPath id="clip0"><rect x="807" y="1344" width="481" height="361"/></clipPath><clipPath id="clip1"><rect x="807" y="1344" width="480" height="360"/></clipPath><clipPath id="clip2"><rect x="807" y="1344" width="480" height="360"/></clipPath><clipPath id="clip3"><rect x="807" y="1344" width="480" height="360"/></clipPath><clipPath id="clip4"><rect x="807" y="1344" width="480" height="360"/></clipPath><clipPath id="clip5"><rect x="857" y="1362" width="305" height="304"/></clipPath><clipPath id="clip6"><rect x="857" y="1362" width="305" height="304"/></clipPath><clipPath id="clip7"><rect x="857" y="1362" width="305" height="304"/></clipPath><clipPath id="clip8"><rect x="857" y="1362" width="305" height="304"/></clipPath><clipPath id="clip9"><rect x="857" y="1362" width="305" height="304"/></clipPath><clipPath id="clip10"><rect x="857" y="1362" width="305" height="304"/></clipPath><clipPath id="clip11"><rect x="857" y="1362" width="305" height="304"/></clipPath><clipPath id="clip12"><rect x="857" y="1362" width="305" height="304"/></clipPath><clipPath id="clip13"><rect x="807" y="1344" width="480" height="360"/></clipPath><clipPath id="clip14"><rect x="807" y="1344" width="480" height="360"/></clipPath><clipPath id="clip15"><rect x="807" y="1344" width="480" height="360"/></clipPath><clipPath id="clip16"><rect x="807" y="1344" width="480" height="360"/></clipPath><clipPath id="clip17"><rect x="807" y="1344" width="480" height="360"/></clipPath><clipPath id="clip18"><rect x="807" y="1344" width="480" height="360"/></clipPath><clipPath id="clip19"><rect x="807" y="1344" width="480" height="360"/></clipPath><clipPath id="clip20"><rect x="807" y="1344" width="480" height="360"/></clipPath><clipPath id="clip21"><rect x="807" y="1344" width="480" height="360"/></clipPath><clipPath id="clip22"><rect x="807" y="1344" width="480" height="360"/></clipPath><clipPath id="clip23"><rect x="807" y="1344" width="480" height="360"/></clipPath><clipPath id="clip24"><rect x="807" y="1344" width="480" height="360"/></clipPath><clipPath id="clip25"><rect x="807" y="1344" width="480" height="360"/></clipPath><clipPath id="clip26"><rect x="807" y="1344" width="480" height="360"/></clipPath><clipPath id="clip27"><rect x="807" y="1344" width="480" height="360"/></clipPath><clipPath id="clip28"><rect x="807" y="1344" width="480" height="360"/></clipPath><clipPath id="clip29"><rect x="807" y="1344" width="480" height="360"/></clipPath><clipPath id="clip30"><rect x="807" y="1344" width="480" height="360"/></clipPath><clipPath id="clip31"><rect x="807" y="1344" width="480" height="360"/></clipPath><clipPath id="clip32"><rect x="807" y="1344" width="480" height="360"/></clipPath><clipPath id="clip33"><rect x="807" y="1344" width="480" height="360"/></clipPath><clipPath id="clip34"><rect x="807" y="1344" width="480" height="360"/></clipPath><clipPath id="clip35"><rect x="807" y="1344" width="480" height="360"/></clipPath><clipPath id="clip36"><rect x="807" y="1344" width="480" height="360"/></clipPath><clipPath id="clip37"><rect x="807" y="1344" width="480" height="360"/></clipPath></defs><g clip-path="url(#clip0)" transform="translate(-807 -1344)"><path d="M807 1344 1287 1344 1287 1704 807 1704Z" fill="#FFFFFF"/><g clip-path="url(#clip1)"><path d="M857.5 1564.5 1161.5 1564.5M857.5 1463.5 1161.5 1463.5M857.5 1362.5 1161.5 1362.5" stroke="#D9D9D9" stroke-width="1.25" stroke-linejoin="round" stroke-miterlimit="10" fill="none"/></g><g clip-path="url(#clip2)"><path d="M857.5 1362.5 857.5 1665.5M920.5 1362.5 920.5 1665.5M984.5 1362.5 984.5 1665.5M1047.5 1362.5 1047.5 1665.5M1110.5 1362.5 1110.5 1665.5" stroke="#D9D9D9" stroke-width="1.25" stroke-linejoin="round" stroke-miterlimit="10" fill="none"/></g><g clip-path="url(#clip3)"><path d="M857.5 1665.5 1161.5 1665.5" stroke="#D9D9D9" stroke-width="1.25" stroke-linejoin="round" stroke-miterlimit="10" fill="none" fill-rule="evenodd"/></g><g clip-path="url(#clip4)"><path d="M857.5 1665.5 857.5 1670.5M920.5 1665.5 920.5 1670.5M984.5 1665.5 984.5 1670.5M1047.5 1665.5 1047.5 1670.5M1110.5 1665.5 1110.5 1670.5" stroke="#D9D9D9" stroke-width="1.25" stroke-linejoin="round" stroke-miterlimit="10" fill="none"/></g><g clip-path="url(#clip5)"><path d="M782 1438 820 1459 858 1456 896 1446 934 1439 972 1443 1009 1449 1047 1451 1085 1446 1123 1444 1161 1443" stroke="#FF0000" stroke-width="3.75" stroke-linecap="round" stroke-linejoin="round" stroke-miterlimit="10" fill="none"/></g><g clip-path="url(#clip6)"><path d="M782 1590 820 1546 858 1546 896 1570 934 1570 972 1571 1009 1572 1047 1567 1085 1581 1123 1586 1161 1584" stroke="#FFC000" stroke-width="3.75" stroke-linecap="round" stroke-linejoin="round" stroke-miterlimit="10" fill="none"/></g><g clip-path="url(#clip7)"><path d="M782 1595 820 1607 858 1603 896 1611 934 1606 972 1613 1009 1622 1047 1618 1085 1607 1123 1611 1161 1623" stroke="#CCCC00" stroke-width="3.75" stroke-linecap="round" stroke-linejoin="round" stroke-miterlimit="10" fill="none"/></g><g clip-path="url(#clip8)"><path d="M782 1629 820 1631 858 1642 896 1638 934 1633 972 1624 1009 1628 1047 1633 1085 1636 1123 1633 1161 1633" stroke="#00B050" stroke-width="3.75" stroke-linecap="round" stroke-linejoin="round" stroke-miterlimit="10" fill="none"/></g><g clip-path="url(#clip9)"><path d="M782 1659 820 1659 858 1659 896 1658 934 1655 972 1650 1009 1649 1047 1646 1085 1644 1123 1648 1161 1648" stroke="#00B0F0" stroke-width="3.75" stroke-linecap="round" stroke-linejoin="round" stroke-miterlimit="10" fill="none"/></g><g clip-path="url(#clip10)"><path d="M782 1662 820 1657 858 1657 896 1657 934 1654 972 1655 1009 1655 1047 1652 1085 1654 1123 1653 1161 1653" stroke="#002060" stroke-width="3.75" stroke-linecap="round" stroke-linejoin="round" stroke-miterlimit="10" fill="none"/></g><g clip-path="url(#clip11)"><path d="M782 1641 820 1644 858 1647 896 1648 934 1651 972 1650 1009 1648 1047 1650 1085 1653 1123 1653 1161 1653" stroke="#7030A0" stroke-width="3.75" stroke-linecap="round" stroke-linejoin="round" stroke-miterlimit="10" fill="none"/></g><g clip-path="url(#clip12)"><path d="M782 1666 820 1666 858 1666 896 1666 934 1666 972 1665 1009 1664 1047 1663 1085 1660 1123 1656 1161 1655" stroke="#FF3399" stroke-width="3.75" stroke-linecap="round" stroke-linejoin="round" stroke-miterlimit="10" fill="none"/></g><g clip-path="url(#clip13)"><text fill="#595959" font-family="Calibri,Calibri_MSFontService,sans-serif" font-weight="400" font-size="15" transform="translate(825.558 1670)">0%</text></g><g clip-path="url(#clip14)"><text fill="#595959" font-family="Calibri,Calibri_MSFontService,sans-serif" font-weight="400" font-size="15" transform="translate(817.958 1569)">20%</text></g><g clip-path="url(#clip15)"><text fill="#595959" font-family="Calibri,Calibri_MSFontService,sans-serif" font-weight="400" font-size="15" transform="translate(817.958 1468)">40%</text></g><g clip-path="url(#clip16)"><text fill="#595959" font-family="Calibri,Calibri_MSFontService,sans-serif" font-weight="400" font-size="15" transform="translate(817.958 1367)">60%</text></g><g clip-path="url(#clip17)"><text fill="#595959" font-family="Calibri,Calibri_MSFontService,sans-serif" font-weight="400" font-size="15" transform="translate(842.599 1689)">1995</text></g><g clip-path="url(#clip18)"><text fill="#595959" font-family="Calibri,Calibri_MSFontService,sans-serif" font-weight="400" font-size="15" transform="translate(905.772 1689)">2000</text></g><g clip-path="url(#clip19)"><text fill="#595959" font-family="Calibri,Calibri_MSFontService,sans-serif" font-weight="400" font-size="15" transform="translate(968.946 1689)">2005</text></g><g clip-path="url(#clip20)"><text fill="#595959" font-family="Calibri,Calibri_MSFontService,sans-serif" font-weight="400" font-size="15" transform="translate(1032.12 1689)">2010</text></g><g clip-path="url(#clip21)"><text fill="#595959" font-family="Calibri,Calibri_MSFontService,sans-serif" font-weight="400" font-size="15" transform="translate(1095.29 1689)">2015</text></g><g clip-path="url(#clip22)"><path d="M1202 1426 1234 1426" stroke="#FF0000" stroke-width="3.75" stroke-linecap="round" stroke-linejoin="round" stroke-miterlimit="10" fill="none" fill-rule="evenodd"/></g><g clip-path="url(#clip23)"><text fill="#595959" font-family="Calibri,Calibri_MSFontService,sans-serif" font-weight="400" font-size="15" transform="translate(1237.69 1430)">USD</text></g><g clip-path="url(#clip24)"><path d="M1202 1454 1234 1454" stroke="#FFC000" stroke-width="3.75" stroke-linecap="round" stroke-linejoin="round" stroke-miterlimit="10" fill="none" fill-rule="evenodd"/></g><g clip-path="url(#clip25)"><text fill="#595959" font-family="Calibri,Calibri_MSFontService,sans-serif" font-weight="400" font-size="15" transform="translate(1237.69 1458)">EUR*</text></g><g clip-path="url(#clip26)"><path d="M1202 1482 1234 1482" stroke="#CCCC00" stroke-width="3.75" stroke-linecap="round" stroke-linejoin="round" stroke-miterlimit="10" fill="none" fill-rule="evenodd"/></g><g clip-path="url(#clip27)"><text fill="#595959" font-family="Calibri,Calibri_MSFontService,sans-serif" font-weight="400" font-size="15" transform="translate(1237.69 1486)">JPY</text></g><g clip-path="url(#clip28)"><path d="M1202 1510 1234 1510" stroke="#00B050" stroke-width="3.75" stroke-linecap="round" stroke-linejoin="round" stroke-miterlimit="10" fill="none" fill-rule="evenodd"/></g><g clip-path="url(#clip29)"><text fill="#595959" font-family="Calibri,Calibri_MSFontService,sans-serif" font-weight="400" font-size="15" transform="translate(1237.69 1514)">GBP</text></g><g clip-path="url(#clip30)"><path d="M1202 1538 1234 1538" stroke="#00B0F0" stroke-width="3.75" stroke-linecap="round" stroke-linejoin="round" stroke-miterlimit="10" fill="none" fill-rule="evenodd"/></g><g clip-path="url(#clip31)"><text fill="#595959" font-family="Calibri,Calibri_MSFontService,sans-serif" font-weight="400" font-size="15" transform="translate(1237.69 1542)">AUD</text></g><g clip-path="url(#clip32)"><path d="M1202 1566 1234 1566" stroke="#002060" stroke-width="3.75" stroke-linecap="round" stroke-linejoin="round" stroke-miterlimit="10" fill="none" fill-rule="evenodd"/></g><g clip-path="url(#clip33)"><text fill="#595959" font-family="Calibri,Calibri_MSFontService,sans-serif" font-weight="400" font-size="15" transform="translate(1237.69 1570)">CAD</text></g><g clip-path="url(#clip34)"><path d="M1202 1595 1234 1595" stroke="#7030A0" stroke-width="3.75" stroke-linecap="round" stroke-linejoin="round" stroke-miterlimit="10" fill="none" fill-rule="evenodd"/></g><g clip-path="url(#clip35)"><text fill="#595959" font-family="Calibri,Calibri_MSFontService,sans-serif" font-weight="400" font-size="15" transform="translate(1237.69 1599)">CHF</text></g><g clip-path="url(#clip36)"><path d="M1202 1623 1234 1623" stroke="#FF3399" stroke-width="3.75" stroke-linecap="round" stroke-linejoin="round" stroke-miterlimit="10" fill="none" fill-rule="evenodd"/></g><g clip-path="url(#clip37)"><text fill="#595959" font-family="Calibri,Calibri_MSFontService,sans-serif" font-weight="400" font-size="15" transform="translate(1237.69 1627)">CNY</text></g><path d="M807.5 1344.5 1287.5 1344.5 1287.5 1704.5 807.5 1704.5Z" stroke="#D9D9D9" stroke-width="1.25" stroke-linejoin="round" stroke-miterlimit="10" fill="none"/></g></svg>
