<svg width="481" height="361" xmlns="http://www.w3.org/2000/svg" xmlns:xlink="http://www.w3.org/1999/xlink" overflow="hidden"><defs><clipPath id="clip0"><rect x="554" y="252" width="481" height="361"/></clipPath><clipPath id="clip1"><rect x="554" y="252" width="480" height="360"/></clipPath><clipPath id="clip2"><rect x="554" y="252" width="480" height="360"/></clipPath><clipPath id="clip3"><rect x="554" y="252" width="480" height="360"/></clipPath><clipPath id="clip4"><rect x="554" y="252" width="480" height="360"/></clipPath><clipPath id="clip5"><rect x="604" y="270" width="256" height="304"/></clipPath><clipPath id="clip6"><rect x="604" y="270" width="256" height="304"/></clipPath><clipPath id="clip7"><rect x="604" y="270" width="256" height="304"/></clipPath><clipPath id="clip8"><rect x="604" y="270" width="256" height="304"/></clipPath><clipPath id="clip9"><rect x="604" y="270" width="256" height="304"/></clipPath><clipPath id="clip10"><rect x="604" y="270" width="256" height="304"/></clipPath><clipPath id="clip11"><rect x="604" y="270" width="256" height="304"/></clipPath><clipPath id="clip12"><rect x="604" y="270" width="256" height="304"/></clipPath><clipPath id="clip13"><rect x="604" y="270" width="256" height="304"/></clipPath><clipPath id="clip14"><rect x="604" y="270" width="256" height="304"/></clipPath><clipPath id="clip15"><rect x="554" y="252" width="480" height="360"/></clipPath><clipPath id="clip16"><rect x="554" y="252" width="480" height="360"/></clipPath><clipPath id="clip17"><rect x="554" y="252" width="480" height="360"/></clipPath><clipPath id="clip18"><rect x="554" y="252" width="480" height="360"/></clipPath><clipPath id="clip19"><rect x="554" y="252" width="480" height="360"/></clipPath><clipPath id="clip20"><rect x="554" y="252" width="480" height="360"/></clipPath><clipPath id="clip21"><rect x="554" y="252" width="480" height="360"/></clipPath><clipPath id="clip22"><rect x="554" y="252" width="480" height="360"/></clipPath><clipPath id="clip23"><rect x="554" y="252" width="480" height="360"/></clipPath><clipPath id="clip24"><rect x="554" y="252" width="480" height="360"/></clipPath><clipPath id="clip25"><rect x="554" y="252" width="480" height="360"/></clipPath><clipPath id="clip26"><rect x="554" y="252" width="480" height="360"/></clipPath><clipPath id="clip27"><rect x="554" y="252" width="480" height="360"/></clipPath><clipPath id="clip28"><rect x="554" y="252" width="480" height="360"/></clipPath><clipPath id="clip29"><rect x="554" y="252" width="480" height="360"/></clipPath><clipPath id="clip30"><rect x="554" y="252" width="480" height="360"/></clipPath><clipPath id="clip31"><rect x="554" y="252" width="480" height="360"/></clipPath><clipPath id="clip32"><rect x="554" y="252" width="480" height="360"/></clipPath><clipPath id="clip33"><rect x="554" y="252" width="480" height="360"/></clipPath><clipPath id="clip34"><rect x="554" y="252" width="480" height="360"/></clipPath><clipPath id="clip35"><rect x="554" y="252" width="480" height="360"/></clipPath><clipPath id="clip36"><rect x="554" y="252" width="480" height="360"/></clipPath><clipPath id="clip37"><rect x="554" y="252" width="480" height="360"/></clipPath><clipPath id="clip38"><rect x="554" y="252" width="480" height="360"/></clipPath><clipPath id="clip39"><rect x="554" y="252" width="480" height="360"/></clipPath><clipPath id="clip40"><rect x="554" y="252" width="480" height="360"/></clipPath><clipPath id="clip41"><rect x="554" y="252" width="480" height="360"/></clipPath><clipPath id="clip42"><rect x="554" y="252" width="480" height="360"/></clipPath><clipPath id="clip43"><rect x="554" y="252" width="480" height="360"/></clipPath><clipPath id="clip44"><rect x="554" y="252" width="480" height="360"/></clipPath></defs><g clip-path="url(#clip0)" transform="translate(-554 -252)"><path d="M554 252 1034 252 1034 612 554 612Z" fill="#FFFFFF"/><g clip-path="url(#clip1)"><path d="M604.5 472.5 858.5 472.5M604.5 371.5 858.5 371.5M604.5 270.5 858.5 270.5" stroke="#D9D9D9" stroke-width="1.25" stroke-linejoin="round" stroke-miterlimit="10" fill="none"/></g><g clip-path="url(#clip2)"><path d="M604.5 270.5 604.5 573.5M653.5 270.5 653.5 573.5M702.5 270.5 702.5 573.5M751.5 270.5 751.5 573.5M800.5 270.5 800.5 573.5M849.5 270.5 849.5 573.5" stroke="#D9D9D9" stroke-width="1.25" stroke-linejoin="round" stroke-miterlimit="10" fill="none"/></g><g clip-path="url(#clip3)"><path d="M604.5 573.5 858.5 573.5" stroke="#D9D9D9" stroke-width="1.25" stroke-linejoin="round" stroke-miterlimit="10" fill="none" fill-rule="evenodd"/></g><g clip-path="url(#clip4)"><path d="M604.5 573.5 604.5 578.5M653.5 573.5 653.5 578.5M702.5 573.5 702.5 578.5M751.5 573.5 751.5 578.5M800.5 573.5 800.5 578.5M849.5 573.5 849.5 578.5" stroke="#D9D9D9" stroke-width="1.25" stroke-linejoin="round" stroke-miterlimit="10" fill="none"/></g><g clip-path="url(#clip5)"><path d="M761 423 771 405 781 374 791 348 800 352 810 341 820 372 830 364 839 360 849 378 859 369" stroke="#FF0000" stroke-width="3.75" stroke-linecap="round" stroke-linejoin="round" stroke-miterlimit="10" fill="none"/></g><g clip-path="url(#clip6)"><path d="M761 351 771 373 781 406 791 431 800 425 810 413 820 394 830 407 839 414 849 388 859 389" stroke="#FFC000" stroke-width="3.75" stroke-linecap="round" stroke-linejoin="round" stroke-miterlimit="10" fill="none"/></g><g clip-path="url(#clip7)"><path d="M761 561 771 561 781 561 791 560 800 560 810 552 820 559 830 557 839 556 849 555 859 561" stroke="#CCCC00" stroke-width="3.75" stroke-linecap="round" stroke-linejoin="round" stroke-miterlimit="10" fill="none"/></g><g clip-path="url(#clip8)"><path d="M761 528 771 530 781 527 791 534 800 531 810 554 820 538 830 539 839 538 849 541 859 544" stroke="#00B050" stroke-width="3.75" stroke-linecap="round" stroke-linejoin="round" stroke-miterlimit="10" fill="none"/></g><g clip-path="url(#clip9)"><path d="M761 563 771 563 781 564 791 565 800 566 810 566 820 567 830 566 839 566 849 566 859 567" stroke="#00B0F0" stroke-width="3.75" stroke-linecap="round" stroke-linejoin="round" stroke-miterlimit="10" fill="none"/></g><g clip-path="url(#clip10)"><path d="M761 564 771 564 781 564 791 564 800 565 810 561 820 566 830 564 839 564 849 565 859 565" stroke="#002060" stroke-width="3.75" stroke-linecap="round" stroke-linejoin="round" stroke-miterlimit="10" fill="none"/></g><g clip-path="url(#clip11)"><path d="M761 567 771 564 781 567 791 567 800 566 810 561 820 567 830 569 839 570 849 570 859 570" stroke="#7030A0" stroke-width="3.75" stroke-linecap="round" stroke-linejoin="round" stroke-miterlimit="10" fill="none"/></g><g clip-path="url(#clip12)"><path d="M761 572 771 571 781 568 791 563 800 562 810 568 820 565 830 563 839 564 849 564 859 560" stroke="#FF3399" stroke-width="3.75" stroke-linecap="round" stroke-linejoin="round" stroke-miterlimit="10" fill="none"/></g><g clip-path="url(#clip13)"><path d="M556 332 566 344 576 343 585 331 595 328 605 331 615 333 624 331 634 325 644 332 654 324 664 316 673 326 683 331 693 337 703 337 712 330 722 330 732 338 742 327 751 323 761 315 771 310 781 306 791 309 800 314 810 316 820 319 830 319 839 319 849 319" stroke="#F1ADAD" stroke-width="3.75" stroke-linecap="round" stroke-linejoin="round" stroke-miterlimit="10" fill="none"/></g><g clip-path="url(#clip14)"><path d="M556 404 566 392 576 392 585 399 595 404 605 402 615 396 624 397 634 402 644 394 654 398 664 405 673 396 683 388 693 380 703 380 712 382 722 381 732 421 742 378 751 382 761 392 771 397 781 402 791 397 800 398 810 392 820 389 830 388 839 388 849 388" stroke="#F1D7AD" stroke-width="3.75" stroke-linecap="round" stroke-linejoin="round" stroke-miterlimit="10" fill="none"/></g><g clip-path="url(#clip15)"><text fill="#595959" font-family="Calibri,Calibri_MSFontService,sans-serif" font-weight="400" font-size="15" transform="translate(572.683 578)">0%</text></g><g clip-path="url(#clip16)"><text fill="#595959" font-family="Calibri,Calibri_MSFontService,sans-serif" font-weight="400" font-size="15" transform="translate(565.083 477)">20%</text></g><g clip-path="url(#clip17)"><text fill="#595959" font-family="Calibri,Calibri_MSFontService,sans-serif" font-weight="400" font-size="15" transform="translate(565.083 376)">40%</text></g><g clip-path="url(#clip18)"><text fill="#595959" font-family="Calibri,Calibri_MSFontService,sans-serif" font-weight="400" font-size="15" transform="translate(565.083 275)">60%</text></g><g clip-path="url(#clip19)"><text fill="#595959" font-family="Calibri,Calibri_MSFontService,sans-serif" font-weight="400" font-size="15" transform="translate(589.724 597)">1995</text></g><g clip-path="url(#clip20)"><text fill="#595959" font-family="Calibri,Calibri_MSFontService,sans-serif" font-weight="400" font-size="15" transform="translate(638.562 597)">2000</text></g><g clip-path="url(#clip21)"><text fill="#595959" font-family="Calibri,Calibri_MSFontService,sans-serif" font-weight="400" font-size="15" transform="translate(687.4 597)">2005</text></g><g clip-path="url(#clip22)"><text fill="#595959" font-family="Calibri,Calibri_MSFontService,sans-serif" font-weight="400" font-size="15" transform="translate(736.239 597)">2010</text></g><g clip-path="url(#clip23)"><text fill="#595959" font-family="Calibri,Calibri_MSFontService,sans-serif" font-weight="400" font-size="15" transform="translate(785.077 597)">2015</text></g><g clip-path="url(#clip24)"><text fill="#595959" font-family="Calibri,Calibri_MSFontService,sans-serif" font-weight="400" font-size="15" transform="translate(833.915 597)">2020</text></g><g clip-path="url(#clip25)"><path d="M900 306 932 306" stroke="#FF0000" stroke-width="3.75" stroke-linecap="round" stroke-linejoin="round" stroke-miterlimit="10" fill="none" fill-rule="evenodd"/></g><g clip-path="url(#clip26)"><text fill="#595959" font-family="Calibri,Calibri_MSFontService,sans-serif" font-weight="400" font-size="15" transform="translate(935.541 310)">USD (SWIFT)</text></g><g clip-path="url(#clip27)"><path d="M900 334 932 334" stroke="#FFC000" stroke-width="3.75" stroke-linecap="round" stroke-linejoin="round" stroke-miterlimit="10" fill="none" fill-rule="evenodd"/></g><g clip-path="url(#clip28)"><text fill="#595959" font-family="Calibri,Calibri_MSFontService,sans-serif" font-weight="400" font-size="15" transform="translate(935.541 338)">EUR (SWIFT)</text></g><g clip-path="url(#clip29)"><path d="M900 362 932 362" stroke="#CCCC00" stroke-width="3.75" stroke-linecap="round" stroke-linejoin="round" stroke-miterlimit="10" fill="none" fill-rule="evenodd"/></g><g clip-path="url(#clip30)"><text fill="#595959" font-family="Calibri,Calibri_MSFontService,sans-serif" font-weight="400" font-size="15" transform="translate(935.541 366)">JPY (SWIFT)</text></g><g clip-path="url(#clip31)"><path d="M900 390 932 390" stroke="#00B050" stroke-width="3.75" stroke-linecap="round" stroke-linejoin="round" stroke-miterlimit="10" fill="none" fill-rule="evenodd"/></g><g clip-path="url(#clip32)"><text fill="#595959" font-family="Calibri,Calibri_MSFontService,sans-serif" font-weight="400" font-size="15" transform="translate(935.541 394)">GBP (SWIFT)</text></g><g clip-path="url(#clip33)"><path d="M900 418 932 418" stroke="#00B0F0" stroke-width="3.75" stroke-linecap="round" stroke-linejoin="round" stroke-miterlimit="10" fill="none" fill-rule="evenodd"/></g><g clip-path="url(#clip34)"><text fill="#595959" font-family="Calibri,Calibri_MSFontService,sans-serif" font-weight="400" font-size="15" transform="translate(935.541 422)">AUD (SWIFT)</text></g><g clip-path="url(#clip35)"><path d="M900 446 932 446" stroke="#002060" stroke-width="3.75" stroke-linecap="round" stroke-linejoin="round" stroke-miterlimit="10" fill="none" fill-rule="evenodd"/></g><g clip-path="url(#clip36)"><text fill="#595959" font-family="Calibri,Calibri_MSFontService,sans-serif" font-weight="400" font-size="15" transform="translate(935.541 450)">CAD (SWIFT)</text></g><g clip-path="url(#clip37)"><path d="M900 474 932 474" stroke="#7030A0" stroke-width="3.75" stroke-linecap="round" stroke-linejoin="round" stroke-miterlimit="10" fill="none" fill-rule="evenodd"/></g><g clip-path="url(#clip38)"><text fill="#595959" font-family="Calibri,Calibri_MSFontService,sans-serif" font-weight="400" font-size="15" transform="translate(935.541 478)">CHF (SWIFT)</text></g><g clip-path="url(#clip39)"><path d="M900 503 932 503" stroke="#FF3399" stroke-width="3.75" stroke-linecap="round" stroke-linejoin="round" stroke-miterlimit="10" fill="none" fill-rule="evenodd"/></g><g clip-path="url(#clip40)"><text fill="#595959" font-family="Calibri,Calibri_MSFontService,sans-serif" font-weight="400" font-size="15" transform="translate(935.541 507)">CNY (SWIFT)</text></g><g clip-path="url(#clip41)"><path d="M900 531 932 531" stroke="#F1ADAD" stroke-width="3.75" stroke-linecap="round" stroke-linejoin="round" stroke-miterlimit="10" fill="none" fill-rule="evenodd"/></g><g clip-path="url(#clip42)"><text fill="#595959" font-family="Calibri,Calibri_MSFontService,sans-serif" font-weight="400" font-size="15" transform="translate(935.541 535)">USD (Invoice)</text></g><g clip-path="url(#clip43)"><path d="M900 559 932 559" stroke="#F1D7AD" stroke-width="3.75" stroke-linecap="round" stroke-linejoin="round" stroke-miterlimit="10" fill="none" fill-rule="evenodd"/></g><g clip-path="url(#clip44)"><text fill="#595959" font-family="Calibri,Calibri_MSFontService,sans-serif" font-weight="400" font-size="15" transform="translate(935.541 563)">EUR (Invoice)</text></g><path d="M554.5 252.5 1034.5 252.5 1034.5 612.5 554.5 612.5Z" stroke="#D9D9D9" stroke-width="1.25" stroke-linejoin="round" stroke-miterlimit="10" fill="none"/></g></svg>