<svg width="600" height="360" xmlns="http://www.w3.org/2000/svg" xmlns:xlink="http://www.w3.org/1999/xlink" overflow="hidden"><defs><clipPath id="clip0"><rect x="1027" y="624" width="600" height="360"/></clipPath><clipPath id="clip1"><rect x="1026" y="623" width="600" height="360"/></clipPath><clipPath id="clip2"><rect x="1026" y="623" width="600" height="360"/></clipPath><clipPath id="clip3"><rect x="1026" y="623" width="600" height="360"/></clipPath><clipPath id="clip4"><rect x="1026" y="623" width="600" height="360"/></clipPath><clipPath id="clip5"><rect x="1112" y="641" width="396" height="269"/></clipPath><clipPath id="clip6"><rect x="1026" y="623" width="600" height="360"/></clipPath><clipPath id="clip7"><rect x="1112" y="641" width="396" height="269"/></clipPath><clipPath id="clip8"><rect x="1026" y="623" width="600" height="360"/></clipPath><clipPath id="clip9"><rect x="1112" y="641" width="396" height="269"/></clipPath><clipPath id="clip10"><rect x="1026" y="623" width="600" height="360"/></clipPath><clipPath id="clip11"><rect x="1112" y="641" width="396" height="269"/></clipPath><clipPath id="clip12"><rect x="1026" y="623" width="600" height="360"/></clipPath><clipPath id="clip13"><rect x="1112" y="641" width="396" height="269"/></clipPath><clipPath id="clip14"><rect x="1026" y="623" width="600" height="360"/></clipPath><clipPath id="clip15"><rect x="1112" y="641" width="396" height="269"/></clipPath><clipPath id="clip16"><rect x="1026" y="623" width="600" height="360"/></clipPath><clipPath id="clip17"><rect x="1112" y="641" width="396" height="269"/></clipPath><clipPath id="clip18"><rect x="1026" y="623" width="600" height="360"/></clipPath><clipPath id="clip19"><rect x="1112" y="641" width="396" height="269"/></clipPath><clipPath id="clip20"><rect x="1026" y="623" width="600" height="360"/></clipPath><clipPath id="clip21"><rect x="1026" y="623" width="600" height="360"/></clipPath><clipPath id="clip22"><rect x="1026" y="623" width="600" height="360"/></clipPath><clipPath id="clip23"><rect x="1026" y="623" width="600" height="360"/></clipPath><clipPath id="clip24"><rect x="1026" y="623" width="600" height="360"/></clipPath><clipPath id="clip25"><rect x="1026" y="623" width="600" height="360"/></clipPath><clipPath id="clip26"><rect x="1026" y="623" width="600" height="360"/></clipPath><clipPath id="clip27"><rect x="1026" y="623" width="600" height="360"/></clipPath><clipPath id="clip28"><rect x="1026" y="623" width="600" height="360"/></clipPath><clipPath id="clip29"><rect x="1026" y="623" width="600" height="360"/></clipPath><clipPath id="clip30"><rect x="1026" y="623" width="600" height="360"/></clipPath><clipPath id="clip31"><rect x="1026" y="623" width="600" height="360"/></clipPath><clipPath id="clip32"><rect x="1026" y="623" width="600" height="360"/></clipPath><clipPath id="clip33"><rect x="1026" y="623" width="600" height="360"/></clipPath><clipPath id="clip34"><rect x="1026" y="623" width="600" height="360"/></clipPath><clipPath id="clip35"><rect x="1026" y="623" width="600" height="360"/></clipPath><clipPath id="clip36"><rect x="1026" y="623" width="600" height="360"/></clipPath><clipPath id="clip37"><rect x="1026" y="623" width="600" height="360"/></clipPath><clipPath id="clip38"><rect x="1026" y="623" width="600" height="360"/></clipPath><clipPath id="clip39"><rect x="1026" y="623" width="600" height="360"/></clipPath><clipPath id="clip40"><rect x="1026" y="623" width="600" height="360"/></clipPath><clipPath id="clip41"><rect x="1026" y="623" width="600" height="360"/></clipPath><clipPath id="clip42"><rect x="1026" y="623" width="600" height="360"/></clipPath><clipPath id="clip43"><rect x="1026" y="623" width="600" height="360"/></clipPath><clipPath id="clip44"><rect x="1026" y="623" width="600" height="360"/></clipPath><clipPath id="clip45"><rect x="1026" y="623" width="600" height="360"/></clipPath><clipPath id="clip46"><rect x="1026" y="623" width="600" height="360"/></clipPath><clipPath id="clip47"><rect x="1026" y="623" width="600" height="360"/></clipPath><clipPath id="clip48"><rect x="1026" y="623" width="600" height="360"/></clipPath><clipPath id="clip49"><rect x="1026" y="623" width="600" height="360"/></clipPath><clipPath id="clip50"><rect x="1026" y="623" width="600" height="360"/></clipPath><clipPath id="clip51"><rect x="1026" y="623" width="600" height="360"/></clipPath><clipPath id="clip52"><rect x="1026" y="623" width="600" height="360"/></clipPath><clipPath id="clip53"><rect x="1026" y="623" width="600" height="360"/></clipPath><clipPath id="clip54"><rect x="1026" y="623" width="600" height="360"/></clipPath><clipPath id="clip55"><rect x="1026" y="623" width="600" height="360"/></clipPath><clipPath id="clip56"><rect x="1026" y="623" width="600" height="360"/></clipPath><clipPath id="clip57"><rect x="1026" y="623" width="600" height="360"/></clipPath><clipPath id="clip58"><rect x="1026" y="623" width="600" height="360"/></clipPath><clipPath id="clip59"><rect x="1026" y="623" width="600" height="360"/></clipPath><clipPath id="clip60"><rect x="1026" y="623" width="600" height="360"/></clipPath><clipPath id="clip61"><rect x="1026" y="623" width="600" height="360"/></clipPath><clipPath id="clip62"><rect x="1026" y="623" width="600" height="360"/></clipPath></defs><g clip-path="url(#clip0)" transform="translate(-1027 -624)"><path d="M1027 624 1626 624 1626 983 1027 983Z" fill="#FFFFFF"/><g clip-path="url(#clip1)"><path d="M1112.5 855.5 1507.5 855.5M1112.5 802.5 1507.5 802.5M1112.5 748.5 1507.5 748.5M1112.5 695.5 1507.5 695.5M1112.5 641.5 1507.5 641.5" stroke="#D9D9D9" stroke-width="1.25" stroke-linejoin="round" stroke-miterlimit="10" fill="none"/></g><g clip-path="url(#clip2)"><path d="M1178.5 641.5 1178.5 909.5M1244.5 641.5 1244.5 909.5M1310.5 641.5 1310.5 909.5M1375.5 641.5 1375.5 909.5M1441.5 641.5 1441.5 909.5M1507.5 641.5 1507.5 909.5" stroke="#D9D9D9" stroke-width="1.25" stroke-linejoin="round" stroke-miterlimit="10" fill="none"/></g><g clip-path="url(#clip3)"><path d="M0 0 0.000131234 268" stroke="#BFBFBF" stroke-width="1.25" stroke-linejoin="round" stroke-miterlimit="10" fill="none" fill-rule="evenodd" transform="matrix(1 0 0 -1 1112.5 909.5)"/></g><g clip-path="url(#clip4)"><path d="M1112.5 909.5 1507.5 909.5" stroke="#BFBFBF" stroke-width="1.25" stroke-linejoin="round" stroke-miterlimit="10" fill="none" fill-rule="evenodd"/></g><g clip-path="url(#clip5)"><path d="M1293.63 669.744 1247.09 674.492C1246.4 674.562 1245.79 674.062 1245.72 673.376 1245.65 672.689 1246.15 672.075 1246.83 672.005L1293.37 667.256C1294.06 667.186 1294.67 667.686 1294.74 668.373 1294.81 669.06 1294.31 669.673 1293.63 669.744ZM1256.99 679.175 1244.49 673.501 1255.58 665.42C1256.14 665.014 1256.92 665.136 1257.33 665.694 1257.73 666.252 1257.61 667.034 1257.05 667.441L1247.7 674.259 1247.48 672.111 1258.02 676.899C1258.65 677.184 1258.93 677.925 1258.64 678.554 1258.35 679.182 1257.61 679.46 1256.99 679.175Z" fill="#FF0000"/></g><g clip-path="url(#clip6)"><path d="M1297.5 668.5C1297.5 670.709 1295.71 672.5 1293.5 672.5 1291.29 672.5 1289.5 670.709 1289.5 668.5 1289.5 666.291 1291.29 664.5 1293.5 664.5 1295.71 664.5 1297.5 666.291 1297.5 668.5Z" fill="#FF0000"/><path d="M1248.5 672.5C1248.5 674.709 1246.71 676.5 1244.5 676.5 1242.29 676.5 1240.5 674.709 1240.5 672.5 1240.5 670.291 1242.29 668.5 1244.5 668.5 1246.71 668.5 1248.5 670.291 1248.5 672.5Z" fill="#FF0000"/></g><g clip-path="url(#clip7)"><path d="M1481.19 808.54 1459.25 823.167C1458.68 823.55 1457.9 823.395 1457.52 822.82 1457.14 822.246 1457.29 821.47 1457.87 821.087L1479.81 806.46C1480.38 806.077 1481.16 806.232 1481.54 806.807 1481.92 807.381 1481.77 808.157 1481.19 808.54ZM1470.19 822.682 1456.5 823.503 1462.52 811.177C1462.82 810.557 1463.57 810.3 1464.19 810.604 1464.81 810.907 1465.07 811.655 1464.77 812.276L1459.68 822.676 1458.48 820.879 1470.04 820.186C1470.73 820.145 1471.32 820.67 1471.36 821.359 1471.4 822.048 1470.88 822.64 1470.19 822.682Z" fill="#FFC000"/></g><g clip-path="url(#clip8)"><path d="M1484.5 807.5C1484.5 809.709 1482.71 811.5 1480.5 811.5 1478.29 811.5 1476.5 809.709 1476.5 807.5 1476.5 805.291 1478.29 803.5 1480.5 803.5 1482.71 803.5 1484.5 805.291 1484.5 807.5Z" fill="#FFC000"/><path d="M1459.5 822.5C1459.5 824.709 1457.71 826.5 1455.5 826.5 1453.29 826.5 1451.5 824.709 1451.5 822.5 1451.5 820.291 1453.29 818.5 1455.5 818.5 1457.71 818.5 1459.5 820.291 1459.5 822.5Z" fill="#FFC000"/></g><g clip-path="url(#clip9)"><path d="M1199.03 847.63 1163.27 864.57C1162.65 864.87 1161.9 864.6 1161.61 863.98 1161.31 863.35 1161.58 862.61 1162.2 862.31L1197.97 845.37C1198.59 845.07 1199.33 845.34 1199.63 845.96 1199.93 846.59 1199.66 847.33 1199.03 847.63ZM1174.16 865.68 1160.49 864.5 1168.25 853.18C1168.64 852.61 1169.41 852.47 1169.98 852.86 1170.55 853.25 1170.7 854.02 1170.31 854.59L1163.77 864.15 1162.84 862.2 1174.38 863.19C1175.07 863.25 1175.58 863.85 1175.52 864.54 1175.46 865.23 1174.85 865.74 1174.16 865.68Z" fill="#CCCC00"/></g><g clip-path="url(#clip10)"><path d="M1201.5 845.5C1201.5 847.71 1199.71 849.5 1197.5 849.5 1195.29 849.5 1193.5 847.71 1193.5 845.5 1193.5 843.29 1195.29 841.5 1197.5 841.5 1199.71 841.5 1201.5 843.29 1201.5 845.5Z" fill="#CCCC00"/><path d="M1164.5 864.5C1164.5 866.71 1162.71 868.5 1160.5 868.5 1158.29 868.5 1156.5 866.71 1156.5 864.5 1156.5 862.29 1158.29 860.5 1160.5 860.5 1162.71 860.5 1164.5 862.29 1164.5 864.5Z" fill="#CCCC00"/></g><g clip-path="url(#clip11)"><path d="M1181.55 875.75 1161.03 876.64C1160.34 876.67 1159.75 876.14 1159.72 875.45 1159.69 874.76 1160.23 874.17 1160.92 874.14L1181.45 873.25C1182.14 873.22 1182.72 873.76 1182.75 874.45 1182.78 875.14 1182.24 875.72 1181.55 875.75ZM1170.63 881.89 1158.49 875.5 1170.03 868.08C1170.61 867.71 1171.39 867.87 1171.76 868.45 1172.14 869.03 1171.97 869.81 1171.39 870.18L1161.65 876.44 1161.55 874.29 1171.8 879.68C1172.41 880 1172.64 880.76 1172.32 881.37 1172 881.98 1171.24 882.21 1170.63 881.89Z" fill="#00B050"/></g><g clip-path="url(#clip12)"><path d="M1185.5 873.5C1185.5 875.71 1183.71 877.5 1181.5 877.5 1179.29 877.5 1177.5 875.71 1177.5 873.5 1177.5 871.29 1179.29 869.5 1181.5 869.5 1183.71 869.5 1185.5 871.29 1185.5 873.5Z" fill="#00B050"/><path d="M1162.5 874.5C1162.5 876.71 1160.71 878.5 1158.5 878.5 1156.29 878.5 1154.5 876.71 1154.5 874.5 1154.5 872.29 1156.29 870.5 1158.5 870.5 1160.71 870.5 1162.5 872.29 1162.5 874.5Z" fill="#00B050"/></g><g clip-path="url(#clip13)"><path d="M1124.38 896.94 1126.28 893.15C1126.58 892.54 1127.33 892.29 1127.95 892.6 1128.57 892.9 1128.82 893.66 1128.51 894.27L1126.62 898.06C1126.31 898.68 1125.56 898.93 1124.94 898.62 1124.32 898.31 1124.07 897.56 1124.38 896.94ZM1117.02 899 1128.5 891.49 1129.39 905.19C1129.43 905.88 1128.91 906.47 1128.22 906.51 1127.53 906.56 1126.94 906.04 1126.89 905.35L1126.15 893.79 1128.08 894.76 1118.39 901.1C1117.81 901.47 1117.03 901.31 1116.66 900.73 1116.28 900.16 1116.44 899.38 1117.02 899Z" fill="#00B0F0"/></g><g clip-path="url(#clip14)"><path d="M1129.5 897.5C1129.5 899.71 1127.71 901.5 1125.5 901.5 1123.29 901.5 1121.5 899.71 1121.5 897.5 1121.5 895.29 1123.29 893.5 1125.5 893.5 1127.71 893.5 1129.5 895.29 1129.5 897.5Z" fill="#00B0F0"/><path d="M1132.5 890.5C1132.5 892.71 1130.71 894.5 1128.5 894.5 1126.29 894.5 1124.5 892.71 1124.5 890.5 1124.5 888.29 1126.29 886.5 1128.5 886.5 1130.71 886.5 1132.5 888.29 1132.5 890.5Z" fill="#00B0F0"/></g><g clip-path="url(#clip15)"><path d="M1166.45 898.75 1143.92 897.85C1143.23 897.82 1142.7 897.24 1142.72 896.55 1142.75 895.86 1143.33 895.32 1144.02 895.35L1166.55 896.25C1167.24 896.28 1167.78 896.86 1167.75 897.55 1167.72 898.24 1167.14 898.78 1166.45 898.75ZM1153.06 903.88 1141.49 896.5 1153.61 890.07C1154.22 889.74 1154.98 889.97 1155.3 890.58 1155.63 891.19 1155.39 891.95 1154.78 892.27L1144.56 897.7 1144.65 895.55 1154.4 901.77C1154.99 902.15 1155.16 902.92 1154.79 903.5 1154.41 904.08 1153.64 904.25 1153.06 903.88Z" fill="#002060"/></g><g clip-path="url(#clip16)"><path d="M1170.5 896.5C1170.5 898.71 1168.71 900.5 1166.5 900.5 1164.29 900.5 1162.5 898.71 1162.5 896.5 1162.5 894.29 1164.29 892.5 1166.5 892.5 1168.71 892.5 1170.5 894.29 1170.5 896.5Z" fill="#002060"/><path d="M1145.5 895.5C1145.5 897.71 1143.71 899.5 1141.5 899.5 1139.29 899.5 1137.5 897.71 1137.5 895.5 1137.5 893.29 1139.29 891.5 1141.5 891.5 1143.71 891.5 1145.5 893.29 1145.5 895.5Z" fill="#002060"/></g><g clip-path="url(#clip17)"><path d="M1137.69 893.1 1137.9 893.76C1138.12 894.41 1137.77 895.12 1137.11 895.34 1136.46 895.56 1135.75 895.2 1135.53 894.55L1135.31 893.9C1135.1 893.24 1135.45 892.53 1136.1 892.31 1136.76 892.1 1137.47 892.45 1137.69 893.1ZM1140.31 883.08 1137.5 896.51 1127.2 887.45C1126.68 886.99 1126.63 886.2 1127.08 885.68 1127.54 885.17 1128.33 885.12 1128.85 885.57L1137.54 893.21 1135.49 893.9 1137.87 882.56C1138.01 881.89 1138.67 881.46 1139.34 881.6 1140.02 881.74 1140.45 882.4 1140.31 883.08Z" fill="#7030A0"/></g><g clip-path="url(#clip18)"><path d="M1139.5 893.5C1139.5 895.71 1137.71 897.5 1135.5 897.5 1133.29 897.5 1131.5 895.71 1131.5 893.5 1131.5 891.29 1133.29 889.5 1135.5 889.5 1137.71 889.5 1139.5 891.29 1139.5 893.5Z" fill="#7030A0"/><path d="M1141.5 895.5C1141.5 897.71 1139.71 899.5 1137.5 899.5 1135.29 899.5 1133.5 897.71 1133.5 895.5 1133.5 893.29 1135.29 891.5 1137.5 891.5 1139.71 891.5 1141.5 893.29 1141.5 895.5Z" fill="#7030A0"/></g><g clip-path="url(#clip19)"><path d="M1154.35 908.26 1248.89 896.56C1249.58 896.48 1250.2 896.97 1250.28 897.65 1250.37 898.34 1249.88 898.96 1249.2 899.04L1154.65 910.74C1153.97 910.83 1153.34 910.34 1153.26 909.65 1153.18 908.97 1153.66 908.34 1154.35 908.26ZM1238.9 892.09 1251.51 897.5 1240.59 905.82C1240.04 906.23 1239.26 906.13 1238.84 905.58 1238.42 905.03 1238.53 904.24 1239.08 903.83L1248.29 896.81 1248.55 898.95 1237.91 894.39C1237.28 894.12 1236.98 893.38 1237.25 892.75 1237.53 892.12 1238.26 891.82 1238.9 892.09Z" fill="#FF3399"/></g><g clip-path="url(#clip20)"><path d="M1157.5 908.5C1157.5 910.71 1155.71 912.5 1153.5 912.5 1151.29 912.5 1149.5 910.71 1149.5 908.5 1149.5 906.29 1151.29 904.5 1153.5 904.5 1155.71 904.5 1157.5 906.29 1157.5 908.5Z" fill="#FF3399"/><path d="M1254.5 897.5C1254.5 899.71 1252.71 901.5 1250.5 901.5 1248.29 901.5 1246.5 899.71 1246.5 897.5 1246.5 895.29 1248.29 893.5 1250.5 893.5 1252.71 893.5 1254.5 895.29 1254.5 897.5Z" fill="#FF3399"/></g><g clip-path="url(#clip21)"><text fill="#404040" font-family="Calibri,Calibri_MSFontService,sans-serif" font-weight="400" font-size="15" transform="translate(1278.57 695)">2001</text></g><g clip-path="url(#clip22)"><text fill="#404040" font-family="Calibri,Calibri_MSFontService,sans-serif" font-weight="400" font-size="15" transform="translate(1229.74 699)">2019</text></g><g clip-path="url(#clip23)"><text fill="#595959" font-family="Calibri,Calibri_MSFontService,sans-serif" font-weight="400" font-size="15" transform="translate(1080.28 914)">0%</text></g><g clip-path="url(#clip24)"><text fill="#595959" font-family="Calibri,Calibri_MSFontService,sans-serif" font-weight="400" font-size="15" transform="translate(1072.68 860)">10%</text></g><g clip-path="url(#clip25)"><text fill="#595959" font-family="Calibri,Calibri_MSFontService,sans-serif" font-weight="400" font-size="15" transform="translate(1072.68 806)">20%</text></g><g clip-path="url(#clip26)"><text fill="#595959" font-family="Calibri,Calibri_MSFontService,sans-serif" font-weight="400" font-size="15" transform="translate(1072.68 753)">30%</text></g><g clip-path="url(#clip27)"><text fill="#595959" font-family="Calibri,Calibri_MSFontService,sans-serif" font-weight="400" font-size="15" transform="translate(1072.68 699)">40%</text></g><g clip-path="url(#clip28)"><text fill="#595959" font-family="Calibri,Calibri_MSFontService,sans-serif" font-weight="400" font-size="15" transform="translate(1072.68 646)">50%</text></g><g clip-path="url(#clip29)"><text fill="#595959" font-family="Calibri,Calibri_MSFontService,sans-serif" font-weight="400" font-size="15" transform="translate(1103.35 933)">0%</text></g><g clip-path="url(#clip30)"><text fill="#595959" font-family="Calibri,Calibri_MSFontService,sans-serif" font-weight="400" font-size="15" transform="translate(1169.21 933)">5%</text></g><g clip-path="url(#clip31)"><text fill="#595959" font-family="Calibri,Calibri_MSFontService,sans-serif" font-weight="400" font-size="15" transform="translate(1231.27 933)">10%</text></g><g clip-path="url(#clip32)"><text fill="#595959" font-family="Calibri,Calibri_MSFontService,sans-serif" font-weight="400" font-size="15" transform="translate(1297.13 933)">15%</text></g><g clip-path="url(#clip33)"><text fill="#595959" font-family="Calibri,Calibri_MSFontService,sans-serif" font-weight="400" font-size="15" transform="translate(1362.99 933)">20%</text></g><g clip-path="url(#clip34)"><text fill="#595959" font-family="Calibri,Calibri_MSFontService,sans-serif" font-weight="400" font-size="15" transform="translate(1428.85 933)">25%</text></g><g clip-path="url(#clip35)"><text fill="#595959" font-family="Calibri,Calibri_MSFontService,sans-serif" font-weight="400" font-size="15" transform="translate(1494.71 933)">30%</text></g><g clip-path="url(#clip36)"><text fill="#595959" font-family="Calibri,Calibri_MSFontService,sans-serif" font-weight="400" font-size="17" transform="matrix(6.12323e-17 -1 1 6.12323e-17 1063.33 864)">FX Market Turnover</text></g><g clip-path="url(#clip37)"><text fill="#595959" font-family="Calibri,Calibri_MSFontService,sans-serif" font-weight="400" font-size="17" transform="matrix(6.12323e-17 -1 1 6.12323e-17 1063.33 725)">Share</text></g><g clip-path="url(#clip38)"><text fill="#595959" font-family="Calibri,Calibri_MSFontService,sans-serif" font-weight="400" font-size="17" transform="translate(1266.81 958)">Export Share</text></g><g clip-path="url(#clip39)"><path d="M1546.5 704.25 1576.03 704.25C1576.72 704.25 1577.28 704.81 1577.28 705.5 1577.28 706.19 1576.72 706.75 1576.03 706.75L1546.5 706.75C1545.81 706.75 1545.25 706.19 1545.25 705.5 1545.25 704.81 1545.81 704.25 1546.5 704.25ZM1566.65 698.587 1578.51 705.5 1566.65 712.413C1566.06 712.761 1565.29 712.56 1564.95 711.963 1564.6 711.367 1564.8 710.602 1565.4 710.254L1575.4 704.42 1575.4 706.58 1565.4 700.746C1564.8 700.399 1564.6 699.633 1564.95 699.037 1565.29 698.441 1566.06 698.239 1566.65 698.587Z" fill="#FF0000"/></g><g clip-path="url(#clip40)"><path d="M1566 705C1566 707.209 1564.21 709 1562 709 1559.79 709 1558 707.209 1558 705 1558 702.791 1559.79 701 1562 701 1564.21 701 1566 702.791 1566 705Z" fill="#FF0000"/></g><g clip-path="url(#clip41)"><text fill="#595959" font-family="Calibri,Calibri_MSFontService,sans-serif" font-weight="400" font-size="15" transform="translate(1582.09 709)">USD</text></g><g clip-path="url(#clip42)"><path d="M1546.5 732.25 1576.03 732.25C1576.72 732.25 1577.28 732.81 1577.28 733.5 1577.28 734.19 1576.72 734.75 1576.03 734.75L1546.5 734.75C1545.81 734.75 1545.25 734.19 1545.25 733.5 1545.25 732.81 1545.81 732.25 1546.5 732.25ZM1566.65 726.587 1578.51 733.5 1566.65 740.413C1566.06 740.761 1565.29 740.56 1564.95 739.963 1564.6 739.367 1564.8 738.602 1565.4 738.254L1575.4 732.42 1575.4 734.58 1565.4 728.746C1564.8 728.399 1564.6 727.633 1564.95 727.037 1565.29 726.441 1566.06 726.239 1566.65 726.587Z" fill="#FFC000"/></g><g clip-path="url(#clip43)"><path d="M1566 733C1566 735.209 1564.21 737 1562 737 1559.79 737 1558 735.209 1558 733 1558 730.791 1559.79 729 1562 729 1564.21 729 1566 730.791 1566 733Z" fill="#FFC000"/></g><g clip-path="url(#clip44)"><text fill="#595959" font-family="Calibri,Calibri_MSFontService,sans-serif" font-weight="400" font-size="15" transform="translate(1582.09 737)">EUR</text></g><g clip-path="url(#clip45)"><path d="M1546.5 760.25 1576.03 760.25C1576.72 760.25 1577.28 760.81 1577.28 761.5 1577.28 762.19 1576.72 762.75 1576.03 762.75L1546.5 762.75C1545.81 762.75 1545.25 762.19 1545.25 761.5 1545.25 760.81 1545.81 760.25 1546.5 760.25ZM1566.65 754.587 1578.51 761.5 1566.65 768.413C1566.06 768.761 1565.29 768.56 1564.95 767.963 1564.6 767.367 1564.8 766.602 1565.4 766.254L1575.4 760.42 1575.4 762.58 1565.4 756.746C1564.8 756.399 1564.6 755.633 1564.95 755.037 1565.29 754.441 1566.06 754.239 1566.65 754.587Z" fill="#CCCC00"/></g><g clip-path="url(#clip46)"><path d="M1566 761C1566 763.209 1564.21 765 1562 765 1559.79 765 1558 763.209 1558 761 1558 758.791 1559.79 757 1562 757 1564.21 757 1566 758.791 1566 761Z" fill="#CCCC00"/></g><g clip-path="url(#clip47)"><text fill="#595959" font-family="Calibri,Calibri_MSFontService,sans-serif" font-weight="400" font-size="15" transform="translate(1582.09 765)">JPY</text></g><g clip-path="url(#clip48)"><path d="M1546.5 788.25 1576.03 788.25C1576.72 788.25 1577.28 788.81 1577.28 789.5 1577.28 790.19 1576.72 790.75 1576.03 790.75L1546.5 790.75C1545.81 790.75 1545.25 790.19 1545.25 789.5 1545.25 788.81 1545.81 788.25 1546.5 788.25ZM1566.65 782.587 1578.51 789.5 1566.65 796.413C1566.06 796.761 1565.29 796.56 1564.95 795.963 1564.6 795.367 1564.8 794.602 1565.4 794.254L1575.4 788.42 1575.4 790.58 1565.4 784.746C1564.8 784.399 1564.6 783.633 1564.95 783.037 1565.29 782.441 1566.06 782.239 1566.65 782.587Z" fill="#00B050"/></g><g clip-path="url(#clip49)"><path d="M1566 789C1566 791.209 1564.21 793 1562 793 1559.79 793 1558 791.209 1558 789 1558 786.791 1559.79 785 1562 785 1564.21 785 1566 786.791 1566 789Z" fill="#00B050"/></g><g clip-path="url(#clip50)"><text fill="#595959" font-family="Calibri,Calibri_MSFontService,sans-serif" font-weight="400" font-size="15" transform="translate(1582.09 793)">GBP</text></g><g clip-path="url(#clip51)"><path d="M1546.5 816.25 1576.03 816.25C1576.72 816.25 1577.28 816.81 1577.28 817.5 1577.28 818.19 1576.72 818.75 1576.03 818.75L1546.5 818.75C1545.81 818.75 1545.25 818.19 1545.25 817.5 1545.25 816.81 1545.81 816.25 1546.5 816.25ZM1566.65 810.587 1578.51 817.5 1566.65 824.413C1566.06 824.761 1565.29 824.56 1564.95 823.963 1564.6 823.367 1564.8 822.602 1565.4 822.254L1575.4 816.42 1575.4 818.58 1565.4 812.746C1564.8 812.399 1564.6 811.633 1564.95 811.037 1565.29 810.441 1566.06 810.239 1566.65 810.587Z" fill="#00B0F0"/></g><g clip-path="url(#clip52)"><path d="M1566 817C1566 819.209 1564.21 821 1562 821 1559.79 821 1558 819.209 1558 817 1558 814.791 1559.79 813 1562 813 1564.21 813 1566 814.791 1566 817Z" fill="#00B0F0"/></g><g clip-path="url(#clip53)"><text fill="#595959" font-family="Calibri,Calibri_MSFontService,sans-serif" font-weight="400" font-size="15" transform="translate(1582.09 822)">AUD</text></g><g clip-path="url(#clip54)"><path d="M1546.5 844.25 1576.03 844.25C1576.72 844.25 1577.28 844.81 1577.28 845.5 1577.28 846.19 1576.72 846.75 1576.03 846.75L1546.5 846.75C1545.81 846.75 1545.25 846.19 1545.25 845.5 1545.25 844.81 1545.81 844.25 1546.5 844.25ZM1566.65 838.587 1578.51 845.5 1566.65 852.41C1566.06 852.76 1565.29 852.56 1564.95 851.96 1564.6 851.37 1564.8 850.6 1565.4 850.25L1575.4 844.42 1575.4 846.58 1565.4 840.746C1564.8 840.399 1564.6 839.633 1564.95 839.037 1565.29 838.441 1566.06 838.239 1566.65 838.587Z" fill="#002060"/></g><g clip-path="url(#clip55)"><path d="M1566 845C1566 847.21 1564.21 849 1562 849 1559.79 849 1558 847.21 1558 845 1558 842.791 1559.79 841 1562 841 1564.21 841 1566 842.791 1566 845Z" fill="#002060"/></g><g clip-path="url(#clip56)"><text fill="#595959" font-family="Calibri,Calibri_MSFontService,sans-serif" font-weight="400" font-size="15" transform="translate(1582.09 850)">CAD</text></g><g clip-path="url(#clip57)"><path d="M1546.5 872.25 1576.03 872.25C1576.72 872.25 1577.28 872.81 1577.28 873.5 1577.28 874.19 1576.72 874.75 1576.03 874.75L1546.5 874.75C1545.81 874.75 1545.25 874.19 1545.25 873.5 1545.25 872.81 1545.81 872.25 1546.5 872.25ZM1566.65 866.59 1578.51 873.5 1566.65 880.41C1566.06 880.76 1565.29 880.56 1564.95 879.96 1564.6 879.37 1564.8 878.6 1565.4 878.25L1575.4 872.42 1575.4 874.58 1565.4 868.75C1564.8 868.4 1564.6 867.63 1564.95 867.04 1565.29 866.44 1566.06 866.24 1566.65 866.59Z" fill="#7030A0"/></g><g clip-path="url(#clip58)"><path d="M1566 873C1566 875.21 1564.21 877 1562 877 1559.79 877 1558 875.21 1558 873 1558 870.79 1559.79 869 1562 869 1564.21 869 1566 870.79 1566 873Z" fill="#7030A0"/></g><g clip-path="url(#clip59)"><text fill="#595959" font-family="Calibri,Calibri_MSFontService,sans-serif" font-weight="400" font-size="15" transform="translate(1582.09 878)">CHF</text></g><g clip-path="url(#clip60)"><path d="M1546.5 900.25 1576.03 900.25C1576.72 900.25 1577.28 900.81 1577.28 901.5 1577.28 902.19 1576.72 902.75 1576.03 902.75L1546.5 902.75C1545.81 902.75 1545.25 902.19 1545.25 901.5 1545.25 900.81 1545.81 900.25 1546.5 900.25ZM1566.65 894.59 1578.51 901.5 1566.65 908.41C1566.06 908.76 1565.29 908.56 1564.95 907.96 1564.6 907.37 1564.8 906.6 1565.4 906.25L1575.4 900.42 1575.4 902.58 1565.4 896.75C1564.8 896.4 1564.6 895.63 1564.95 895.04 1565.29 894.44 1566.06 894.24 1566.65 894.59Z" fill="#FF3399"/></g><g clip-path="url(#clip61)"><path d="M1566 901C1566 903.21 1564.21 905 1562 905 1559.79 905 1558 903.21 1558 901 1558 898.79 1559.79 897 1562 897 1564.21 897 1566 898.79 1566 901Z" fill="#FF3399"/></g><g clip-path="url(#clip62)"><text fill="#595959" font-family="Calibri,Calibri_MSFontService,sans-serif" font-weight="400" font-size="15" transform="translate(1582.09 906)">CNY</text></g><path d="M1027.5 624.5 1626.5 624.5 1626.5 983.5 1027.5 983.5Z" stroke="#D9D9D9" stroke-width="1.25" stroke-linejoin="round" stroke-miterlimit="10" fill="none"/></g></svg>