<svg width="1323" height="993" xmlns="http://www.w3.org/2000/svg" xmlns:xlink="http://www.w3.org/1999/xlink" overflow="hidden"><defs><clipPath id="clip0"><rect x="1491" y="47935" width="1323" height="993"/></clipPath><clipPath id="clip1"><rect x="1491" y="47935" width="1320" height="990"/></clipPath><clipPath id="clip2"><rect x="1491" y="47935" width="1320" height="990"/></clipPath><clipPath id="clip3"><rect x="1491" y="47935" width="1320" height="990"/></clipPath><clipPath id="clip4"><rect x="1491" y="47935" width="1320" height="990"/></clipPath><clipPath id="clip5"><rect x="1631" y="47986" width="837" height="837"/></clipPath><clipPath id="clip6"><rect x="1631" y="47986" width="837" height="837"/></clipPath><clipPath id="clip7"><rect x="1631" y="47986" width="837" height="837"/></clipPath><clipPath id="clip8"><rect x="1491" y="47935" width="1320" height="990"/></clipPath><clipPath id="clip9"><rect x="1491" y="47935" width="1320" height="990"/></clipPath><clipPath id="clip10"><rect x="1491" y="47935" width="1320" height="990"/></clipPath><clipPath id="clip11"><rect x="1491" y="47935" width="1320" height="990"/></clipPath><clipPath id="clip12"><rect x="1491" y="47935" width="1320" height="990"/></clipPath><clipPath id="clip13"><rect x="1491" y="47935" width="1320" height="990"/></clipPath><clipPath id="clip14"><rect x="1491" y="47935" width="1320" height="990"/></clipPath><clipPath id="clip15"><rect x="1491" y="47935" width="1320" height="990"/></clipPath><clipPath id="clip16"><rect x="1491" y="47935" width="1320" height="990"/></clipPath><clipPath id="clip17"><rect x="1491" y="47935" width="1320" height="990"/></clipPath><clipPath id="clip18"><rect x="1491" y="47935" width="1320" height="990"/></clipPath><clipPath id="clip19"><rect x="1491" y="47935" width="1320" height="990"/></clipPath><clipPath id="clip20"><rect x="1491" y="47935" width="1320" height="990"/></clipPath><clipPath id="clip21"><rect x="1491" y="47935" width="1320" height="990"/></clipPath><clipPath id="clip22"><rect x="1491" y="47935" width="1320" height="990"/></clipPath><clipPath id="clip23"><rect x="1491" y="47935" width="1320" height="990"/></clipPath></defs><g clip-path="url(#clip0)" transform="translate(-1491 -47935)"><rect x="1492" y="47936" width="1320" height="990" fill="#FFFFFF"/><g clip-path="url(#clip1)"><path d="M1631.5 48542.1 2465.5 48542.1M1631.5 48264.1 2465.5 48264.1M1631.5 47986.5 2465.5 47986.5" stroke="#D9D9D9" stroke-width="3.4375" stroke-linejoin="round" stroke-miterlimit="10" fill="none"/></g><g clip-path="url(#clip2)"><path d="M1631.5 47986.5 1631.5 48819.5M1797.56 47986.5 1797.56 48819.5M1964.56 47986.5 1964.56 48819.5M2131.57 47986.5 2131.57 48819.5M2298.58 47986.5 2298.58 48819.5M2465.5 47986.5 2465.5 48819.5" stroke="#D9D9D9" stroke-width="3.4375" stroke-linejoin="round" stroke-miterlimit="10" fill="none"/></g><g clip-path="url(#clip3)"><path d="M1631.5 48819.5 2465.5 48819.5" stroke="#D9D9D9" stroke-width="3.4375" stroke-linejoin="round" stroke-miterlimit="10" fill="none" fill-rule="evenodd"/></g><g clip-path="url(#clip4)"><path d="M1631.5 48819.5 1631.5 48832.5M1797.56 48819.5 1797.56 48832.5M1964.56 48819.5 1964.56 48832.5M2131.57 48819.5 2131.57 48832.5M2298.58 48819.5 2298.58 48832.5M2465.5 48819.5 2465.5 48832.5" stroke="#D9D9D9" stroke-width="3.4375" stroke-linejoin="round" stroke-miterlimit="10" fill="none"/></g><g clip-path="url(#clip5)"><path d="M1464 48413 1498.05 48452.6 1531.05 48472.6 1564.05 48461.6 1598.05 48502.6 1631.05 48543.6 1665.05 48579.6 1698.06 48633.6 1731.06 48624.6 1765.06 48634.6 1798.06 48656.6 1831.06 48665.6 1865.06 48659.6 1898.06 48665.6 1931.06 48688.6 1965.06 48687.6 1998.07 48687.6 2031.07 48686.6 2065.07 48692.6 2098.07 48679.6 2131.07 48656.6 2165.07 48660.6 2198.07 48656.6 2232.07 48702.6 2265.07 48699.6 2298.08 48703 2332.08 48691.6 2365.08 48682.6 2398.08 48683.6 2432.08 48662.6 2465 48639.6" stroke="#000000" stroke-width="10.3125" stroke-linecap="round" stroke-linejoin="round" stroke-miterlimit="10" fill="none"/></g><g clip-path="url(#clip6)"><path d="M1631 48330.6 1665.05 48262.6 1698.06 48202.6 1731.06 48174.6 1765.06 48158.6 1798.06 48135.6 1831.06 48143.6 1865.06 48210.6 1898.06 48225.6 1931.06 48236.6 1965.06 48269.6 1998.07 48302.6 2031.07 48326.6 2065.07 48358.6 2098.07 48384.6 2131.07 48394.6 2165.07 48392.6 2198.07 48400.6 2232.07 48405 2265.07 48334.6 2298.08 48252.6 2332.08 48172.6 2365.08 48133.6 2398.08 48094 2432.08 48118.6 2465 48154.6" stroke="#FF0000" stroke-width="10.3125" stroke-linecap="round" stroke-linejoin="round" stroke-miterlimit="10" fill="none"/></g><g clip-path="url(#clip7)"><path d="M1631 48541 1665.05 48560.6 1698.06 48575.6 1731.06 48635.6 1765.06 48627.6 1798.06 48620.6 1831.06 48615.6 1865.06 48574.6 1898.06 48564.6 1931.06 48576.6 1965.06 48601.6 1998.07 48600.6 2031.07 48596.6 2065.07 48610.6 2098.07 48603.6 2131.07 48620.6 2165.07 48631.6 2198.07 48633.6 2232.07 48640.6 2265.07 48647 2298.08 48639.6 2332.08 48610.6 2365.08 48574.6 2398.08 48550.6 2432.08 48551.6 2465 48543.6" stroke="#FFC000" stroke-width="10.3125" stroke-linecap="round" stroke-linejoin="round" stroke-miterlimit="10" fill="none"/></g><g clip-path="url(#clip8)"><text fill="#595959" font-family="Calibri,Calibri_MSFontService,sans-serif" font-weight="400" font-size="41" transform="matrix(1 0 0 1 1542.57 48831)">0%</text></g><g clip-path="url(#clip9)"><text fill="#595959" font-family="Calibri,Calibri_MSFontService,sans-serif" font-weight="400" font-size="41" transform="matrix(1 0 0 1 1521.67 48553)">20%</text></g><g clip-path="url(#clip10)"><text fill="#595959" font-family="Calibri,Calibri_MSFontService,sans-serif" font-weight="400" font-size="41" transform="matrix(1 0 0 1 1521.67 48276)">40%</text></g><g clip-path="url(#clip11)"><text fill="#595959" font-family="Calibri,Calibri_MSFontService,sans-serif" font-weight="400" font-size="41" transform="matrix(1 0 0 1 1521.67 47998)">60%</text></g><g clip-path="url(#clip12)"><text fill="#595959" font-family="Calibri,Calibri_MSFontService,sans-serif" font-weight="400" font-size="41" transform="matrix(1 0 0 1 1589.43 48885)">1995</text></g><g clip-path="url(#clip13)"><text fill="#595959" font-family="Calibri,Calibri_MSFontService,sans-serif" font-weight="400" font-size="41" transform="matrix(1 0 0 1 1756.21 48885)">2000</text></g><g clip-path="url(#clip14)"><text fill="#595959" font-family="Calibri,Calibri_MSFontService,sans-serif" font-weight="400" font-size="41" transform="matrix(1 0 0 1 1922.99 48885)">2005</text></g><g clip-path="url(#clip15)"><text fill="#595959" font-family="Calibri,Calibri_MSFontService,sans-serif" font-weight="400" font-size="41" transform="matrix(1 0 0 1 2089.76 48885)">2010</text></g><g clip-path="url(#clip16)"><text fill="#595959" font-family="Calibri,Calibri_MSFontService,sans-serif" font-weight="400" font-size="41" transform="matrix(1 0 0 1 2256.54 48885)">2015</text></g><g clip-path="url(#clip17)"><text fill="#595959" font-family="Calibri,Calibri_MSFontService,sans-serif" font-weight="400" font-size="41" transform="matrix(1 0 0 1 2423.32 48885)">2020</text></g><g clip-path="url(#clip18)"><path d="M2579 48354 2667 48354" stroke="#000000" stroke-width="10.3125" stroke-linecap="round" stroke-linejoin="round" stroke-miterlimit="10" fill="none" fill-rule="evenodd"/></g><g clip-path="url(#clip19)"><text fill="#595959" font-family="Calibri,Calibri_MSFontService,sans-serif" font-weight="400" font-size="41" transform="matrix(1 0 0 1 2675.93 48365)">Gold</text></g><g clip-path="url(#clip20)"><path d="M2579 48431 2667 48431" stroke="#FF0000" stroke-width="10.3125" stroke-linecap="round" stroke-linejoin="round" stroke-miterlimit="10" fill="none" fill-rule="evenodd"/></g><g clip-path="url(#clip21)"><text fill="#595959" font-family="Calibri,Calibri_MSFontService,sans-serif" font-weight="400" font-size="41" transform="matrix(1 0 0 1 2675.93 48442)">USD</text></g><g clip-path="url(#clip22)"><path d="M2579 48508 2667 48508" stroke="#FFC000" stroke-width="10.3125" stroke-linecap="round" stroke-linejoin="round" stroke-miterlimit="10" fill="none" fill-rule="evenodd"/></g><g clip-path="url(#clip23)"><text fill="#595959" font-family="Calibri,Calibri_MSFontService,sans-serif" font-weight="400" font-size="41" transform="matrix(1 0 0 1 2675.93 48520)">EUR*</text></g><rect x="1492.5" y="47936.5" width="1320" height="990" stroke="#D9D9D9" stroke-width="3.4375" stroke-linejoin="round" stroke-miterlimit="10" fill="none"/></g></svg>