<svg width="1323" height="993" xmlns="http://www.w3.org/2000/svg" xmlns:xlink="http://www.w3.org/1999/xlink" overflow="hidden"><defs><clipPath id="clip0"><rect x="3017" y="361" width="1323" height="993"/></clipPath><clipPath id="clip1"><rect x="3018" y="361" width="1320" height="990"/></clipPath><clipPath id="clip2"><rect x="3198" y="412" width="1093" height="735"/></clipPath><clipPath id="clip3"><rect x="3198" y="412" width="1093" height="735"/></clipPath><clipPath id="clip4"><rect x="3198" y="412" width="1093" height="735"/></clipPath><clipPath id="clip5"><rect x="3198" y="412" width="1093" height="735"/></clipPath><clipPath id="clip6"><rect x="3198" y="412" width="1093" height="735"/></clipPath><clipPath id="clip7"><rect x="3198" y="412" width="1093" height="735"/></clipPath><clipPath id="clip8"><rect x="3198" y="412" width="1093" height="735"/></clipPath><clipPath id="clip9"><rect x="3198" y="412" width="1093" height="735"/></clipPath><clipPath id="clip10"><rect x="3198" y="412" width="1093" height="735"/></clipPath><clipPath id="clip11"><rect x="3198" y="412" width="1093" height="735"/></clipPath><clipPath id="clip12"><rect x="3018" y="361" width="1320" height="990"/></clipPath><clipPath id="clip13"><rect x="3018" y="361" width="1320" height="990"/></clipPath><clipPath id="clip14"><rect x="3018" y="361" width="1320" height="990"/></clipPath><clipPath id="clip15"><rect x="3018" y="361" width="1320" height="990"/></clipPath><clipPath id="clip16"><rect x="3018" y="361" width="1320" height="990"/></clipPath><clipPath id="clip17"><rect x="3018" y="361" width="1320" height="990"/></clipPath><clipPath id="clip18"><rect x="3018" y="361" width="1320" height="990"/></clipPath><clipPath id="clip19"><rect x="3018" y="361" width="1320" height="990"/></clipPath><clipPath id="clip20"><rect x="3018" y="361" width="1320" height="990"/></clipPath><clipPath id="clip21"><rect x="3018" y="361" width="1320" height="990"/></clipPath><clipPath id="clip22"><rect x="3018" y="361" width="1320" height="990"/></clipPath><clipPath id="clip23"><rect x="3018" y="361" width="1320" height="990"/></clipPath><clipPath id="clip24"><rect x="3018" y="361" width="1320" height="990"/></clipPath><clipPath id="clip25"><rect x="3018" y="361" width="1320" height="990"/></clipPath><clipPath id="clip26"><rect x="3018" y="361" width="1320" height="990"/></clipPath><clipPath id="clip27"><rect x="3018" y="361" width="1320" height="990"/></clipPath><clipPath id="clip28"><rect x="3018" y="361" width="1320" height="990"/></clipPath></defs><g clip-path="url(#clip0)" transform="translate(-3017 -361)"><rect x="3018" y="362" width="1320" height="990" fill="#FFFFFF"/><g clip-path="url(#clip1)"><path d="M3198.5 899.53 4287.5 899.53M3198.5 655.522 4287.5 655.522M3198.5 412.5 4287.5 412.5" stroke="#D9D9D9" stroke-width="3.4375" stroke-linejoin="round" stroke-miterlimit="10" fill="none"/></g><g clip-path="url(#clip2)"><rect x="3226" y="434" width="54" height="710" fill="#FF0000"/></g><g clip-path="url(#clip3)"><rect x="3335" y="884" width="54" height="260" fill="#FFC000"/></g><g clip-path="url(#clip4)"><rect x="3444" y="1009" width="54" height="135" fill="#CCCC00"/></g><g clip-path="url(#clip5)"><rect x="3553" y="1041" width="54" height="103" fill="#00B050"/></g><g clip-path="url(#clip6)"><rect x="3662" y="1089" width="54" height="55" fill="#00B0F0"/></g><g clip-path="url(#clip7)"><rect x="3770" y="1103" width="55" height="40.9999" fill="#002060"/></g><g clip-path="url(#clip8)"><rect x="3879" y="1104" width="55" height="39.9999" fill="#7030A0"/></g><g clip-path="url(#clip9)"><rect x="3988" y="1109" width="55" height="35.0001" fill="#FF3399"/></g><g clip-path="url(#clip10)"><rect x="4097" y="1126" width="55" height="17.9999"/></g><g clip-path="url(#clip11)"><rect x="4206" y="1135" width="54" height="8.99988" fill="#800000"/></g><g clip-path="url(#clip12)"><path d="M3198.5 1143.5 4287.5 1143.5" stroke="#D9D9D9" stroke-width="3.4375" stroke-linejoin="round" stroke-miterlimit="10" fill="none" fill-rule="evenodd"/></g><g clip-path="url(#clip13)"><text fill="#595959" font-family="Calibri,Calibri_MSFontService,sans-serif" font-weight="400" font-size="41" transform="matrix(1 0 0 1 3110.52 1155)"> -</text></g><g clip-path="url(#clip14)"><text fill="#595959" font-family="Calibri,Calibri_MSFontService,sans-serif" font-weight="400" font-size="41" transform="matrix(1 0 0 1 3047.92 911)"> 2,000</text></g><g clip-path="url(#clip15)"><text fill="#595959" font-family="Calibri,Calibri_MSFontService,sans-serif" font-weight="400" font-size="41" transform="matrix(1 0 0 1 3047.92 667)"> 4,000</text></g><g clip-path="url(#clip16)"><text fill="#595959" font-family="Calibri,Calibri_MSFontService,sans-serif" font-weight="400" font-size="41" transform="matrix(1 0 0 1 3047.92 424)"> 6,000</text></g><g clip-path="url(#clip17)"><text fill="#595959" font-family="Calibri,Calibri_MSFontService,sans-serif" font-weight="400" font-size="41" transform="matrix(0.707107 -0.707107 0.707107 0.707107 3212.9 1248)">USD</text></g><g clip-path="url(#clip18)"><text fill="#595959" font-family="Calibri,Calibri_MSFontService,sans-serif" font-weight="400" font-size="41" transform="matrix(0.707107 -0.707107 0.707107 0.707107 3323.06 1246)">EUR</text></g><g clip-path="url(#clip19)"><text fill="#595959" font-family="Calibri,Calibri_MSFontService,sans-serif" font-weight="400" font-size="41" transform="matrix(0.707107 -0.707107 0.707107 0.707107 3442.17 1236)">JPY</text></g><g clip-path="url(#clip20)"><text fill="#595959" font-family="Calibri,Calibri_MSFontService,sans-serif" font-weight="400" font-size="41" transform="matrix(0.707107 -0.707107 0.707107 0.707107 3540.3 1247)">GBP</text></g><g clip-path="url(#clip21)"><text fill="#595959" font-family="Calibri,Calibri_MSFontService,sans-serif" font-weight="400" font-size="41" transform="matrix(0.707107 -0.707107 0.707107 0.707107 3645.01 1251)">AUD</text></g><g clip-path="url(#clip22)"><text fill="#595959" font-family="Calibri,Calibri_MSFontService,sans-serif" font-weight="400" font-size="41" transform="matrix(0.707107 -0.707107 0.707107 0.707107 3757.06 1248)">CAD</text></g><g clip-path="url(#clip23)"><text fill="#595959" font-family="Calibri,Calibri_MSFontService,sans-serif" font-weight="400" font-size="41" transform="matrix(0.707107 -0.707107 0.707107 0.707107 3869.22 1245)">CHF</text></g><g clip-path="url(#clip24)"><text fill="#595959" font-family="Calibri,Calibri_MSFontService,sans-serif" font-weight="400" font-size="41" transform="matrix(0.707107 -0.707107 0.707107 0.707107 3976.64 1246)">CNY</text></g><g clip-path="url(#clip25)"><text fill="#595959" font-family="Calibri,Calibri_MSFontService,sans-serif" font-weight="400" font-size="41" transform="matrix(0.707107 -0.707107 0.707107 0.707107 4078.33 1253)">Gold</text></g><g clip-path="url(#clip26)"><text fill="#595959" font-family="Calibri,Calibri_MSFontService,sans-serif" font-weight="400" font-size="41" transform="matrix(0.707107 -0.707107 0.707107 0.707107 4126.75 1314)">All Crypto</text></g><g clip-path="url(#clip27)"><text fill="#595959" font-family="Calibri,Calibri_MSFontService,sans-serif" font-weight="400" font-size="46" transform="matrix(1 0 0 1 4178.62 468)">2019</text></g><g clip-path="url(#clip28)"><text fill="#595959" font-family="Calibri,Calibri_MSFontService,sans-serif" font-weight="400" font-size="46" transform="matrix(1 0 0 1 3782.67 524)">Daily Volume (USD Billion)</text></g><rect x="3018.5" y="362.5" width="1320" height="990" stroke="#D9D9D9" stroke-width="3.4375" stroke-linejoin="round" stroke-miterlimit="10" fill="none"/></g></svg>