<svg width="1321" height="994" xmlns="http://www.w3.org/2000/svg" xmlns:xlink="http://www.w3.org/1999/xlink" overflow="hidden"><defs><clipPath id="clip0"><rect x="-1" y="6512" width="1321" height="994"/></clipPath><clipPath id="clip1"><rect x="120" y="6563" width="1150" height="838"/></clipPath><clipPath id="clip2"><rect x="120" y="6563" width="1150" height="838"/></clipPath><clipPath id="clip3"><rect x="0" y="6513" width="1317" height="991"/></clipPath><clipPath id="clip4"><rect x="0" y="6513" width="1317" height="991"/></clipPath><clipPath id="clip5"><rect x="0" y="6513" width="1317" height="991"/></clipPath><clipPath id="clip6"><rect x="0" y="6513" width="1317" height="991"/></clipPath><clipPath id="clip7"><rect x="120" y="6563" width="1150" height="838"/></clipPath><clipPath id="clip8"><rect x="120" y="6563" width="1150" height="838"/></clipPath><clipPath id="clip9"><rect x="0" y="6513" width="1317" height="991"/></clipPath><clipPath id="clip10"><rect x="0" y="6513" width="1317" height="991"/></clipPath><clipPath id="clip11"><rect x="0" y="6513" width="1317" height="991"/></clipPath><clipPath id="clip12"><rect x="0" y="6513" width="1317" height="991"/></clipPath><clipPath id="clip13"><rect x="0" y="6513" width="1317" height="991"/></clipPath><clipPath id="clip14"><rect x="0" y="6513" width="1317" height="991"/></clipPath><clipPath id="clip15"><rect x="0" y="6513" width="1317" height="991"/></clipPath><clipPath id="clip16"><rect x="0" y="6513" width="1317" height="991"/></clipPath><clipPath id="clip17"><rect x="0" y="6513" width="1317" height="991"/></clipPath><clipPath id="clip18"><rect x="0" y="6513" width="1317" height="991"/></clipPath><clipPath id="clip19"><rect x="0" y="6513" width="1317" height="991"/></clipPath><clipPath id="clip20"><rect x="0" y="6513" width="1317" height="991"/></clipPath><clipPath id="clip21"><rect x="0" y="6513" width="1317" height="991"/></clipPath><clipPath id="clip22"><rect x="0" y="6513" width="1317" height="991"/></clipPath><clipPath id="clip23"><rect x="0" y="6513" width="1317" height="991"/></clipPath><clipPath id="clip24"><rect x="0" y="6513" width="1317" height="991"/></clipPath><clipPath id="clip25"><rect x="0" y="6513" width="1317" height="991"/></clipPath><clipPath id="clip26"><rect x="0" y="6513" width="1317" height="991"/></clipPath><clipPath id="clip27"><rect x="0" y="6513" width="1317" height="991"/></clipPath></defs><g clip-path="url(#clip0)" transform="translate(1 -6512)"><rect x="0" y="6513" width="1318" height="991" fill="#FFFFFF"/><g clip-path="url(#clip1)"><path d="M331 6874 344.011 6874 358.012 6874 371.012 6874 384.013 6874 397.013 6874 410.013 6874 423.014 6874 437.014 6874 450.015 6874 463.015 6874 476.016 6874 489.016 6874 502.016 6874 516.017 6874 529.017 6874 542.018 6874 555.018 6874 568.019 6874 582.019 6874 595.02 6874 608.02 6874 621.02 6874 634.021 6874 648.021 6874 661.022 6874 674.022 6874 687.023 6874 700.023 6874 713.023 6874 727.024 6874 740.024 6874 753.025 6874 766.025 6874 779.026 6874 793.026 6874 806.026 6874 819.027 6874 832.027 6874 845.028 6874 859.028 6874 872.029 6874 885.029 6874 898.029 6874 911.03 6874 924.03 6874 937.031 6874 951.031 6874 964.032 6874 977.032 6874 990.032 6874 1004.03 6874 1017.03 6874 1030.03 6874 1043.03 6874 1056.03 6874 1070.04 6874 1083.04 6874 1096.04 6874 1109.04 6874 1122.04 6874 1135.04 6874 1148.04 6874 1162.04 6874 1175.04 6874 1188.04 6874 1201.04 6874 1214.04 6874 1228.04 6874 1241.04 6874 1254.04 6874 1267 6874 1267 7398 1254.04 7398 1241.04 7398 1228.04 7398 1214.04 7398 1201.04 7398 1188.04 7398 1175.04 7398 1162.04 7398 1148.04 7398 1135.04 7398 1122.04 7398 1109.04 7398 1096.04 7398 1083.04 7398 1070.04 7398 1056.03 7398 1043.03 7398 1030.03 7398 1017.03 7398 1004.03 7398 990.032 7398 977.032 7398 964.032 7398 951.031 7398 937.031 7398 924.03 7398 911.03 7398 898.029 7398 885.029 7398 872.029 7398 859.028 7398 845.028 7398 832.027 7398 819.027 7398 806.026 7398 793.026 7398 779.026 7398 766.025 7398 753.025 7398 740.024 7398 727.024 7398 713.023 7398 700.023 7398 687.023 7398 674.022 7398 661.022 7398 648.021 7398 634.021 7398 621.02 7398 608.02 7398 595.02 7398 582.019 7398 568.019 7398 555.018 7398 542.018 7398 529.017 7398 516.017 7398 502.016 7398 489.016 7398 476.016 7398 463.015 7398 450.015 7398 437.014 7398 423.014 7398 410.013 7398 397.013 7398 384.013 7398 371.012 7398 358.012 7398 344.011 7398 331 7398Z" fill="#D9D9D9"/></g><g clip-path="url(#clip2)"><path d="M331 7085 344.011 7085 358.012 7085 371.012 7085 384.013 7085 397.013 7085 410.013 7085 423.014 7085 437.014 7085 450.015 7085 463.015 7085 476.016 7085 489.016 7085 502.016 7085 516.017 7085 529.017 7085 542.018 7085 555.018 7085 568.019 7085 582.019 7085 595.02 7085 608.02 7085 621.02 7085 634.021 7085 648.021 7085 661.022 7085 674.022 7085 687.023 7085 700.023 7085 713.023 7085 727.024 7085 740.024 7085 753.025 7085 766.025 7085 779.026 7085 793.026 7085 806.026 7085 819.027 7085 832.027 7085 845.028 7085 859.028 7085 872.029 7085 885.029 7085 898.029 7085 911.03 7085 924.03 7085 937.031 7085 951.031 7085 964.032 7085 977.032 7085 990.032 7085 1004.03 7085 1017.03 7085 1030.03 7085 1043.03 7085 1056.03 7085 1070.04 7085 1083.04 7085 1096.04 7085 1109.04 7085 1122.04 7085 1135.04 7085 1148.04 7085 1162.04 7085 1175.04 7085 1188.04 7085 1201.04 7085 1214.04 7085 1228.04 7085 1241.04 7085 1254.04 7085 1267 7085 1267 7398 1254.04 7398 1241.04 7398 1228.04 7398 1214.04 7398 1201.04 7398 1188.04 7398 1175.04 7398 1162.04 7398 1148.04 7398 1135.04 7398 1122.04 7398 1109.04 7398 1096.04 7398 1083.04 7398 1070.04 7398 1056.03 7398 1043.03 7398 1030.03 7398 1017.03 7398 1004.03 7398 990.032 7398 977.032 7398 964.032 7398 951.031 7398 937.031 7398 924.03 7398 911.03 7398 898.029 7398 885.029 7398 872.029 7398 859.028 7398 845.028 7398 832.027 7398 819.027 7398 806.026 7398 793.026 7398 779.026 7398 766.025 7398 753.025 7398 740.024 7398 727.024 7398 713.023 7398 700.023 7398 687.023 7398 674.022 7398 661.022 7398 648.021 7398 634.021 7398 621.02 7398 608.02 7398 595.02 7398 582.019 7398 568.019 7398 555.018 7398 542.018 7398 529.017 7398 516.017 7398 502.016 7398 489.016 7398 476.016 7398 463.015 7398 450.015 7398 437.014 7398 423.014 7398 410.013 7398 397.013 7398 384.013 7398 371.012 7398 358.012 7398 344.011 7398 331 7398Z" fill="#FFFFFF"/></g><g clip-path="url(#clip3)"><path d="M0 0 0.000360892 835" stroke="#D9D9D9" stroke-width="3.4375" stroke-linejoin="round" stroke-miterlimit="10" fill="none" fill-rule="evenodd" transform="matrix(1 0 0 -1 120.5 7398.5)"/></g><g clip-path="url(#clip4)"><path d="M107.5 7398.5 120.5 7398.5M107.5 7305.74 120.5 7305.74M107.5 7212.74 120.5 7212.74M107.5 7119.73 120.5 7119.73M107.5 7027.73 120.5 7027.73M107.5 6934.73 120.5 6934.73M107.5 6841.72 120.5 6841.72M107.5 6748.72 120.5 6748.72M107.5 6656.72 120.5 6656.72M107.5 6563.5 120.5 6563.5" stroke="#D9D9D9" stroke-width="3.4375" stroke-linejoin="round" stroke-miterlimit="10" fill="none"/></g><g clip-path="url(#clip5)"><path d="M120.5 7398.5 1267.5 7398.5" stroke="#D9D9D9" stroke-width="3.4375" stroke-linejoin="round" stroke-miterlimit="10" fill="none" fill-rule="evenodd"/></g><g clip-path="url(#clip6)"><path d="M120.5 7398.5 120.5 7411.5M384.513 7398.5 384.513 7411.5M647.521 7398.5 647.521 7411.5M911.53 7398.5 911.53 7411.5M1174.5 7398.5 1174.5 7411.5" stroke="#D9D9D9" stroke-width="3.4375" stroke-linejoin="round" stroke-miterlimit="10" fill="none"/></g><g clip-path="url(#clip7)"><path d="M331 6973.23 344.011 6993.23 358.012 7012.23 371.012 6989.23 384.013 6882.23 397.013 6943.23 410.013 7033.23 423.014 7024.23 437.014 7042.23 450.015 7016.23 463.015 6954.23 476.016 6966.23 489.016 6914.23 502.016 6901.23 516.017 6885.23 529.017 6820.22 542.018 6784.22 555.018 6686.22 568.019 6668 582.019 6840.22 595.02 6842.22 608.02 6912.23 621.02 6829.22 634.021 6794.22 648.021 6805.22 661.022 6880.23 674.022 6980.23 687.023 6877.23 700.023 6906.23 713.023 6827.22 727.024 6796.22 740.024 6880.23 753.025 6938.23 766.025 6905.23 779.026 6986.23 793.026 6952.23 806.026 6916.23 819.027 6952.23 832.027 6933.23 845.028 6886.23 859.028 6865.23 872.029 6862.23 885.029 6870.23 898.029 6969.23 911.03 7018.23 924.03 7144.23 937.031 7107.23 951.031 7104.23 964.032 7133.23 977.032 7085.23 990.032 7110.23 1004.03 7099.23 1017.03 7159 1030.03 7149.23 1043.03 7079.23 1056.03 7047.23 1070.04 7027.23 1083.04 6999.23 1096.04 7068.23 1109.04 7064.23 1122.04 7074.23 1135.04 7099.23 1148.04 7086.23 1162.04 7129.23 1175.04 7099.23 1188.04 7117.23 1201.04 7098.23 1214.04 7052.23 1228.04 7010.23 1241.04 7052.23 1254.04 7040.23 1267 7066.23" stroke="#EDB40D" stroke-width="10.3125" stroke-linecap="round" stroke-linejoin="round" stroke-miterlimit="10" fill="none"/></g><g clip-path="url(#clip8)"><path d="M331.5 6972.5 344.512 6972.5 357.512 6972.5 370.512 6972.5 384.513 6972.5 397.513 6972.5 410.514 6972.5 423.514 6972.5 436.515 6972.5 449.515 6972.5 462.515 6972.5 476.516 6972.5 489.516 6972.5 502.517 6972.5 515.517 6972.5 528.518 6972.5 542.518 6972.5 555.518 6972.5 568.519 6972.5 581.519 6972.5 595.52 6972.5 607.52 6972.5 621.521 6972.5 634.521 6972.5 647.521 6972.5 660.522 6972.5 673.522 6972.5 687.523 6972.5 700.523 6972.5 713.524 6972.5 726.524 6972.5 739.524 6972.5 753.525 6972.5 766.525 6972.5 779.526 6972.5 792.526 6972.5 805.527 6972.5 818.527 6972.5 832.527 6972.5 845.528 6972.5 858.528 6972.5 871.529 6972.5 884.529 6972.5 898.53 6972.5 911.53 6972.5 924.531 6972.5 937.531 6972.5 950.531 6972.5 964.532 6972.5 977.532 6972.5 990.533 6972.5 1003.53 6972.5 1016.53 6972.5 1029.53 6972.5 1042.53 6972.5 1056.53 6972.5 1069.54 6972.5 1082.54 6972.5 1095.54 6972.5 1108.54 6972.5 1122.54 6972.5 1135.54 6972.5 1148.54 6972.5 1161.54 6972.5 1174.54 6972.5 1188.54 6972.5 1201.54 6972.5 1214.54 6972.5 1227.54 6972.5 1240.54 6972.5 1253.54 6972.5 1267.5 6972.5" stroke="#EDB40D" stroke-width="4.58333" stroke-linecap="round" stroke-linejoin="round" stroke-miterlimit="10" stroke-dasharray="13.75 18.3333" fill="none"/></g><g clip-path="url(#clip9)"><text fill="#595959" font-family="Calibri,Calibri_MSFontService,sans-serif" font-weight="400" font-size="41" transform="matrix(1 0 0 1 29.7917 7410)">0.8</text></g><g clip-path="url(#clip10)"><text fill="#595959" font-family="Calibri,Calibri_MSFontService,sans-serif" font-weight="400" font-size="41" transform="matrix(1 0 0 1 29.7917 7317)">0.9</text></g><g clip-path="url(#clip11)"><text fill="#595959" font-family="Calibri,Calibri_MSFontService,sans-serif" font-weight="400" font-size="41" transform="matrix(1 0 0 1 61.0958 7224)">1</text></g><g clip-path="url(#clip12)"><text fill="#595959" font-family="Calibri,Calibri_MSFontService,sans-serif" font-weight="400" font-size="41" transform="matrix(1 0 0 1 29.7917 7131)">1.1</text></g><g clip-path="url(#clip13)"><text fill="#595959" font-family="Calibri,Calibri_MSFontService,sans-serif" font-weight="400" font-size="41" transform="matrix(1 0 0 1 29.7917 7039)">1.2</text></g><g clip-path="url(#clip14)"><text fill="#595959" font-family="Calibri,Calibri_MSFontService,sans-serif" font-weight="400" font-size="41" transform="matrix(1 0 0 1 29.7917 6946)">1.3</text></g><g clip-path="url(#clip15)"><text fill="#595959" font-family="Calibri,Calibri_MSFontService,sans-serif" font-weight="400" font-size="41" transform="matrix(1 0 0 1 29.7917 6853)">1.4</text></g><g clip-path="url(#clip16)"><text fill="#595959" font-family="Calibri,Calibri_MSFontService,sans-serif" font-weight="400" font-size="41" transform="matrix(1 0 0 1 29.7917 6761)">1.5</text></g><g clip-path="url(#clip17)"><text fill="#595959" font-family="Calibri,Calibri_MSFontService,sans-serif" font-weight="400" font-size="41" transform="matrix(1 0 0 1 29.7917 6668)">1.6</text></g><g clip-path="url(#clip18)"><text fill="#595959" font-family="Calibri,Calibri_MSFontService,sans-serif" font-weight="400" font-size="41" transform="matrix(1 0 0 1 29.7917 6575)">1.7</text></g><g clip-path="url(#clip19)"><text fill="#595959" font-family="Calibri,Calibri_MSFontService,sans-serif" font-weight="400" font-size="41" transform="matrix(1 0 0 1 78.5349 7463)">2000</text></g><g clip-path="url(#clip20)"><text fill="#595959" font-family="Calibri,Calibri_MSFontService,sans-serif" font-weight="400" font-size="41" transform="matrix(1 0 0 1 342.3 7463)">2005</text></g><g clip-path="url(#clip21)"><text fill="#595959" font-family="Calibri,Calibri_MSFontService,sans-serif" font-weight="400" font-size="41" transform="matrix(1 0 0 1 605.92 7463)">2010</text></g><g clip-path="url(#clip22)"><text fill="#595959" font-family="Calibri,Calibri_MSFontService,sans-serif" font-weight="400" font-size="41" transform="matrix(1 0 0 1 869.54 7463)">2015</text></g><g clip-path="url(#clip23)"><text fill="#595959" font-family="Calibri,Calibri_MSFontService,sans-serif" font-weight="400" font-size="41" transform="matrix(1 0 0 1 1133.16 7463)">2020</text></g><g clip-path="url(#clip24)"><rect x="840" y="6561" width="115" height="22.9995" fill="#D9D9D9"/></g><g clip-path="url(#clip25)"><text fill="#595959" font-family="Calibri,Calibri_MSFontService,sans-serif" font-weight="400" font-size="41" transform="matrix(1 0 0 1 968.028 6584)">Percentile [20-80]</text></g><g clip-path="url(#clip26)"><path d="M839.5 6635.5 955.5 6635.5" stroke="#EDB40D" stroke-width="4.58333" stroke-linecap="round" stroke-linejoin="round" stroke-miterlimit="10" stroke-dasharray="13.75 18.3333" fill="none" fill-rule="evenodd"/></g><g clip-path="url(#clip27)"><text fill="#595959" font-family="Calibri,Calibri_MSFontService,sans-serif" font-weight="400" font-size="41" transform="matrix(1 0 0 1 968.028 6647)">Mean</text></g><rect x="0.499836" y="6513.5" width="1318" height="991" stroke="#D9D9D9" stroke-width="3.4375" stroke-linejoin="round" stroke-miterlimit="10" fill="none"/></g></svg>