<svg width="1318" height="994" xmlns="http://www.w3.org/2000/svg" xmlns:xlink="http://www.w3.org/1999/xlink" overflow="hidden"><defs><clipPath id="clip0"><rect x="1996" y="6512" width="1318" height="994"/></clipPath><clipPath id="clip1"><rect x="2127" y="6619" width="1137" height="838"/></clipPath><clipPath id="clip2"><rect x="2127" y="6619" width="1137" height="838"/></clipPath><clipPath id="clip3"><rect x="1996" y="6513" width="1315" height="991"/></clipPath><clipPath id="clip4"><rect x="1996" y="6513" width="1315" height="991"/></clipPath><clipPath id="clip5"><rect x="1996" y="6513" width="1315" height="991"/></clipPath><clipPath id="clip6"><rect x="1996" y="6513" width="1315" height="991"/></clipPath><clipPath id="clip7"><rect x="2127" y="6619" width="1137" height="838"/></clipPath><clipPath id="clip8"><rect x="2127" y="6619" width="1137" height="838"/></clipPath><clipPath id="clip9"><rect x="1996" y="6513" width="1315" height="991"/></clipPath><clipPath id="clip10"><rect x="1996" y="6513" width="1315" height="991"/></clipPath><clipPath id="clip11"><rect x="1996" y="6513" width="1315" height="991"/></clipPath><clipPath id="clip12"><rect x="1996" y="6513" width="1315" height="991"/></clipPath><clipPath id="clip13"><rect x="1996" y="6513" width="1315" height="991"/></clipPath><clipPath id="clip14"><rect x="1996" y="6513" width="1315" height="991"/></clipPath><clipPath id="clip15"><rect x="1996" y="6513" width="1315" height="991"/></clipPath><clipPath id="clip16"><rect x="1996" y="6513" width="1315" height="991"/></clipPath><clipPath id="clip17"><rect x="1996" y="6513" width="1315" height="991"/></clipPath><clipPath id="clip18"><rect x="1996" y="6513" width="1315" height="991"/></clipPath><clipPath id="clip19"><rect x="1996" y="6513" width="1315" height="991"/></clipPath><clipPath id="clip20"><rect x="1996" y="6513" width="1315" height="991"/></clipPath><clipPath id="clip21"><rect x="1996" y="6513" width="1315" height="991"/></clipPath><clipPath id="clip22"><rect x="1996" y="6513" width="1315" height="991"/></clipPath><clipPath id="clip23"><rect x="1996" y="6513" width="1315" height="991"/></clipPath><clipPath id="clip24"><rect x="1996" y="6513" width="1315" height="991"/></clipPath><clipPath id="clip25"><rect x="1996" y="6513" width="1315" height="991"/></clipPath><clipPath id="clip26"><rect x="1996" y="6513" width="1315" height="991"/></clipPath><clipPath id="clip27"><rect x="1996" y="6513" width="1315" height="991"/></clipPath><clipPath id="clip28"><rect x="1996" y="6513" width="1315" height="991"/></clipPath></defs><g clip-path="url(#clip0)" transform="translate(-1996 -6512)"><rect x="1997" y="6513" width="1315" height="991" fill="#FFFFFF"/><g clip-path="url(#clip1)"><path d="M2127 7020 2140.07 7020 2153.07 7020 2166.07 7020 2180.07 7020 2192.07 7020 2205.07 7020 2219.07 7020 2232.07 7020 2245.07 7020 2257.07 7020 2271.07 7020 2284.07 7020 2297.08 7020 2310.08 7020 2323.08 7020 2336.08 7020 2349.08 7020 2362.08 7020 2375.08 7020 2388.08 7020 2401.08 7020 2414.08 7020 2427.08 7020 2440.08 7020 2453.08 7020 2466.08 7020 2479.08 7020 2492.08 7020 2505.08 7020 2518.08 7020 2531.08 7020 2544.08 7020 2557.08 7020 2570.08 7020 2583.08 7020 2597.09 7020 2609.09 7020 2622.09 7020 2636.09 7020 2649.09 7020 2662.09 7020 2674.09 7020 2688.09 7020 2701.09 7020 2714.09 7020 2727.09 7020 2740.09 7020 2753.09 7020 2766.09 7020 2779.09 7020 2792.09 7020 2805.09 7020 2818.09 7020 2831.09 7020 2844.09 7020 2857.09 7020 2870.09 7020 2883.09 7020 2896.1 7020 2909.1 7020 2922.1 7020 2935.1 7020 2948.1 7020 2961.1 7020 2974.1 7020 2987.1 7020 3000.1 7020 3014.1 7020 3026.1 7020 3039.1 7020 3053.1 7020 3066.1 7020 3079.1 7020 3092.1 7020 3105.1 7020 3118.1 7020 3131.1 7020 3144.1 7020 3157.1 7020 3170.1 7020 3183.1 7020 3196.1 7020 3209.11 7020 3222.11 7020 3235.11 7020 3248.11 7020 3261 7020 3261 6620 3248.11 6620 3235.11 6620 3222.11 6620 3209.11 6620 3196.1 6620 3183.1 6620 3170.1 6620 3157.1 6620 3144.1 6620 3131.1 6620 3118.1 6620 3105.1 6620 3092.1 6620 3079.1 6620 3066.1 6620 3053.1 6620 3039.1 6620 3026.1 6620 3014.1 6620 3000.1 6620 2987.1 6620 2974.1 6620 2961.1 6620 2948.1 6620 2935.1 6620 2922.1 6620 2909.1 6620 2896.1 6620 2883.09 6620 2870.09 6620 2857.09 6620 2844.09 6620 2831.09 6620 2818.09 6620 2805.09 6620 2792.09 6620 2779.09 6620 2766.09 6620 2753.09 6620 2740.09 6620 2727.09 6620 2714.09 6620 2701.09 6620 2688.09 6620 2674.09 6620 2662.09 6620 2649.09 6620 2636.09 6620 2622.09 6620 2609.09 6620 2597.09 6620 2583.08 6620 2570.08 6620 2557.08 6620 2544.08 6620 2531.08 6620 2518.08 6620 2505.08 6620 2492.08 6620 2479.08 6620 2466.08 6620 2453.08 6620 2440.08 6620 2427.08 6620 2414.08 6620 2401.08 6620 2388.08 6620 2375.08 6620 2362.08 6620 2349.08 6620 2336.08 6620 2323.08 6620 2310.08 6620 2297.08 6620 2284.07 6620 2271.07 6620 2257.07 6620 2245.07 6620 2232.07 6620 2219.07 6620 2205.07 6620 2192.07 6620 2180.07 6620 2166.07 6620 2153.07 6620 2140.07 6620 2127 6620Z" fill="#D9D9D9"/></g><g clip-path="url(#clip2)"><path d="M2127 6854 2140.07 6854 2153.07 6854 2166.07 6854 2180.07 6854 2192.07 6854 2205.07 6854 2219.07 6854 2232.07 6854 2245.07 6854 2257.07 6854 2271.07 6854 2284.07 6854 2297.08 6854 2310.08 6854 2323.08 6854 2336.08 6854 2349.08 6854 2362.08 6854 2375.08 6854 2388.08 6854 2401.08 6854 2414.08 6854 2427.08 6854 2440.08 6854 2453.08 6854 2466.08 6854 2479.08 6854 2492.08 6854 2505.08 6854 2518.08 6854 2531.08 6854 2544.08 6854 2557.08 6854 2570.08 6854 2583.08 6854 2597.09 6854 2609.09 6854 2622.09 6854 2636.09 6854 2649.09 6854 2662.09 6854 2674.09 6854 2688.09 6854 2701.09 6854 2714.09 6854 2727.09 6854 2740.09 6854 2753.09 6854 2766.09 6854 2779.09 6854 2792.09 6854 2805.09 6854 2818.09 6854 2831.09 6854 2844.09 6854 2857.09 6854 2870.09 6854 2883.09 6854 2896.1 6854 2909.1 6854 2922.1 6854 2935.1 6854 2948.1 6854 2961.1 6854 2974.1 6854 2987.1 6854 3000.1 6854 3014.1 6854 3026.1 6854 3039.1 6854 3053.1 6854 3066.1 6854 3079.1 6854 3092.1 6854 3105.1 6854 3118.1 6854 3131.1 6854 3144.1 6854 3157.1 6854 3170.1 6854 3183.1 6854 3196.1 6854 3209.11 6854 3222.11 6854 3235.11 6854 3248.11 6854 3261 6854 3261 6620 3248.11 6620 3235.11 6620 3222.11 6620 3209.11 6620 3196.1 6620 3183.1 6620 3170.1 6620 3157.1 6620 3144.1 6620 3131.1 6620 3118.1 6620 3105.1 6620 3092.1 6620 3079.1 6620 3066.1 6620 3053.1 6620 3039.1 6620 3026.1 6620 3014.1 6620 3000.1 6620 2987.1 6620 2974.1 6620 2961.1 6620 2948.1 6620 2935.1 6620 2922.1 6620 2909.1 6620 2896.1 6620 2883.09 6620 2870.09 6620 2857.09 6620 2844.09 6620 2831.09 6620 2818.09 6620 2805.09 6620 2792.09 6620 2779.09 6620 2766.09 6620 2753.09 6620 2740.09 6620 2727.09 6620 2714.09 6620 2701.09 6620 2688.09 6620 2674.09 6620 2662.09 6620 2649.09 6620 2636.09 6620 2622.09 6620 2609.09 6620 2597.09 6620 2583.08 6620 2570.08 6620 2557.08 6620 2544.08 6620 2531.08 6620 2518.08 6620 2505.08 6620 2492.08 6620 2479.08 6620 2466.08 6620 2453.08 6620 2440.08 6620 2427.08 6620 2414.08 6620 2401.08 6620 2388.08 6620 2375.08 6620 2362.08 6620 2349.08 6620 2336.08 6620 2323.08 6620 2310.08 6620 2297.08 6620 2284.07 6620 2271.07 6620 2257.07 6620 2245.07 6620 2232.07 6620 2219.07 6620 2205.07 6620 2192.07 6620 2180.07 6620 2166.07 6620 2153.07 6620 2140.07 6620 2127 6620Z" fill="#FFFFFF"/></g><g clip-path="url(#clip3)"><path d="M2127.5 6619.5 2127.5 7453.5" stroke="#D9D9D9" stroke-width="3.4375" stroke-linejoin="round" stroke-miterlimit="10" fill="none" fill-rule="evenodd"/></g><g clip-path="url(#clip4)"><path d="M2114.5 6619.5 2127.5 6619.5M2114.5 6702.72 2127.5 6702.72M2114.5 6786.72 2127.5 6786.72M2114.5 6869.73 2127.5 6869.73M2114.5 6953.73 2127.5 6953.73M2114.5 7036.73 2127.5 7036.73M2114.5 7119.73 2127.5 7119.73M2114.5 7203.74 2127.5 7203.74M2114.5 7286.74 2127.5 7286.74M2114.5 7370.74 2127.5 7370.74M2114.5 7453.5 2127.5 7453.5" stroke="#D9D9D9" stroke-width="3.4375" stroke-linejoin="round" stroke-miterlimit="10" fill="none"/></g><g clip-path="url(#clip5)"><path d="M2127.5 6619.5 3261.5 6619.5" stroke="#D9D9D9" stroke-width="3.4375" stroke-linejoin="round" stroke-miterlimit="10" fill="none" fill-rule="evenodd"/></g><g clip-path="url(#clip6)"><path d="M2127.5 6606.5 2127.5 6619.5M2388.58 6606.5 2388.58 6619.5M2648.59 6606.5 2648.59 6619.5M2909.6 6606.5 2909.6 6619.5M3169.5 6606.5 3169.5 6619.5" stroke="#D9D9D9" stroke-width="3.4375" stroke-linejoin="round" stroke-miterlimit="10" fill="none"/></g><g clip-path="url(#clip7)"><path d="M2127 6888.23 2140.07 6894.23 2153.07 6920.23 2166.07 6938.23 2180.07 6991.23 2192.07 7089.23 2205.07 7074.23 2219.07 7039.23 2232.07 7136.23 2245.07 7148 2257.07 7035.23 2271.07 7058.23 2284.07 7026.23 2297.08 7018.23 2310.08 7030.23 2323.08 6963.23 2336.08 6931.23 2349.08 6901.23 2362.08 6940.23 2375.08 6957.23 2388.08 6891.23 2401.08 6934.23 2414.08 6968.23 2427.08 6982.23 2440.08 7020.23 2453.08 7018.23 2466.08 6991.23 2479.08 7020.23 2492.08 7027.23 2505.08 7018.23 2518.08 7063.23 2531.08 7002.23 2544.08 6968.23 2557.08 6889.23 2570.08 6919.23 2583.08 6919.23 2597.09 6792.22 2609.09 6859.23 2622.09 6842.22 2636.09 6783.22 2649.09 6811.22 2662.09 6818.22 2674.09 6766.22 2688.09 6733.22 2701.09 6715.22 2714.09 6731.22 2727.09 6708.22 2740.09 6676 2753.09 6683.22 2766.09 6722.22 2779.09 6697.22 2792.09 6686.22 2805.09 6759.22 2818.09 6822.22 2831.09 6865.23 2844.09 6856.23 2857.09 6914.23 2870.09 6897.23 2883.09 6880.23 2896.1 6950.23 2909.1 7034.23 2922.1 7037.23 2935.1 7056.23 2948.1 7035.23 2961.1 7039.23 2974.1 6974.23 2987.1 6895.23 3000.1 6880.23 3014.1 7005.23 3026.1 6968.23 3039.1 6970.23 3053.1 6974.23 3066.1 6975.23 3079.1 6924.23 3092.1 6957.23 3105.1 6985.23 3118.1 6950.23 3131.1 6961.23 3144.1 6940.23 3157.1 6937.23 3170.1 6942.23 3183.1 6932.23 3196.1 6936.23 3209.11 6915.23 3222.11 6897.23 3235.11 6959.23 3248.11 6963.23 3261 6965.23" stroke="#EDB40D" stroke-width="10.3125" stroke-linecap="round" stroke-linejoin="round" stroke-miterlimit="10" fill="none"/></g><g clip-path="url(#clip8)"><path d="M2127.5 6927.5 2140.57 6927.5 2153.57 6927.5 2166.57 6927.5 2179.57 6927.5 2192.57 6927.5 2205.57 6927.5 2218.57 6927.5 2231.57 6927.5 2244.57 6927.5 2257.57 6927.5 2270.57 6927.5 2283.58 6927.5 2296.58 6927.5 2309.58 6927.5 2322.58 6927.5 2335.58 6927.5 2348.58 6927.5 2361.58 6927.5 2374.58 6927.5 2388.58 6927.5 2400.58 6927.5 2413.58 6927.5 2427.58 6927.5 2440.58 6927.5 2453.58 6927.5 2465.58 6927.5 2479.58 6927.5 2492.58 6927.5 2505.58 6927.5 2518.58 6927.5 2531.58 6927.5 2544.58 6927.5 2557.58 6927.5 2570.58 6927.5 2583.58 6927.5 2596.59 6927.5 2609.59 6927.5 2622.59 6927.5 2635.59 6927.5 2648.59 6927.5 2661.59 6927.5 2674.59 6927.5 2687.59 6927.5 2700.59 6927.5 2713.59 6927.5 2726.59 6927.5 2739.59 6927.5 2752.59 6927.5 2765.59 6927.5 2778.59 6927.5 2791.59 6927.5 2805.59 6927.5 2817.59 6927.5 2830.59 6927.5 2844.59 6927.5 2857.59 6927.5 2870.59 6927.5 2882.59 6927.5 2896.6 6927.5 2909.6 6927.5 2922.6 6927.5 2935.6 6927.5 2948.6 6927.5 2961.6 6927.5 2974.6 6927.5 2987.6 6927.5 3000.6 6927.5 3013.6 6927.5 3026.6 6927.5 3039.6 6927.5 3052.6 6927.5 3065.6 6927.5 3078.6 6927.5 3091.6 6927.5 3104.6 6927.5 3117.6 6927.5 3130.6 6927.5 3143.6 6927.5 3156.6 6927.5 3169.6 6927.5 3182.6 6927.5 3195.6 6927.5 3208.61 6927.5 3222.61 6927.5 3234.61 6927.5 3247.61 6927.5 3261.5 6927.5" stroke="#EDB40D" stroke-width="4.58333" stroke-linecap="round" stroke-linejoin="round" stroke-miterlimit="10" stroke-dasharray="13.75 18.3333" fill="none"/></g><g clip-path="url(#clip9)"><text fill="#595959" font-family="Calibri,Calibri_MSFontService,sans-serif" font-weight="400" font-size="41" transform="matrix(1 0 0 1 2047.27 6631)">70</text></g><g clip-path="url(#clip10)"><text fill="#595959" font-family="Calibri,Calibri_MSFontService,sans-serif" font-weight="400" font-size="41" transform="matrix(1 0 0 1 2047.27 6715)">80</text></g><g clip-path="url(#clip11)"><text fill="#595959" font-family="Calibri,Calibri_MSFontService,sans-serif" font-weight="400" font-size="41" transform="matrix(1 0 0 1 2047.27 6798)">90</text></g><g clip-path="url(#clip12)"><text fill="#595959" font-family="Calibri,Calibri_MSFontService,sans-serif" font-weight="400" font-size="41" transform="matrix(1 0 0 1 2026.37 6882)">100</text></g><g clip-path="url(#clip13)"><text fill="#595959" font-family="Calibri,Calibri_MSFontService,sans-serif" font-weight="400" font-size="41" transform="matrix(1 0 0 1 2026.37 6965)">110</text></g><g clip-path="url(#clip14)"><text fill="#595959" font-family="Calibri,Calibri_MSFontService,sans-serif" font-weight="400" font-size="41" transform="matrix(1 0 0 1 2026.37 7048)">120</text></g><g clip-path="url(#clip15)"><text fill="#595959" font-family="Calibri,Calibri_MSFontService,sans-serif" font-weight="400" font-size="41" transform="matrix(1 0 0 1 2026.37 7132)">130</text></g><g clip-path="url(#clip16)"><text fill="#595959" font-family="Calibri,Calibri_MSFontService,sans-serif" font-weight="400" font-size="41" transform="matrix(1 0 0 1 2026.37 7215)">140</text></g><g clip-path="url(#clip17)"><text fill="#595959" font-family="Calibri,Calibri_MSFontService,sans-serif" font-weight="400" font-size="41" transform="matrix(1 0 0 1 2026.37 7299)">150</text></g><g clip-path="url(#clip18)"><text fill="#595959" font-family="Calibri,Calibri_MSFontService,sans-serif" font-weight="400" font-size="41" transform="matrix(1 0 0 1 2026.37 7382)">160</text></g><g clip-path="url(#clip19)"><text fill="#595959" font-family="Calibri,Calibri_MSFontService,sans-serif" font-weight="400" font-size="41" transform="matrix(1 0 0 1 2026.37 7465)">170</text></g><g clip-path="url(#clip20)"><text fill="#595959" font-family="Calibri,Calibri_MSFontService,sans-serif" font-weight="400" font-size="41" transform="matrix(1 0 0 1 2085.61 6578)">2000</text></g><g clip-path="url(#clip21)"><text fill="#595959" font-family="Calibri,Calibri_MSFontService,sans-serif" font-weight="400" font-size="41" transform="matrix(1 0 0 1 2346.35 6578)">2005</text></g><g clip-path="url(#clip22)"><text fill="#595959" font-family="Calibri,Calibri_MSFontService,sans-serif" font-weight="400" font-size="41" transform="matrix(1 0 0 1 2606.95 6578)">2010</text></g><g clip-path="url(#clip23)"><text fill="#595959" font-family="Calibri,Calibri_MSFontService,sans-serif" font-weight="400" font-size="41" transform="matrix(1 0 0 1 2867.55 6578)">2015</text></g><g clip-path="url(#clip24)"><text fill="#595959" font-family="Calibri,Calibri_MSFontService,sans-serif" font-weight="400" font-size="41" transform="matrix(1 0 0 1 3128.16 6578)">2020</text></g><g clip-path="url(#clip25)"><rect x="2813" y="7340" width="116" height="23" fill="#D9D9D9"/></g><g clip-path="url(#clip26)"><text fill="#595959" font-family="Calibri,Calibri_MSFontService,sans-serif" font-weight="400" font-size="41" transform="matrix(1 0 0 1 2941.38 7363)">Percentile [20-80]</text></g><g clip-path="url(#clip27)"><path d="M2813.5 7416.5 2928.5 7416.5" stroke="#EDB40D" stroke-width="4.58333" stroke-linecap="round" stroke-linejoin="round" stroke-miterlimit="10" stroke-dasharray="13.75 18.3333" fill="none" fill-rule="evenodd"/></g><g clip-path="url(#clip28)"><text fill="#595959" font-family="Calibri,Calibri_MSFontService,sans-serif" font-weight="400" font-size="41" transform="matrix(1 0 0 1 2941.38 7429)">Mean</text></g><rect x="1997.5" y="6513.5" width="1315" height="991" stroke="#D9D9D9" stroke-width="3.4375" stroke-linejoin="round" stroke-miterlimit="10" fill="none"/></g></svg>