<svg width="1320" height="994" xmlns="http://www.w3.org/2000/svg" xmlns:xlink="http://www.w3.org/1999/xlink" overflow="hidden"><defs><clipPath id="clip0"><rect x="3943" y="6512" width="1320" height="994"/></clipPath><clipPath id="clip1"><rect x="4064" y="6563" width="1149" height="838"/></clipPath><clipPath id="clip2"><rect x="4064" y="6563" width="1149" height="838"/></clipPath><clipPath id="clip3"><rect x="3944" y="6513" width="1316" height="991"/></clipPath><clipPath id="clip4"><rect x="3944" y="6513" width="1316" height="991"/></clipPath><clipPath id="clip5"><rect x="3944" y="6513" width="1316" height="991"/></clipPath><clipPath id="clip6"><rect x="3944" y="6513" width="1316" height="991"/></clipPath><clipPath id="clip7"><rect x="4064" y="6563" width="1149" height="838"/></clipPath><clipPath id="clip8"><rect x="4064" y="6563" width="1149" height="838"/></clipPath><clipPath id="clip9"><rect x="3944" y="6513" width="1316" height="991"/></clipPath><clipPath id="clip10"><rect x="3944" y="6513" width="1316" height="991"/></clipPath><clipPath id="clip11"><rect x="3944" y="6513" width="1316" height="991"/></clipPath><clipPath id="clip12"><rect x="3944" y="6513" width="1316" height="991"/></clipPath><clipPath id="clip13"><rect x="3944" y="6513" width="1316" height="991"/></clipPath><clipPath id="clip14"><rect x="3944" y="6513" width="1316" height="991"/></clipPath><clipPath id="clip15"><rect x="3944" y="6513" width="1316" height="991"/></clipPath><clipPath id="clip16"><rect x="3944" y="6513" width="1316" height="991"/></clipPath><clipPath id="clip17"><rect x="3944" y="6513" width="1316" height="991"/></clipPath><clipPath id="clip18"><rect x="3944" y="6513" width="1316" height="991"/></clipPath><clipPath id="clip19"><rect x="3944" y="6513" width="1316" height="991"/></clipPath><clipPath id="clip20"><rect x="3944" y="6513" width="1316" height="991"/></clipPath><clipPath id="clip21"><rect x="3944" y="6513" width="1316" height="991"/></clipPath><clipPath id="clip22"><rect x="3944" y="6513" width="1316" height="991"/></clipPath><clipPath id="clip23"><rect x="3944" y="6513" width="1316" height="991"/></clipPath><clipPath id="clip24"><rect x="3944" y="6513" width="1316" height="991"/></clipPath></defs><g clip-path="url(#clip0)" transform="translate(-3943 -6512)"><rect x="3944" y="6513" width="1317" height="991" fill="#FFFFFF"/><g clip-path="url(#clip1)"><path d="M4275 6848 4288.14 6848 4301.14 6848 4315.14 6848 4328.14 6848 4341.14 6848 4354.14 6848 4367.14 6848 4380.14 6848 4393.14 6848 4407.14 6848 4420.15 6848 4433.15 6848 4446.15 6848 4459.15 6848 4472.15 6848 4486.15 6848 4499.15 6848 4512.15 6848 4525.15 6848 4539.15 6848 4551.15 6848 4565.15 6848 4578.15 6848 4591.15 6848 4604.15 6848 4617.15 6848 4631.15 6848 4644.15 6848 4657.15 6848 4670.15 6848 4683.15 6848 4696.15 6848 4710.15 6848 4723.16 6848 4736.16 6848 4749.16 6848 4762.16 6848 4775.16 6848 4789.16 6848 4802.16 6848 4815.16 6848 4828.16 6848 4841.16 6848 4854.16 6848 4867.16 6848 4881.16 6848 4894.16 6848 4907.16 6848 4920.16 6848 4933.16 6848 4947.16 6848 4960.16 6848 4973.16 6848 4986.16 6848 4999.16 6848 5012.16 6848 5025.17 6848 5039.17 6848 5052.17 6848 5065.17 6848 5078.17 6848 5091.17 6848 5104.17 6848 5118.17 6848 5131.17 6848 5144.17 6848 5157.17 6848 5171.17 6848 5184.17 6848 5197.17 6848 5210 6848 5210 7398 5197.17 7398 5184.17 7398 5171.17 7398 5157.17 7398 5144.17 7398 5131.17 7398 5118.17 7398 5104.17 7398 5091.17 7398 5078.17 7398 5065.17 7398 5052.17 7398 5039.17 7398 5025.17 7398 5012.16 7398 4999.16 7398 4986.16 7398 4973.16 7398 4960.16 7398 4947.16 7398 4933.16 7398 4920.16 7398 4907.16 7398 4894.16 7398 4881.16 7398 4867.16 7398 4854.16 7398 4841.16 7398 4828.16 7398 4815.16 7398 4802.16 7398 4789.16 7398 4775.16 7398 4762.16 7398 4749.16 7398 4736.16 7398 4723.16 7398 4710.15 7398 4696.15 7398 4683.15 7398 4670.15 7398 4657.15 7398 4644.15 7398 4631.15 7398 4617.15 7398 4604.15 7398 4591.15 7398 4578.15 7398 4565.15 7398 4551.15 7398 4539.15 7398 4525.15 7398 4512.15 7398 4499.15 7398 4486.15 7398 4472.15 7398 4459.15 7398 4446.15 7398 4433.15 7398 4420.15 7398 4407.14 7398 4393.14 7398 4380.14 7398 4367.14 7398 4354.14 7398 4341.14 7398 4328.14 7398 4315.14 7398 4301.14 7398 4288.14 7398 4275 7398Z" fill="#D9D9D9"/></g><g clip-path="url(#clip2)"><path d="M4275 7168 4288.14 7168 4301.14 7168 4315.14 7168 4328.14 7168 4341.14 7168 4354.14 7168 4367.14 7168 4380.14 7168 4393.14 7168 4407.14 7168 4420.15 7168 4433.15 7168 4446.15 7168 4459.15 7168 4472.15 7168 4486.15 7168 4499.15 7168 4512.15 7168 4525.15 7168 4539.15 7168 4551.15 7168 4565.15 7168 4578.15 7168 4591.15 7168 4604.15 7168 4617.15 7168 4631.15 7168 4644.15 7168 4657.15 7168 4670.15 7168 4683.15 7168 4696.15 7168 4710.15 7168 4723.16 7168 4736.16 7168 4749.16 7168 4762.16 7168 4775.16 7168 4789.16 7168 4802.16 7168 4815.16 7168 4828.16 7168 4841.16 7168 4854.16 7168 4867.16 7168 4881.16 7168 4894.16 7168 4907.16 7168 4920.16 7168 4933.16 7168 4947.16 7168 4960.16 7168 4973.16 7168 4986.16 7168 4999.16 7168 5012.16 7168 5025.17 7168 5039.17 7168 5052.17 7168 5065.17 7168 5078.17 7168 5091.17 7168 5104.17 7168 5118.17 7168 5131.17 7168 5144.17 7168 5157.17 7168 5171.17 7168 5184.17 7168 5197.17 7168 5210 7168 5210 7398 5197.17 7398 5184.17 7398 5171.17 7398 5157.17 7398 5144.17 7398 5131.17 7398 5118.17 7398 5104.17 7398 5091.17 7398 5078.17 7398 5065.17 7398 5052.17 7398 5039.17 7398 5025.17 7398 5012.16 7398 4999.16 7398 4986.16 7398 4973.16 7398 4960.16 7398 4947.16 7398 4933.16 7398 4920.16 7398 4907.16 7398 4894.16 7398 4881.16 7398 4867.16 7398 4854.16 7398 4841.16 7398 4828.16 7398 4815.16 7398 4802.16 7398 4789.16 7398 4775.16 7398 4762.16 7398 4749.16 7398 4736.16 7398 4723.16 7398 4710.15 7398 4696.15 7398 4683.15 7398 4670.15 7398 4657.15 7398 4644.15 7398 4631.15 7398 4617.15 7398 4604.15 7398 4591.15 7398 4578.15 7398 4565.15 7398 4551.15 7398 4539.15 7398 4525.15 7398 4512.15 7398 4499.15 7398 4486.15 7398 4472.15 7398 4459.15 7398 4446.15 7398 4433.15 7398 4420.15 7398 4407.14 7398 4393.14 7398 4380.14 7398 4367.14 7398 4354.14 7398 4341.14 7398 4328.14 7398 4315.14 7398 4301.14 7398 4288.14 7398 4275 7398Z" fill="#FFFFFF"/></g><g clip-path="url(#clip3)"><path d="M0 0 0.000360892 835" stroke="#D9D9D9" stroke-width="3.4375" stroke-linejoin="round" stroke-miterlimit="10" fill="none" fill-rule="evenodd" transform="matrix(1 0 0 -1 4064.5 7398.5)"/></g><g clip-path="url(#clip4)"><path d="M4051.5 7398.5 4064.5 7398.5M4051.5 7258.74 4064.5 7258.74M4051.5 7119.73 4064.5 7119.73M4051.5 6980.73 4064.5 6980.73M4051.5 6841.72 4064.5 6841.72M4051.5 6702.72 4064.5 6702.72M4051.5 6563.5 4064.5 6563.5" stroke="#D9D9D9" stroke-width="3.4375" stroke-linejoin="round" stroke-miterlimit="10" fill="none"/></g><g clip-path="url(#clip5)"><path d="M4064.5 7398.5 5210.5 7398.5" stroke="#D9D9D9" stroke-width="3.4375" stroke-linejoin="round" stroke-miterlimit="10" fill="none" fill-rule="evenodd"/></g><g clip-path="url(#clip6)"><path d="M4064.5 7398.5 4064.5 7411.5M4327.64 7398.5 4327.64 7411.5M4591.65 7398.5 4591.65 7411.5M4854.66 7398.5 4854.66 7411.5M5117.5 7398.5 5117.5 7411.5" stroke="#D9D9D9" stroke-width="3.4375" stroke-linejoin="round" stroke-miterlimit="10" fill="none"/></g><g clip-path="url(#clip7)"><path d="M4275 6852.23 4288.14 6802.22 4301.14 6828.22 4315.14 6842.22 4328.14 6758.22 4341.14 6783.22 4354.14 6863.23 4367.14 6866.23 4380.14 6897.23 4393.14 6885.23 4407.14 6808.22 4420.15 6792.22 4433.15 6727.22 4446.15 6736.22 4459.15 6697.22 4472.15 6672 4486.15 6711.22 4499.15 6711.22 4512.15 6708.22 4525.15 6863.23 4539.15 7068.23 4551.15 7088.23 4565.15 6947.23 4578.15 6987.23 4591.15 6971.23 4604.15 7030.23 4617.15 7039.23 4631.15 7000.23 4644.15 7020.23 4657.15 6978.23 4670.15 6977.23 4683.15 7009.23 4696.15 7021.23 4710.15 6984.23 4723.16 7014.23 4736.16 6972.23 4749.16 6964.23 4762.16 7037.23 4775.16 7036.23 4789.16 6968.23 4802.16 6941.23 4815.16 6934.23 4828.16 6904.23 4841.16 6966.23 4854.16 7010.23 4867.16 7062.23 4881.16 7002.23 4894.16 7042.23 4907.16 7068.23 4920.16 7094.23 4933.16 7166.24 4947.16 7192.24 4960.16 7239 4973.16 7225.24 4986.16 7188.24 4999.16 7159.23 5012.16 7153.23 5025.17 7118.23 5039.17 7184.24 5052.17 7187.24 5065.17 7207.24 5078.17 7188.24 5091.17 7210.24 5104.17 7239.24 5118.17 7171.24 5131.17 7230.24 5144.17 7232.24 5157.17 7195.24 5171.17 7142.23 5184.17 7135.23 5197.17 7132.23 5210 7157.23" stroke="#EDB40D" stroke-width="10.3125" stroke-linecap="round" stroke-linejoin="round" stroke-miterlimit="10" fill="none"/></g><g clip-path="url(#clip8)"><path d="M4275.5 6999.5 4288.64 6999.5 4301.64 6999.5 4314.64 6999.5 4327.64 6999.5 4340.64 6999.5 4353.64 6999.5 4367.64 6999.5 4380.64 6999.5 4393.64 6999.5 4406.64 6999.5 4419.65 6999.5 4433.65 6999.5 4446.65 6999.5 4459.65 6999.5 4472.65 6999.5 4485.65 6999.5 4498.65 6999.5 4511.65 6999.5 4525.65 6999.5 4538.65 6999.5 4551.65 6999.5 4564.65 6999.5 4577.65 6999.5 4591.65 6999.5 4604.65 6999.5 4617.65 6999.5 4630.65 6999.5 4643.65 6999.5 4656.65 6999.5 4669.65 6999.5 4683.65 6999.5 4696.65 6999.5 4709.65 6999.5 4722.66 6999.5 4735.66 6999.5 4749.66 6999.5 4762.66 6999.5 4775.66 6999.5 4788.66 6999.5 4801.66 6999.5 4814.66 6999.5 4827.66 6999.5 4841.66 6999.5 4854.66 6999.5 4867.66 6999.5 4880.66 6999.5 4893.66 6999.5 4907.66 6999.5 4920.66 6999.5 4933.66 6999.5 4946.66 6999.5 4959.66 6999.5 4972.66 6999.5 4985.66 6999.5 4999.66 6999.5 5012.66 6999.5 5025.67 6999.5 5038.67 6999.5 5051.67 6999.5 5065.67 6999.5 5078.67 6999.5 5091.67 6999.5 5104.67 6999.5 5117.67 6999.5 5130.67 6999.5 5144.67 6999.5 5157.67 6999.5 5170.67 6999.5 5183.67 6999.5 5196.67 6999.5 5210.5 6999.5" stroke="#EDB40D" stroke-width="4.58333" stroke-linecap="round" stroke-linejoin="round" stroke-miterlimit="10" stroke-dasharray="13.75 18.3333" fill="none"/></g><g clip-path="url(#clip9)"><text fill="#595959" font-family="Calibri,Calibri_MSFontService,sans-serif" font-weight="400" font-size="41" transform="matrix(1 0 0 1 4005.27 7410)">1</text></g><g clip-path="url(#clip10)"><text fill="#595959" font-family="Calibri,Calibri_MSFontService,sans-serif" font-weight="400" font-size="41" transform="matrix(1 0 0 1 3973.97 7271)">1.2</text></g><g clip-path="url(#clip11)"><text fill="#595959" font-family="Calibri,Calibri_MSFontService,sans-serif" font-weight="400" font-size="41" transform="matrix(1 0 0 1 3973.97 7131)">1.4</text></g><g clip-path="url(#clip12)"><text fill="#595959" font-family="Calibri,Calibri_MSFontService,sans-serif" font-weight="400" font-size="41" transform="matrix(1 0 0 1 3973.97 6992)">1.6</text></g><g clip-path="url(#clip13)"><text fill="#595959" font-family="Calibri,Calibri_MSFontService,sans-serif" font-weight="400" font-size="41" transform="matrix(1 0 0 1 3973.97 6853)">1.8</text></g><g clip-path="url(#clip14)"><text fill="#595959" font-family="Calibri,Calibri_MSFontService,sans-serif" font-weight="400" font-size="41" transform="matrix(1 0 0 1 4005.27 6714)">2</text></g><g clip-path="url(#clip15)"><text fill="#595959" font-family="Calibri,Calibri_MSFontService,sans-serif" font-weight="400" font-size="41" transform="matrix(1 0 0 1 3973.97 6575)">2.2</text></g><g clip-path="url(#clip16)"><text fill="#595959" font-family="Calibri,Calibri_MSFontService,sans-serif" font-weight="400" font-size="41" transform="matrix(1 0 0 1 4022.71 7463)">2000</text></g><g clip-path="url(#clip17)"><text fill="#595959" font-family="Calibri,Calibri_MSFontService,sans-serif" font-weight="400" font-size="41" transform="matrix(1 0 0 1 4286.17 7463)">2005</text></g><g clip-path="url(#clip18)"><text fill="#595959" font-family="Calibri,Calibri_MSFontService,sans-serif" font-weight="400" font-size="41" transform="matrix(1 0 0 1 4549.49 7463)">2010</text></g><g clip-path="url(#clip19)"><text fill="#595959" font-family="Calibri,Calibri_MSFontService,sans-serif" font-weight="400" font-size="41" transform="matrix(1 0 0 1 4812.81 7463)">2015</text></g><g clip-path="url(#clip20)"><text fill="#595959" font-family="Calibri,Calibri_MSFontService,sans-serif" font-weight="400" font-size="41" transform="matrix(1 0 0 1 5076.13 7463)">2020</text></g><g clip-path="url(#clip21)"><rect x="4783" y="6561" width="115" height="22.9995" fill="#D9D9D9"/></g><g clip-path="url(#clip22)"><text fill="#595959" font-family="Calibri,Calibri_MSFontService,sans-serif" font-weight="400" font-size="41" transform="matrix(1 0 0 1 4911.16 6584)">Percentile [20-80]</text></g><g clip-path="url(#clip23)"><path d="M4782.5 6635.5 4898.5 6635.5" stroke="#EDB40D" stroke-width="4.58333" stroke-linecap="round" stroke-linejoin="round" stroke-miterlimit="10" stroke-dasharray="13.75 18.3333" fill="none" fill-rule="evenodd"/></g><g clip-path="url(#clip24)"><text fill="#595959" font-family="Calibri,Calibri_MSFontService,sans-serif" font-weight="400" font-size="41" transform="matrix(1 0 0 1 4911.16 6647)">Mean</text></g><rect x="3944.5" y="6513.5" width="1317" height="991" stroke="#D9D9D9" stroke-width="3.4375" stroke-linejoin="round" stroke-miterlimit="10" fill="none"/></g></svg>