<svg width="1320" height="994" xmlns="http://www.w3.org/2000/svg" xmlns:xlink="http://www.w3.org/1999/xlink" overflow="hidden"><defs><clipPath id="clip0"><rect x="5906" y="6512" width="1320" height="994"/></clipPath><clipPath id="clip1"><rect x="6027" y="6563" width="1149" height="838"/></clipPath><clipPath id="clip2"><rect x="6027" y="6563" width="1149" height="838"/></clipPath><clipPath id="clip3"><rect x="5906" y="6513" width="1317" height="991"/></clipPath><clipPath id="clip4"><rect x="5906" y="6513" width="1317" height="991"/></clipPath><clipPath id="clip5"><rect x="5906" y="6513" width="1317" height="991"/></clipPath><clipPath id="clip6"><rect x="5906" y="6513" width="1317" height="991"/></clipPath><clipPath id="clip7"><rect x="6027" y="6563" width="1149" height="838"/></clipPath><clipPath id="clip8"><rect x="6027" y="6563" width="1149" height="838"/></clipPath><clipPath id="clip9"><rect x="5906" y="6513" width="1317" height="991"/></clipPath><clipPath id="clip10"><rect x="5906" y="6513" width="1317" height="991"/></clipPath><clipPath id="clip11"><rect x="5906" y="6513" width="1317" height="991"/></clipPath><clipPath id="clip12"><rect x="5906" y="6513" width="1317" height="991"/></clipPath><clipPath id="clip13"><rect x="5906" y="6513" width="1317" height="991"/></clipPath><clipPath id="clip14"><rect x="5906" y="6513" width="1317" height="991"/></clipPath><clipPath id="clip15"><rect x="5906" y="6513" width="1317" height="991"/></clipPath><clipPath id="clip16"><rect x="5906" y="6513" width="1317" height="991"/></clipPath><clipPath id="clip17"><rect x="5906" y="6513" width="1317" height="991"/></clipPath><clipPath id="clip18"><rect x="5906" y="6513" width="1317" height="991"/></clipPath><clipPath id="clip19"><rect x="5906" y="6513" width="1317" height="991"/></clipPath><clipPath id="clip20"><rect x="5906" y="6513" width="1317" height="991"/></clipPath><clipPath id="clip21"><rect x="5906" y="6513" width="1317" height="991"/></clipPath><clipPath id="clip22"><rect x="5906" y="6513" width="1317" height="991"/></clipPath><clipPath id="clip23"><rect x="5906" y="6513" width="1317" height="991"/></clipPath><clipPath id="clip24"><rect x="5906" y="6513" width="1317" height="991"/></clipPath><clipPath id="clip25"><rect x="5906" y="6513" width="1317" height="991"/></clipPath><clipPath id="clip26"><rect x="5906" y="6513" width="1317" height="991"/></clipPath></defs><g clip-path="url(#clip0)" transform="translate(-5906 -6512)"><rect x="5907" y="6513" width="1317" height="991" fill="#FFFFFF"/><g clip-path="url(#clip1)"><path d="M6370 6928 6383.21 6928 6396.21 6928 6409.21 6928 6422.21 6928 6435.21 6928 6449.21 6928 6462.21 6928 6475.21 6928 6488.21 6928 6501.21 6928 6514.21 6928 6528.21 6928 6541.21 6928 6554.21 6928 6567.22 6928 6580.22 6928 6593.22 6928 6607.22 6928 6620.22 6928 6633.22 6928 6646.22 6928 6659.22 6928 6673.22 6928 6686.22 6928 6699.22 6928 6712.22 6928 6725.22 6928 6738.22 6928 6752.22 6928 6765.22 6928 6778.22 6928 6791.22 6928 6804.22 6928 6818.22 6928 6830.22 6928 6844.22 6928 6857.23 6928 6870.23 6928 6883.23 6928 6896.23 6928 6910.23 6928 6923.23 6928 6936.23 6928 6949.23 6928 6962.23 6928 6976.23 6928 6989.23 6928 7002.23 6928 7015.23 6928 7028.23 6928 7041.23 6928 7054.23 6928 7068.23 6928 7081.23 6928 7094.23 6928 7107.23 6928 7121.23 6928 7134.23 6928 7147.23 6928 7160.23 6928 7173 6928 7173 7398 7160.23 7398 7147.23 7398 7134.23 7398 7121.23 7398 7107.23 7398 7094.23 7398 7081.23 7398 7068.23 7398 7054.23 7398 7041.23 7398 7028.23 7398 7015.23 7398 7002.23 7398 6989.23 7398 6976.23 7398 6962.23 7398 6949.23 7398 6936.23 7398 6923.23 7398 6910.23 7398 6896.23 7398 6883.23 7398 6870.23 7398 6857.23 7398 6844.22 7398 6830.22 7398 6818.22 7398 6804.22 7398 6791.22 7398 6778.22 7398 6765.22 7398 6752.22 7398 6738.22 7398 6725.22 7398 6712.22 7398 6699.22 7398 6686.22 7398 6673.22 7398 6659.22 7398 6646.22 7398 6633.22 7398 6620.22 7398 6607.22 7398 6593.22 7398 6580.22 7398 6567.22 7398 6554.21 7398 6541.21 7398 6528.21 7398 6514.21 7398 6501.21 7398 6488.21 7398 6475.21 7398 6462.21 7398 6449.21 7398 6435.21 7398 6422.21 7398 6409.21 7398 6396.21 7398 6383.21 7398 6370 7398Z" fill="#D9D9D9"/></g><g clip-path="url(#clip2)"><path d="M6370 7166 6383.21 7166 6396.21 7166 6409.21 7166 6422.21 7166 6435.21 7166 6449.21 7166 6462.21 7166 6475.21 7166 6488.21 7166 6501.21 7166 6514.21 7166 6528.21 7166 6541.21 7166 6554.21 7166 6567.22 7166 6580.22 7166 6593.22 7166 6607.22 7166 6620.22 7166 6633.22 7166 6646.22 7166 6659.22 7166 6673.22 7166 6686.22 7166 6699.22 7166 6712.22 7166 6725.22 7166 6738.22 7166 6752.22 7166 6765.22 7166 6778.22 7166 6791.22 7166 6804.22 7166 6818.22 7166 6830.22 7166 6844.22 7166 6857.23 7166 6870.23 7166 6883.23 7166 6896.23 7166 6910.23 7166 6923.23 7166 6936.23 7166 6949.23 7166 6962.23 7166 6976.23 7166 6989.23 7166 7002.23 7166 7015.23 7166 7028.23 7166 7041.23 7166 7054.23 7166 7068.23 7166 7081.23 7166 7094.23 7166 7107.23 7166 7121.23 7166 7134.23 7166 7147.23 7166 7160.23 7166 7173 7166 7173 7398 7160.23 7398 7147.23 7398 7134.23 7398 7121.23 7398 7107.23 7398 7094.23 7398 7081.23 7398 7068.23 7398 7054.23 7398 7041.23 7398 7028.23 7398 7015.23 7398 7002.23 7398 6989.23 7398 6976.23 7398 6962.23 7398 6949.23 7398 6936.23 7398 6923.23 7398 6910.23 7398 6896.23 7398 6883.23 7398 6870.23 7398 6857.23 7398 6844.22 7398 6830.22 7398 6818.22 7398 6804.22 7398 6791.22 7398 6778.22 7398 6765.22 7398 6752.22 7398 6738.22 7398 6725.22 7398 6712.22 7398 6699.22 7398 6686.22 7398 6673.22 7398 6659.22 7398 6646.22 7398 6633.22 7398 6620.22 7398 6607.22 7398 6593.22 7398 6580.22 7398 6567.22 7398 6554.21 7398 6541.21 7398 6528.21 7398 6514.21 7398 6501.21 7398 6488.21 7398 6475.21 7398 6462.21 7398 6449.21 7398 6435.21 7398 6422.21 7398 6409.21 7398 6396.21 7398 6383.21 7398 6370 7398Z" fill="#FFFFFF"/></g><g clip-path="url(#clip3)"><path d="M0 0 0.000360892 835" stroke="#D9D9D9" stroke-width="3.4375" stroke-linejoin="round" stroke-miterlimit="10" fill="none" fill-rule="evenodd" transform="matrix(1 0 0 -1 6027.5 7398.5)"/></g><g clip-path="url(#clip4)"><path d="M6014.5 7398.5 6027.5 7398.5M6014.5 7293.74 6027.5 7293.74M6014.5 7189.74 6027.5 7189.74M6014.5 7084.73 6027.5 7084.73M6014.5 6980.73 6027.5 6980.73M6014.5 6876.73 6027.5 6876.73M6014.5 6772.72 6027.5 6772.72M6014.5 6667.72 6027.5 6667.72M6014.5 6563.5 6027.5 6563.5" stroke="#D9D9D9" stroke-width="3.4375" stroke-linejoin="round" stroke-miterlimit="10" fill="none"/></g><g clip-path="url(#clip5)"><path d="M6027.5 7398.5 7173.5 7398.5" stroke="#D9D9D9" stroke-width="3.4375" stroke-linejoin="round" stroke-miterlimit="10" fill="none" fill-rule="evenodd"/></g><g clip-path="url(#clip6)"><path d="M6027.5 7398.5 6027.5 7411.5M6290.71 7398.5 6290.71 7411.5M6553.71 7398.5 6553.71 7411.5M6817.72 7398.5 6817.72 7411.5M7081.5 7398.5 7081.5 7411.5" stroke="#D9D9D9" stroke-width="3.4375" stroke-linejoin="round" stroke-miterlimit="10" fill="none"/></g><g clip-path="url(#clip7)"><path d="M6370 7145.23 6383.21 7141.23 6396.21 7094.23 6409.21 7075.23 6422.21 7035.23 6435.21 6987.23 6449.21 7005.23 6462.21 6966.23 6475.21 6916.23 6488.21 7093.23 6501.21 7184.24 6514.21 7190.24 6528.21 7076.23 6541.21 7014.23 6554.21 6982.23 6567.22 6959.23 6580.22 7036.23 6593.22 6913.23 6607.22 6860.23 6620.22 6842.22 6633.22 6802 6646.22 6901.23 6659.22 6862.23 6673.22 6837.22 6686.22 6873.23 6699.22 6839.22 6712.22 6835.22 6725.22 6833.22 6738.22 6967.23 6752.22 6947.23 6765.22 6990.23 6778.22 6953.23 6791.22 6936.23 6804.22 7008.23 6818.22 7067.23 6830.22 7125.23 6844.22 7117.23 6857.23 7188.24 6870.23 7161.23 6883.23 7119.23 6896.23 7142.23 6910.23 7124.23 6923.23 7165.23 6936.23 7121.23 6949.23 7118.23 6962.23 7101.23 6976.23 7106.23 6989.23 7118.23 7002.23 7153.23 7015.23 7166.23 7028.23 7185.24 7041.23 7177.24 7054.23 7187.24 7068.23 7215.24 7081.23 7187.24 7094.23 7279 7107.23 7199.24 7121.23 7172.24 7134.23 7116.23 7147.23 7127.23 7160.23 7137.23 7173 7165.23" stroke="#EDB40D" stroke-width="10.3125" stroke-linecap="round" stroke-linejoin="round" stroke-miterlimit="10" fill="none"/></g><g clip-path="url(#clip8)"><path d="M6369.5 7053.5 6382.71 7053.5 6395.71 7053.5 6408.71 7053.5 6422.71 7053.5 6435.71 7053.5 6448.71 7053.5 6461.71 7053.5 6474.71 7053.5 6488.71 7053.5 6501.71 7053.5 6514.71 7053.5 6527.71 7053.5 6540.71 7053.5 6554.72 7053.5 6567.72 7053.5 6580.72 7053.5 6593.72 7053.5 6606.72 7053.5 6619.72 7053.5 6632.72 7053.5 6646.72 7053.5 6659.72 7053.5 6672.72 7053.5 6685.72 7053.5 6698.72 7053.5 6712.72 7053.5 6725.72 7053.5 6738.72 7053.5 6751.72 7053.5 6764.72 7053.5 6777.72 7053.5 6790.72 7053.5 6804.72 7053.5 6817.72 7053.5 6830.72 7053.5 6843.72 7053.5 6856.73 7053.5 6870.73 7053.5 6883.73 7053.5 6896.73 7053.5 6909.73 7053.5 6922.73 7053.5 6935.73 7053.5 6949.73 7053.5 6962.73 7053.5 6975.73 7053.5 6988.73 7053.5 7001.73 7053.5 7015.73 7053.5 7028.73 7053.5 7041.73 7053.5 7054.73 7053.5 7067.73 7053.5 7080.73 7053.5 7094.73 7053.5 7107.73 7053.5 7120.73 7053.5 7133.73 7053.5 7146.73 7053.5 7159.74 7053.5 7173.5 7053.5" stroke="#EDB40D" stroke-width="4.58333" stroke-linecap="round" stroke-linejoin="round" stroke-miterlimit="10" stroke-dasharray="13.75 18.3333" fill="none"/></g><g clip-path="url(#clip9)"><text fill="#595959" font-family="Calibri,Calibri_MSFontService,sans-serif" font-weight="400" font-size="41" transform="matrix(1 0 0 1 5936.64 7410)">0.5</text></g><g clip-path="url(#clip10)"><text fill="#595959" font-family="Calibri,Calibri_MSFontService,sans-serif" font-weight="400" font-size="41" transform="matrix(1 0 0 1 5936.64 7305)">0.6</text></g><g clip-path="url(#clip11)"><text fill="#595959" font-family="Calibri,Calibri_MSFontService,sans-serif" font-weight="400" font-size="41" transform="matrix(1 0 0 1 5936.64 7201)">0.7</text></g><g clip-path="url(#clip12)"><text fill="#595959" font-family="Calibri,Calibri_MSFontService,sans-serif" font-weight="400" font-size="41" transform="matrix(1 0 0 1 5936.64 7097)">0.8</text></g><g clip-path="url(#clip13)"><text fill="#595959" font-family="Calibri,Calibri_MSFontService,sans-serif" font-weight="400" font-size="41" transform="matrix(1 0 0 1 5936.64 6992)">0.9</text></g><g clip-path="url(#clip14)"><text fill="#595959" font-family="Calibri,Calibri_MSFontService,sans-serif" font-weight="400" font-size="41" transform="matrix(1 0 0 1 5967.94 6888)">1</text></g><g clip-path="url(#clip15)"><text fill="#595959" font-family="Calibri,Calibri_MSFontService,sans-serif" font-weight="400" font-size="41" transform="matrix(1 0 0 1 5936.64 6784)">1.1</text></g><g clip-path="url(#clip16)"><text fill="#595959" font-family="Calibri,Calibri_MSFontService,sans-serif" font-weight="400" font-size="41" transform="matrix(1 0 0 1 5936.64 6680)">1.2</text></g><g clip-path="url(#clip17)"><text fill="#595959" font-family="Calibri,Calibri_MSFontService,sans-serif" font-weight="400" font-size="41" transform="matrix(1 0 0 1 5936.64 6575)">1.3</text></g><g clip-path="url(#clip18)"><text fill="#595959" font-family="Calibri,Calibri_MSFontService,sans-serif" font-weight="400" font-size="41" transform="matrix(1 0 0 1 5985.38 7463)">2000</text></g><g clip-path="url(#clip19)"><text fill="#595959" font-family="Calibri,Calibri_MSFontService,sans-serif" font-weight="400" font-size="41" transform="matrix(1 0 0 1 6249 7463)">2005</text></g><g clip-path="url(#clip20)"><text fill="#595959" font-family="Calibri,Calibri_MSFontService,sans-serif" font-weight="400" font-size="41" transform="matrix(1 0 0 1 6512.47 7463)">2010</text></g><g clip-path="url(#clip21)"><text fill="#595959" font-family="Calibri,Calibri_MSFontService,sans-serif" font-weight="400" font-size="41" transform="matrix(1 0 0 1 6775.93 7463)">2015</text></g><g clip-path="url(#clip22)"><text fill="#595959" font-family="Calibri,Calibri_MSFontService,sans-serif" font-weight="400" font-size="41" transform="matrix(1 0 0 1 7039.4 7463)">2020</text></g><g clip-path="url(#clip23)"><rect x="6746" y="6561" width="116" height="22.9995" fill="#D9D9D9"/></g><g clip-path="url(#clip24)"><text fill="#595959" font-family="Calibri,Calibri_MSFontService,sans-serif" font-weight="400" font-size="41" transform="matrix(1 0 0 1 6874.35 6584)">Percentile [20-80]</text></g><g clip-path="url(#clip25)"><path d="M6746.5 6635.5 6861.5 6635.5" stroke="#EDB40D" stroke-width="4.58333" stroke-linecap="round" stroke-linejoin="round" stroke-miterlimit="10" stroke-dasharray="13.75 18.3333" fill="none" fill-rule="evenodd"/></g><g clip-path="url(#clip26)"><text fill="#595959" font-family="Calibri,Calibri_MSFontService,sans-serif" font-weight="400" font-size="41" transform="matrix(1 0 0 1 6874.35 6647)">Mean</text></g><rect x="5907.5" y="6513.5" width="1317" height="991" stroke="#D9D9D9" stroke-width="3.4375" stroke-linejoin="round" stroke-miterlimit="10" fill="none"/></g></svg>