<svg width="1337" height="994" xmlns="http://www.w3.org/2000/svg" xmlns:xlink="http://www.w3.org/1999/xlink" overflow="hidden"><defs><clipPath id="clip0"><rect x="7876" y="6512" width="1337" height="994"/></clipPath><clipPath id="clip1"><rect x="7997" y="6619" width="1166" height="838"/></clipPath><clipPath id="clip2"><rect x="7997" y="6619" width="1166" height="838"/></clipPath><clipPath id="clip3"><rect x="7877" y="6513" width="1333" height="991"/></clipPath><clipPath id="clip4"><rect x="7877" y="6513" width="1333" height="991"/></clipPath><clipPath id="clip5"><rect x="7877" y="6513" width="1333" height="991"/></clipPath><clipPath id="clip6"><rect x="7877" y="6513" width="1333" height="991"/></clipPath><clipPath id="clip7"><rect x="7997" y="6619" width="1166" height="838"/></clipPath><clipPath id="clip8"><rect x="7997" y="6619" width="1166" height="838"/></clipPath><clipPath id="clip9"><rect x="7877" y="6513" width="1333" height="991"/></clipPath><clipPath id="clip10"><rect x="7877" y="6513" width="1333" height="991"/></clipPath><clipPath id="clip11"><rect x="7877" y="6513" width="1333" height="991"/></clipPath><clipPath id="clip12"><rect x="7877" y="6513" width="1333" height="991"/></clipPath><clipPath id="clip13"><rect x="7877" y="6513" width="1333" height="991"/></clipPath><clipPath id="clip14"><rect x="7877" y="6513" width="1333" height="991"/></clipPath><clipPath id="clip15"><rect x="7877" y="6513" width="1333" height="991"/></clipPath><clipPath id="clip16"><rect x="7877" y="6513" width="1333" height="991"/></clipPath><clipPath id="clip17"><rect x="7877" y="6513" width="1333" height="991"/></clipPath><clipPath id="clip18"><rect x="7877" y="6513" width="1333" height="991"/></clipPath><clipPath id="clip19"><rect x="7877" y="6513" width="1333" height="991"/></clipPath><clipPath id="clip20"><rect x="7877" y="6513" width="1333" height="991"/></clipPath><clipPath id="clip21"><rect x="7877" y="6513" width="1333" height="991"/></clipPath><clipPath id="clip22"><rect x="7877" y="6513" width="1333" height="991"/></clipPath><clipPath id="clip23"><rect x="7877" y="6513" width="1333" height="991"/></clipPath><clipPath id="clip24"><rect x="7877" y="6513" width="1333" height="991"/></clipPath></defs><g clip-path="url(#clip0)" transform="translate(-7876 -6512)"><rect x="7877" y="6513" width="1334" height="991" fill="#FFFFFF"/><g clip-path="url(#clip1)"><path d="M8198 7190 8211.27 7190 8224.27 7190 8238.27 7190 8251.27 7190 8265.27 7190 8278.27 7190 8291.27 7190 8305.27 7190 8318.27 7190 8331.27 7190 8345.27 7190 8358.27 7190 8371.27 7190 8385.28 7190 8398.28 7190 8411.28 7190 8425.28 7190 8438.28 7190 8452.28 7190 8465.28 7190 8479.28 7190 8492.28 7190 8505.28 7190 8518.28 7190 8532.28 7190 8545.28 7190 8558.28 7190 8572.28 7190 8585.28 7190 8599.28 7190 8612.28 7190 8625.28 7190 8639.28 7190 8652.28 7190 8665.28 7190 8679.28 7190 8692.29 7190 8706.29 7190 8719.29 7190 8732.29 7190 8746.29 7190 8759.29 7190 8772.29 7190 8786.29 7190 8799.29 7190 8812.29 7190 8826.29 7190 8839.29 7190 8853.29 7190 8866.29 7190 8879.29 7190 8893.29 7190 8906.29 7190 8919.29 7190 8933.29 7190 8946.29 7190 8960.29 7190 8973.29 7190 8986.29 7190 9000.29 7190 9013.3 7190 9026.3 7190 9040.3 7190 9053.3 7190 9067.3 7190 9080.3 7190 9093.3 7190 9107.3 7190 9120.3 7190 9133.3 7190 9147.3 7190 9160 7190 9160 6620 9147.3 6620 9133.3 6620 9120.3 6620 9107.3 6620 9093.3 6620 9080.3 6620 9067.3 6620 9053.3 6620 9040.3 6620 9026.3 6620 9013.3 6620 9000.29 6620 8986.29 6620 8973.29 6620 8960.29 6620 8946.29 6620 8933.29 6620 8919.29 6620 8906.29 6620 8893.29 6620 8879.29 6620 8866.29 6620 8853.29 6620 8839.29 6620 8826.29 6620 8812.29 6620 8799.29 6620 8786.29 6620 8772.29 6620 8759.29 6620 8746.29 6620 8732.29 6620 8719.29 6620 8706.29 6620 8692.29 6620 8679.28 6620 8665.28 6620 8652.28 6620 8639.28 6620 8625.28 6620 8612.28 6620 8599.28 6620 8585.28 6620 8572.28 6620 8558.28 6620 8545.28 6620 8532.28 6620 8518.28 6620 8505.28 6620 8492.28 6620 8479.28 6620 8465.28 6620 8452.28 6620 8438.28 6620 8425.28 6620 8411.28 6620 8398.28 6620 8385.28 6620 8371.27 6620 8358.27 6620 8345.27 6620 8331.27 6620 8318.27 6620 8305.27 6620 8291.27 6620 8278.27 6620 8265.27 6620 8251.27 6620 8238.27 6620 8224.27 6620 8211.27 6620 8198 6620Z" fill="#D9D9D9"/></g><g clip-path="url(#clip2)"><path d="M8198 6803 8211.27 6803 8224.27 6803 8238.27 6803 8251.27 6803 8265.27 6803 8278.27 6803 8291.27 6803 8305.27 6803 8318.27 6803 8331.27 6803 8345.27 6803 8358.27 6803 8371.27 6803 8385.28 6803 8398.28 6803 8411.28 6803 8425.28 6803 8438.28 6803 8452.28 6803 8465.28 6803 8479.28 6803 8492.28 6803 8505.28 6803 8518.28 6803 8532.28 6803 8545.28 6803 8558.28 6803 8572.28 6803 8585.28 6803 8599.28 6803 8612.28 6803 8625.28 6803 8639.28 6803 8652.28 6803 8665.28 6803 8679.28 6803 8692.29 6803 8706.29 6803 8719.29 6803 8732.29 6803 8746.29 6803 8759.29 6803 8772.29 6803 8786.29 6803 8799.29 6803 8812.29 6803 8826.29 6803 8839.29 6803 8853.29 6803 8866.29 6803 8879.29 6803 8893.29 6803 8906.29 6803 8919.29 6803 8933.29 6803 8946.29 6803 8960.29 6803 8973.29 6803 8986.29 6803 9000.29 6803 9013.3 6803 9026.3 6803 9040.3 6803 9053.3 6803 9067.3 6803 9080.3 6803 9093.3 6803 9107.3 6803 9120.3 6803 9133.3 6803 9147.3 6803 9160 6803 9160 6620 9147.3 6620 9133.3 6620 9120.3 6620 9107.3 6620 9093.3 6620 9080.3 6620 9067.3 6620 9053.3 6620 9040.3 6620 9026.3 6620 9013.3 6620 9000.29 6620 8986.29 6620 8973.29 6620 8960.29 6620 8946.29 6620 8933.29 6620 8919.29 6620 8906.29 6620 8893.29 6620 8879.29 6620 8866.29 6620 8853.29 6620 8839.29 6620 8826.29 6620 8812.29 6620 8799.29 6620 8786.29 6620 8772.29 6620 8759.29 6620 8746.29 6620 8732.29 6620 8719.29 6620 8706.29 6620 8692.29 6620 8679.28 6620 8665.28 6620 8652.28 6620 8639.28 6620 8625.28 6620 8612.28 6620 8599.28 6620 8585.28 6620 8572.28 6620 8558.28 6620 8545.28 6620 8532.28 6620 8518.28 6620 8505.28 6620 8492.28 6620 8479.28 6620 8465.28 6620 8452.28 6620 8438.28 6620 8425.28 6620 8411.28 6620 8398.28 6620 8385.28 6620 8371.27 6620 8358.27 6620 8345.27 6620 8331.27 6620 8318.27 6620 8305.27 6620 8291.27 6620 8278.27 6620 8265.27 6620 8251.27 6620 8238.27 6620 8224.27 6620 8211.27 6620 8198 6620Z" fill="#FFFFFF"/></g><g clip-path="url(#clip3)"><path d="M7997.5 6619.5 7997.5 7453.5" stroke="#D9D9D9" stroke-width="3.4375" stroke-linejoin="round" stroke-miterlimit="10" fill="none" fill-rule="evenodd"/></g><g clip-path="url(#clip4)"><path d="M7984.5 6619.5 7997.5 6619.5M7984.5 6758.72 7997.5 6758.72M7984.5 6897.73 7997.5 6897.73M7984.5 7036.73 7997.5 7036.73M7984.5 7175.74 7997.5 7175.74M7984.5 7314.74 7997.5 7314.74M7984.5 7453.5 7997.5 7453.5" stroke="#D9D9D9" stroke-width="3.4375" stroke-linejoin="round" stroke-miterlimit="10" fill="none"/></g><g clip-path="url(#clip5)"><path d="M7997.5 6619.5 9160.5 6619.5" stroke="#D9D9D9" stroke-width="3.4375" stroke-linejoin="round" stroke-miterlimit="10" fill="none" fill-rule="evenodd"/></g><g clip-path="url(#clip6)"><path d="M7997.5 6606.5 7997.5 6619.5M8264.77 6606.5 8264.77 6619.5M8531.78 6606.5 8531.78 6619.5M8799.79 6606.5 8799.79 6619.5M9066.5 6606.5 9066.5 6619.5" stroke="#D9D9D9" stroke-width="3.4375" stroke-linejoin="round" stroke-miterlimit="10" fill="none"/></g><g clip-path="url(#clip7)"><path d="M8198 7238.24 8211.27 7170.24 8224.27 7186.24 8238.27 7220.24 8251.27 7121.23 8265.27 7038.23 8278.27 7055.23 8291.27 7094.23 8305.27 6985.23 8318.27 6983.23 8331.27 6991.23 8345.27 6918.23 8358.27 6921.23 8371.27 6987.23 8385.28 6973.23 8398.28 6848.22 8411.28 6747.22 8425.28 6749.22 8438.28 6779.22 8452.28 6775.22 8465.28 6846.22 8479.28 7067.23 8492.28 7117.23 8505.28 6966.23 8518.28 6876.23 8532.28 6830.22 8545.28 6770.22 8558.28 6840.22 8572.28 6801.22 8585.28 6758.22 8599.28 6716.22 8612.28 6708 8625.28 6810.22 8639.28 6787.22 8652.28 6753.22 8665.28 6805.22 8679.28 6737.22 8692.29 6747.22 8706.29 6782.22 8719.29 6830.22 8732.29 6804.22 8746.29 6845.22 8759.29 6905.23 8772.29 6852.23 8786.29 6926.23 8799.29 6983.23 8812.29 7132.23 8826.29 7103.23 8839.29 7220.24 8853.29 7301.24 8866.29 7174.24 8879.29 7170.24 8893.29 7197.24 8906.29 7242.24 8919.29 7222.24 8933.29 7175.24 8946.29 7097.23 8960.29 7117.23 8973.29 7160.23 8986.29 7211.24 9000.29 7153.23 9013.3 7230.24 9026.3 7224.24 9040.3 7188.24 9053.3 7209.24 9067.3 7176.24 9080.3 7326 9093.3 7255.24 9107.3 7218.24 9120.3 7085.23 9133.3 7115.23 9147.3 7091.23 9160 7132.23" stroke="#EDB40D" stroke-width="10.3125" stroke-linecap="round" stroke-linejoin="round" stroke-miterlimit="10" fill="none"/></g><g clip-path="url(#clip8)"><path d="M8197.5 7007.5 8211.77 7007.5 8224.77 7007.5 8237.77 7007.5 8251.77 7007.5 8264.77 7007.5 8277.77 7007.5 8291.77 7007.5 8304.77 7007.5 8318.77 7007.5 8331.77 7007.5 8344.77 7007.5 8358.77 7007.5 8371.78 7007.5 8384.78 7007.5 8397.78 7007.5 8411.78 7007.5 8424.78 7007.5 8438.78 7007.5 8451.78 7007.5 8465.78 7007.5 8478.78 7007.5 8491.78 7007.5 8505.78 7007.5 8518.78 7007.5 8531.78 7007.5 8545.78 7007.5 8558.78 7007.5 8571.78 7007.5 8585.78 7007.5 8598.78 7007.5 8611.78 7007.5 8625.78 7007.5 8638.78 7007.5 8652.78 7007.5 8665.78 7007.5 8678.79 7007.5 8692.79 7007.5 8705.79 7007.5 8718.79 7007.5 8732.79 7007.5 8745.79 7007.5 8759.79 7007.5 8772.79 7007.5 8785.79 7007.5 8799.79 7007.5 8812.79 7007.5 8825.79 7007.5 8839.79 7007.5 8852.79 7007.5 8866.79 7007.5 8879.79 7007.5 8892.79 7007.5 8906.79 7007.5 8919.79 7007.5 8932.79 7007.5 8946.79 7007.5 8959.79 7007.5 8972.79 7007.5 8986.79 7007.5 8999.8 7007.5 9013.8 7007.5 9026.8 7007.5 9039.8 7007.5 9053.8 7007.5 9066.8 7007.5 9079.8 7007.5 9093.8 7007.5 9106.8 7007.5 9120.8 7007.5 9133.8 7007.5 9146.8 7007.5 9160.5 7007.5" stroke="#EDB40D" stroke-width="4.58333" stroke-linecap="round" stroke-linejoin="round" stroke-miterlimit="10" stroke-dasharray="13.75 18.3333" fill="none"/></g><g clip-path="url(#clip9)"><text fill="#595959" font-family="Calibri,Calibri_MSFontService,sans-serif" font-weight="400" font-size="41" transform="matrix(1 0 0 1 7906.85 6631)">0.9</text></g><g clip-path="url(#clip10)"><text fill="#595959" font-family="Calibri,Calibri_MSFontService,sans-serif" font-weight="400" font-size="41" transform="matrix(1 0 0 1 7938.15 6770)">1</text></g><g clip-path="url(#clip11)"><text fill="#595959" font-family="Calibri,Calibri_MSFontService,sans-serif" font-weight="400" font-size="41" transform="matrix(1 0 0 1 7906.85 6909)">1.1</text></g><g clip-path="url(#clip12)"><text fill="#595959" font-family="Calibri,Calibri_MSFontService,sans-serif" font-weight="400" font-size="41" transform="matrix(1 0 0 1 7906.85 7048)">1.2</text></g><g clip-path="url(#clip13)"><text fill="#595959" font-family="Calibri,Calibri_MSFontService,sans-serif" font-weight="400" font-size="41" transform="matrix(1 0 0 1 7906.85 7187)">1.3</text></g><g clip-path="url(#clip14)"><text fill="#595959" font-family="Calibri,Calibri_MSFontService,sans-serif" font-weight="400" font-size="41" transform="matrix(1 0 0 1 7906.85 7326)">1.4</text></g><g clip-path="url(#clip15)"><text fill="#595959" font-family="Calibri,Calibri_MSFontService,sans-serif" font-weight="400" font-size="41" transform="matrix(1 0 0 1 7906.85 7465)">1.5</text></g><g clip-path="url(#clip16)"><text fill="#595959" font-family="Calibri,Calibri_MSFontService,sans-serif" font-weight="400" font-size="41" transform="matrix(1 0 0 1 7955.59 6578)">2000</text></g><g clip-path="url(#clip17)"><text fill="#595959" font-family="Calibri,Calibri_MSFontService,sans-serif" font-weight="400" font-size="41" transform="matrix(1 0 0 1 8223.08 6578)">2005</text></g><g clip-path="url(#clip18)"><text fill="#595959" font-family="Calibri,Calibri_MSFontService,sans-serif" font-weight="400" font-size="41" transform="matrix(1 0 0 1 8490.42 6578)">2010</text></g><g clip-path="url(#clip19)"><text fill="#595959" font-family="Calibri,Calibri_MSFontService,sans-serif" font-weight="400" font-size="41" transform="matrix(1 0 0 1 8757.77 6578)">2015</text></g><g clip-path="url(#clip20)"><text fill="#595959" font-family="Calibri,Calibri_MSFontService,sans-serif" font-weight="400" font-size="41" transform="matrix(1 0 0 1 9025.11 6578)">2020</text></g><g clip-path="url(#clip21)"><rect x="8708" y="7340" width="116" height="23" fill="#D9D9D9"/></g><g clip-path="url(#clip22)"><text fill="#595959" font-family="Calibri,Calibri_MSFontService,sans-serif" font-weight="400" font-size="41" transform="matrix(1 0 0 1 8836.44 7363)">Percentile [20-80]</text></g><g clip-path="url(#clip23)"><path d="M8708.5 7416.5 8823.5 7416.5" stroke="#EDB40D" stroke-width="4.58333" stroke-linecap="round" stroke-linejoin="round" stroke-miterlimit="10" stroke-dasharray="13.75 18.3333" fill="none" fill-rule="evenodd"/></g><g clip-path="url(#clip24)"><text fill="#595959" font-family="Calibri,Calibri_MSFontService,sans-serif" font-weight="400" font-size="41" transform="matrix(1 0 0 1 8836.44 7429)">Mean</text></g><rect x="7877.5" y="6513.5" width="1334" height="991" stroke="#D9D9D9" stroke-width="3.4375" stroke-linejoin="round" stroke-miterlimit="10" fill="none"/></g></svg>