<svg width="1337" height="994" xmlns="http://www.w3.org/2000/svg" xmlns:xlink="http://www.w3.org/1999/xlink" overflow="hidden"><defs><clipPath id="clip0"><rect x="9842" y="6512" width="1337" height="994"/></clipPath><clipPath id="clip1"><rect x="9963" y="6619" width="1167" height="838"/></clipPath><clipPath id="clip2"><rect x="9963" y="6619" width="1167" height="838"/></clipPath><clipPath id="clip3"><rect x="9843" y="6513" width="1334" height="991"/></clipPath><clipPath id="clip4"><rect x="9843" y="6513" width="1334" height="991"/></clipPath><clipPath id="clip5"><rect x="9843" y="6513" width="1334" height="991"/></clipPath><clipPath id="clip6"><rect x="9843" y="6513" width="1334" height="991"/></clipPath><clipPath id="clip7"><rect x="9963" y="6619" width="1167" height="838"/></clipPath><clipPath id="clip8"><rect x="9963" y="6619" width="1167" height="838"/></clipPath><clipPath id="clip9"><rect x="9843" y="6513" width="1334" height="991"/></clipPath><clipPath id="clip10"><rect x="9843" y="6513" width="1334" height="991"/></clipPath><clipPath id="clip11"><rect x="9843" y="6513" width="1334" height="991"/></clipPath><clipPath id="clip12"><rect x="9843" y="6513" width="1334" height="991"/></clipPath><clipPath id="clip13"><rect x="9843" y="6513" width="1334" height="991"/></clipPath><clipPath id="clip14"><rect x="9843" y="6513" width="1334" height="991"/></clipPath><clipPath id="clip15"><rect x="9843" y="6513" width="1334" height="991"/></clipPath><clipPath id="clip16"><rect x="9843" y="6513" width="1334" height="991"/></clipPath><clipPath id="clip17"><rect x="9843" y="6513" width="1334" height="991"/></clipPath><clipPath id="clip18"><rect x="9843" y="6513" width="1334" height="991"/></clipPath><clipPath id="clip19"><rect x="9843" y="6513" width="1334" height="991"/></clipPath><clipPath id="clip20"><rect x="9843" y="6513" width="1334" height="991"/></clipPath><clipPath id="clip21"><rect x="9843" y="6513" width="1334" height="991"/></clipPath><clipPath id="clip22"><rect x="9843" y="6513" width="1334" height="991"/></clipPath><clipPath id="clip23"><rect x="9843" y="6513" width="1334" height="991"/></clipPath><clipPath id="clip24"><rect x="9843" y="6513" width="1334" height="991"/></clipPath><clipPath id="clip25"><rect x="9843" y="6513" width="1334" height="991"/></clipPath><clipPath id="clip26"><rect x="9843" y="6513" width="1334" height="991"/></clipPath></defs><g clip-path="url(#clip0)" transform="translate(-9842 -6512)"><rect x="9843" y="6513" width="1334" height="991" fill="#FFFFFF"/><g clip-path="url(#clip1)"><path d="M10164 7250 10177.3 7250 10191.3 7250 10204.3 7250 10218.3 7250 10231.3 7250 10244.3 7250 10257.3 7250 10271.3 7250 10284.3 7250 10298.3 7250 10311.3 7250 10324.3 7250 10338.3 7250 10351.3 7250 10364.3 7250 10378.3 7250 10391.3 7250 10405.3 7250 10418.3 7250 10431.3 7250 10445.3 7250 10458.3 7250 10471.3 7250 10485.3 7250 10498.3 7250 10511.3 7250 10525.3 7250 10538.3 7250 10552.3 7250 10565.3 7250 10578.3 7250 10592.3 7250 10605.3 7250 10619.3 7250 10632.3 7250 10645.3 7250 10659.3 7250 10672.4 7250 10685.4 7250 10699.4 7250 10712.4 7250 10725.4 7250 10739.4 7250 10752.4 7250 10766.4 7250 10779.4 7250 10792.4 7250 10806.4 7250 10819.4 7250 10832.4 7250 10846.4 7250 10859.4 7250 10873.4 7250 10886.4 7250 10899.4 7250 10913.4 7250 10926.4 7250 10939.4 7250 10953.4 7250 10966.4 7250 10980.4 7250 10993.4 7250 11006.4 7250 11020.4 7250 11033.4 7250 11046.4 7250 11060.4 7250 11073.4 7250 11087.4 7250 11100.4 7250 11113.4 7250 11127 7250 11127 6620 11113.4 6620 11100.4 6620 11087.4 6620 11073.4 6620 11060.4 6620 11046.4 6620 11033.4 6620 11020.4 6620 11006.4 6620 10993.4 6620 10980.4 6620 10966.4 6620 10953.4 6620 10939.4 6620 10926.4 6620 10913.4 6620 10899.4 6620 10886.4 6620 10873.4 6620 10859.4 6620 10846.4 6620 10832.4 6620 10819.4 6620 10806.4 6620 10792.4 6620 10779.4 6620 10766.4 6620 10752.4 6620 10739.4 6620 10725.4 6620 10712.4 6620 10699.4 6620 10685.4 6620 10672.4 6620 10659.3 6620 10645.3 6620 10632.3 6620 10619.3 6620 10605.3 6620 10592.3 6620 10578.3 6620 10565.3 6620 10552.3 6620 10538.3 6620 10525.3 6620 10511.3 6620 10498.3 6620 10485.3 6620 10471.3 6620 10458.3 6620 10445.3 6620 10431.3 6620 10418.3 6620 10405.3 6620 10391.3 6620 10378.3 6620 10364.3 6620 10351.3 6620 10338.3 6620 10324.3 6620 10311.3 6620 10298.3 6620 10284.3 6620 10271.3 6620 10257.3 6620 10244.3 6620 10231.3 6620 10218.3 6620 10204.3 6620 10191.3 6620 10177.3 6620 10164 6620Z" fill="#D9D9D9"/></g><g clip-path="url(#clip2)"><path d="M10164 6969 10177.3 6969 10191.3 6969 10204.3 6969 10218.3 6969 10231.3 6969 10244.3 6969 10257.3 6969 10271.3 6969 10284.3 6969 10298.3 6969 10311.3 6969 10324.3 6969 10338.3 6969 10351.3 6969 10364.3 6969 10378.3 6969 10391.3 6969 10405.3 6969 10418.3 6969 10431.3 6969 10445.3 6969 10458.3 6969 10471.3 6969 10485.3 6969 10498.3 6969 10511.3 6969 10525.3 6969 10538.3 6969 10552.3 6969 10565.3 6969 10578.3 6969 10592.3 6969 10605.3 6969 10619.3 6969 10632.3 6969 10645.3 6969 10659.3 6969 10672.4 6969 10685.4 6969 10699.4 6969 10712.4 6969 10725.4 6969 10739.4 6969 10752.4 6969 10766.4 6969 10779.4 6969 10792.4 6969 10806.4 6969 10819.4 6969 10832.4 6969 10846.4 6969 10859.4 6969 10873.4 6969 10886.4 6969 10899.4 6969 10913.4 6969 10926.4 6969 10939.4 6969 10953.4 6969 10966.4 6969 10980.4 6969 10993.4 6969 11006.4 6969 11020.4 6969 11033.4 6969 11046.4 6969 11060.4 6969 11073.4 6969 11087.4 6969 11100.4 6969 11113.4 6969 11127 6969 11127 6620 11113.4 6620 11100.4 6620 11087.4 6620 11073.4 6620 11060.4 6620 11046.4 6620 11033.4 6620 11020.4 6620 11006.4 6620 10993.4 6620 10980.4 6620 10966.4 6620 10953.4 6620 10939.4 6620 10926.4 6620 10913.4 6620 10899.4 6620 10886.4 6620 10873.4 6620 10859.4 6620 10846.4 6620 10832.4 6620 10819.4 6620 10806.4 6620 10792.4 6620 10779.4 6620 10766.4 6620 10752.4 6620 10739.4 6620 10725.4 6620 10712.4 6620 10699.4 6620 10685.4 6620 10672.4 6620 10659.3 6620 10645.3 6620 10632.3 6620 10619.3 6620 10605.3 6620 10592.3 6620 10578.3 6620 10565.3 6620 10552.3 6620 10538.3 6620 10525.3 6620 10511.3 6620 10498.3 6620 10485.3 6620 10471.3 6620 10458.3 6620 10445.3 6620 10431.3 6620 10418.3 6620 10405.3 6620 10391.3 6620 10378.3 6620 10364.3 6620 10351.3 6620 10338.3 6620 10324.3 6620 10311.3 6620 10298.3 6620 10284.3 6620 10271.3 6620 10257.3 6620 10244.3 6620 10231.3 6620 10218.3 6620 10204.3 6620 10191.3 6620 10177.3 6620 10164 6620Z" fill="#FFFFFF"/></g><g clip-path="url(#clip3)"><path d="M9963.5 6619.5 9963.5 7453.5" stroke="#D9D9D9" stroke-width="3.4375" stroke-linejoin="round" stroke-miterlimit="10" fill="none" fill-rule="evenodd"/></g><g clip-path="url(#clip4)"><path d="M9950.5 6619.5 9963.5 6619.5M9950.5 6723.72 9963.5 6723.72M9950.5 6828.72 9963.5 6828.72M9950.5 6932.73 9963.5 6932.73M9950.5 7036.73 9963.5 7036.73M9950.5 7140.73 9963.5 7140.73M9950.5 7245.74 9963.5 7245.74M9950.5 7349.74 9963.5 7349.74M9950.5 7453.5 9963.5 7453.5" stroke="#D9D9D9" stroke-width="3.4375" stroke-linejoin="round" stroke-miterlimit="10" fill="none"/></g><g clip-path="url(#clip5)"><path d="M9963.5 6619.5 11126.5 6619.5" stroke="#D9D9D9" stroke-width="3.4375" stroke-linejoin="round" stroke-miterlimit="10" fill="none" fill-rule="evenodd"/></g><g clip-path="url(#clip6)"><path d="M9963.5 6606.5 9963.5 6619.5M10230.8 6606.5 10230.8 6619.5M10498.8 6606.5 10498.8 6619.5M10765.9 6606.5 10765.9 6619.5M11033.5 6606.5 11033.5 6619.5" stroke="#D9D9D9" stroke-width="3.4375" stroke-linejoin="round" stroke-miterlimit="10" fill="none"/></g><g clip-path="url(#clip7)"><path d="M10164 7365.24 10177.3 7287.24 10191.3 7311.24 10204.3 7296.24 10218.3 7297.24 10231.3 7183.24 10244.3 7248.24 10257.3 7346.24 10271.3 7343.24 10284.3 7366 10298.3 7354.24 10311.3 7269.24 10324.3 7300.24 10338.3 7262.24 10351.3 7259.24 10364.3 7268.24 10378.3 7212.24 10391.3 7173.24 10405.3 7045.23 10418.3 7051.23 10431.3 7167.24 10445.3 7104.23 10458.3 7189.24 10471.3 7115.23 10485.3 7081.23 10498.3 7072.23 10511.3 7093.23 10525.3 7100.23 10538.3 7020.23 10552.3 6968.23 10565.3 6953.23 10578.3 6871 10592.3 6930.23 10605.3 6974.23 10619.3 6938.23 10632.3 7000.23 10645.3 6978.23 10659.3 6948.23 10672.4 6985.23 10685.4 6979.23 10699.4 6938.23 10712.4 6925.23 10725.4 6916.23 10739.4 6918.23 10752.4 6990.23 10766.4 7030.23 10779.4 7008.23 10792.4 6968.23 10806.4 7010.23 10819.4 7038.23 10832.4 6996.23 10846.4 7012.23 10859.4 7001.23 10873.4 7054.23 10886.4 7037.23 10899.4 6990.23 10913.4 7006.23 10926.4 7009.23 10939.4 6991.23 10953.4 7034.23 10966.4 7017.23 10980.4 7019.23 10993.4 7031.23 11006.4 7015.23 11020.4 7034.23 11033.4 7002.23 11046.4 6996.23 11060.4 6981.23 11073.4 6954.23 11087.4 6930.23 11100.4 6978.23 11113.4 6958.23 11127 6966.23" stroke="#EDB40D" stroke-width="10.3125" stroke-linecap="round" stroke-linejoin="round" stroke-miterlimit="10" fill="none"/></g><g clip-path="url(#clip8)"><path d="M10164.5 7074.5 10177.8 7074.5 10190.8 7074.5 10204.8 7074.5 10217.8 7074.5 10230.8 7074.5 10244.8 7074.5 10257.8 7074.5 10270.8 7074.5 10284.8 7074.5 10297.8 7074.5 10310.8 7074.5 10324.8 7074.5 10337.8 7074.5 10351.8 7074.5 10364.8 7074.5 10377.8 7074.5 10391.8 7074.5 10404.8 7074.5 10417.8 7074.5 10431.8 7074.5 10444.8 7074.5 10458.8 7074.5 10471.8 7074.5 10484.8 7074.5 10498.8 7074.5 10511.8 7074.5 10524.8 7074.5 10538.8 7074.5 10551.8 7074.5 10564.8 7074.5 10578.8 7074.5 10591.8 7074.5 10605.8 7074.5 10618.8 7074.5 10631.8 7074.5 10645.8 7074.5 10658.8 7074.5 10671.9 7074.5 10685.9 7074.5 10698.9 7074.5 10712.9 7074.5 10725.9 7074.5 10738.9 7074.5 10752.9 7074.5 10765.9 7074.5 10778.9 7074.5 10792.9 7074.5 10805.9 7074.5 10819.9 7074.5 10832.9 7074.5 10845.9 7074.5 10859.9 7074.5 10872.9 7074.5 10885.9 7074.5 10899.9 7074.5 10912.9 7074.5 10926.9 7074.5 10939.9 7074.5 10952.9 7074.5 10966.9 7074.5 10979.9 7074.5 10992.9 7074.5 11006.9 7074.5 11019.9 7074.5 11032.9 7074.5 11046.9 7074.5 11059.9 7074.5 11073.9 7074.5 11086.9 7074.5 11099.9 7074.5 11113.9 7074.5 11126.5 7074.5" stroke="#EDB40D" stroke-width="4.58333" stroke-linecap="round" stroke-linejoin="round" stroke-miterlimit="10" stroke-dasharray="13.75 18.3333" fill="none"/></g><g clip-path="url(#clip9)"><text fill="#595959" font-family="Calibri,Calibri_MSFontService,sans-serif" font-weight="400" font-size="41" transform="matrix(1 0 0 1 9873.28 6631)">0.6</text></g><g clip-path="url(#clip10)"><text fill="#595959" font-family="Calibri,Calibri_MSFontService,sans-serif" font-weight="400" font-size="41" transform="matrix(1 0 0 1 9873.28 6736)">0.7</text></g><g clip-path="url(#clip11)"><text fill="#595959" font-family="Calibri,Calibri_MSFontService,sans-serif" font-weight="400" font-size="41" transform="matrix(1 0 0 1 9873.28 6840)">0.8</text></g><g clip-path="url(#clip12)"><text fill="#595959" font-family="Calibri,Calibri_MSFontService,sans-serif" font-weight="400" font-size="41" transform="matrix(1 0 0 1 9873.28 6944)">0.9</text></g><g clip-path="url(#clip13)"><text fill="#595959" font-family="Calibri,Calibri_MSFontService,sans-serif" font-weight="400" font-size="41" transform="matrix(1 0 0 1 9904.59 7048)">1</text></g><g clip-path="url(#clip14)"><text fill="#595959" font-family="Calibri,Calibri_MSFontService,sans-serif" font-weight="400" font-size="41" transform="matrix(1 0 0 1 9873.28 7153)">1.1</text></g><g clip-path="url(#clip15)"><text fill="#595959" font-family="Calibri,Calibri_MSFontService,sans-serif" font-weight="400" font-size="41" transform="matrix(1 0 0 1 9873.28 7257)">1.2</text></g><g clip-path="url(#clip16)"><text fill="#595959" font-family="Calibri,Calibri_MSFontService,sans-serif" font-weight="400" font-size="41" transform="matrix(1 0 0 1 9873.28 7361)">1.3</text></g><g clip-path="url(#clip17)"><text fill="#595959" font-family="Calibri,Calibri_MSFontService,sans-serif" font-weight="400" font-size="41" transform="matrix(1 0 0 1 9873.28 7465)">1.4</text></g><g clip-path="url(#clip18)"><text fill="#595959" font-family="Calibri,Calibri_MSFontService,sans-serif" font-weight="400" font-size="41" transform="matrix(1 0 0 1 9922.03 6578)">2000</text></g><g clip-path="url(#clip19)"><text fill="#595959" font-family="Calibri,Calibri_MSFontService,sans-serif" font-weight="400" font-size="41" transform="matrix(1 0 0 1 10189.5 6578)">2005</text></g><g clip-path="url(#clip20)"><text fill="#595959" font-family="Calibri,Calibri_MSFontService,sans-serif" font-weight="400" font-size="41" transform="matrix(1 0 0 1 10456.9 6578)">2010</text></g><g clip-path="url(#clip21)"><text fill="#595959" font-family="Calibri,Calibri_MSFontService,sans-serif" font-weight="400" font-size="41" transform="matrix(1 0 0 1 10724.2 6578)">2015</text></g><g clip-path="url(#clip22)"><text fill="#595959" font-family="Calibri,Calibri_MSFontService,sans-serif" font-weight="400" font-size="41" transform="matrix(1 0 0 1 10991.5 6578)">2020</text></g><g clip-path="url(#clip23)"><rect x="10675" y="7340" width="115" height="23" fill="#D9D9D9"/></g><g clip-path="url(#clip24)"><text fill="#595959" font-family="Calibri,Calibri_MSFontService,sans-serif" font-weight="400" font-size="41" transform="matrix(1 0 0 1 10802.9 7363)">Percentile [20-80]</text></g><g clip-path="url(#clip25)"><path d="M10674.5 7416.5 10790.5 7416.5" stroke="#EDB40D" stroke-width="4.58333" stroke-linecap="round" stroke-linejoin="round" stroke-miterlimit="10" stroke-dasharray="13.75 18.3333" fill="none" fill-rule="evenodd"/></g><g clip-path="url(#clip26)"><text fill="#595959" font-family="Calibri,Calibri_MSFontService,sans-serif" font-weight="400" font-size="41" transform="matrix(1 0 0 1 10802.9 7429)">Mean</text></g><rect x="9843.5" y="6513.5" width="1334" height="991" stroke="#D9D9D9" stroke-width="3.4375" stroke-linejoin="round" stroke-miterlimit="10" fill="none"/></g></svg>