<svg width="1337" height="994" xmlns="http://www.w3.org/2000/svg" xmlns:xlink="http://www.w3.org/1999/xlink" overflow="hidden"><defs><clipPath id="clip0"><rect x="11809" y="6512" width="1337" height="994"/></clipPath><clipPath id="clip1"><rect x="11898" y="6619" width="1198" height="838"/></clipPath><clipPath id="clip2"><rect x="11898" y="6619" width="1198" height="838"/></clipPath><clipPath id="clip3"><rect x="11809" y="6513" width="1334" height="991"/></clipPath><clipPath id="clip4"><rect x="11809" y="6513" width="1334" height="991"/></clipPath><clipPath id="clip5"><rect x="11809" y="6513" width="1334" height="991"/></clipPath><clipPath id="clip6"><rect x="11809" y="6513" width="1334" height="991"/></clipPath><clipPath id="clip7"><rect x="11898" y="6619" width="1198" height="838"/></clipPath><clipPath id="clip8"><rect x="11898" y="6619" width="1198" height="838"/></clipPath><clipPath id="clip9"><rect x="11809" y="6513" width="1334" height="991"/></clipPath><clipPath id="clip10"><rect x="11809" y="6513" width="1334" height="991"/></clipPath><clipPath id="clip11"><rect x="11809" y="6513" width="1334" height="991"/></clipPath><clipPath id="clip12"><rect x="11809" y="6513" width="1334" height="991"/></clipPath><clipPath id="clip13"><rect x="11809" y="6513" width="1334" height="991"/></clipPath><clipPath id="clip14"><rect x="11809" y="6513" width="1334" height="991"/></clipPath><clipPath id="clip15"><rect x="11809" y="6513" width="1334" height="991"/></clipPath><clipPath id="clip16"><rect x="11809" y="6513" width="1334" height="991"/></clipPath><clipPath id="clip17"><rect x="11809" y="6513" width="1334" height="991"/></clipPath><clipPath id="clip18"><rect x="11809" y="6513" width="1334" height="991"/></clipPath><clipPath id="clip19"><rect x="11809" y="6513" width="1334" height="991"/></clipPath><clipPath id="clip20"><rect x="11809" y="6513" width="1334" height="991"/></clipPath><clipPath id="clip21"><rect x="11809" y="6513" width="1334" height="991"/></clipPath><clipPath id="clip22"><rect x="11809" y="6513" width="1334" height="991"/></clipPath></defs><g clip-path="url(#clip0)" transform="translate(-11809 -6512)"><rect x="11810" y="6513" width="1334" height="991" fill="#FFFFFF"/><g clip-path="url(#clip1)"><path d="M12174 7074 12187.4 7074 12200.4 7074 12214.4 7074 12228.4 7074 12242.4 7074 12255.4 7074 12269.4 7074 12283.4 7074 12297.4 7074 12310.4 7074 12324.4 7074 12338.4 7074 12352.4 7074 12365.4 7074 12379.4 7074 12393.4 7074 12406.4 7074 12420.4 7074 12434.4 7074 12448.4 7074 12461.4 7074 12475.4 7074 12489.4 7074 12503.4 7074 12516.4 7074 12530.4 7074 12544.4 7074 12558.4 7074 12571.4 7074 12585.4 7074 12599.4 7074 12613.4 7074 12626.4 7074 12640.4 7074 12654.4 7074 12667.4 7074 12681.4 7074 12695.4 7074 12708.4 7074 12722.4 7074 12736.4 7074 12750.4 7074 12763.4 7074 12777.4 7074 12791.4 7074 12805.4 7074 12818.4 7074 12832.4 7074 12846.4 7074 12859.4 7074 12873.4 7074 12887.4 7074 12901.4 7074 12914.4 7074 12928.4 7074 12942.4 7074 12955.4 7074 12969.4 7074 12983.4 7074 12997.4 7074 13011.4 7074 13024.4 7074 13038.4 7074 13052.4 7074 13065.4 7074 13079.4 7074 13093 7074 13093 6620 13079.4 6620 13065.4 6620 13052.4 6620 13038.4 6620 13024.4 6620 13011.4 6620 12997.4 6620 12983.4 6620 12969.4 6620 12955.4 6620 12942.4 6620 12928.4 6620 12914.4 6620 12901.4 6620 12887.4 6620 12873.4 6620 12859.4 6620 12846.4 6620 12832.4 6620 12818.4 6620 12805.4 6620 12791.4 6620 12777.4 6620 12763.4 6620 12750.4 6620 12736.4 6620 12722.4 6620 12708.4 6620 12695.4 6620 12681.4 6620 12667.4 6620 12654.4 6620 12640.4 6620 12626.4 6620 12613.4 6620 12599.4 6620 12585.4 6620 12571.4 6620 12558.4 6620 12544.4 6620 12530.4 6620 12516.4 6620 12503.4 6620 12489.4 6620 12475.4 6620 12461.4 6620 12448.4 6620 12434.4 6620 12420.4 6620 12406.4 6620 12393.4 6620 12379.4 6620 12365.4 6620 12352.4 6620 12338.4 6620 12324.4 6620 12310.4 6620 12297.4 6620 12283.4 6620 12269.4 6620 12255.4 6620 12242.4 6620 12228.4 6620 12214.4 6620 12200.4 6620 12187.4 6620 12174 6620Z" fill="#D9D9D9"/></g><g clip-path="url(#clip2)"><path d="M12174 6891 12187.4 6891 12200.4 6891 12214.4 6891 12228.4 6891 12242.4 6891 12255.4 6891 12269.4 6891 12283.4 6891 12297.4 6891 12310.4 6891 12324.4 6891 12338.4 6891 12352.4 6891 12365.4 6891 12379.4 6891 12393.4 6891 12406.4 6891 12420.4 6891 12434.4 6891 12448.4 6891 12461.4 6891 12475.4 6891 12489.4 6891 12503.4 6891 12516.4 6891 12530.4 6891 12544.4 6891 12558.4 6891 12571.4 6891 12585.4 6891 12599.4 6891 12613.4 6891 12626.4 6891 12640.4 6891 12654.4 6891 12667.4 6891 12681.4 6891 12695.4 6891 12708.4 6891 12722.4 6891 12736.4 6891 12750.4 6891 12763.4 6891 12777.4 6891 12791.4 6891 12805.4 6891 12818.4 6891 12832.4 6891 12846.4 6891 12859.4 6891 12873.4 6891 12887.4 6891 12901.4 6891 12914.4 6891 12928.4 6891 12942.4 6891 12955.4 6891 12969.4 6891 12983.4 6891 12997.4 6891 13011.4 6891 13024.4 6891 13038.4 6891 13052.4 6891 13065.4 6891 13079.4 6891 13093 6891 13093 6620 13079.4 6620 13065.4 6620 13052.4 6620 13038.4 6620 13024.4 6620 13011.4 6620 12997.4 6620 12983.4 6620 12969.4 6620 12955.4 6620 12942.4 6620 12928.4 6620 12914.4 6620 12901.4 6620 12887.4 6620 12873.4 6620 12859.4 6620 12846.4 6620 12832.4 6620 12818.4 6620 12805.4 6620 12791.4 6620 12777.4 6620 12763.4 6620 12750.4 6620 12736.4 6620 12722.4 6620 12708.4 6620 12695.4 6620 12681.4 6620 12667.4 6620 12654.4 6620 12640.4 6620 12626.4 6620 12613.4 6620 12599.4 6620 12585.4 6620 12571.4 6620 12558.4 6620 12544.4 6620 12530.4 6620 12516.4 6620 12503.4 6620 12489.4 6620 12475.4 6620 12461.4 6620 12448.4 6620 12434.4 6620 12420.4 6620 12406.4 6620 12393.4 6620 12379.4 6620 12365.4 6620 12352.4 6620 12338.4 6620 12324.4 6620 12310.4 6620 12297.4 6620 12283.4 6620 12269.4 6620 12255.4 6620 12242.4 6620 12228.4 6620 12214.4 6620 12200.4 6620 12187.4 6620 12174 6620Z" fill="#FFFFFF"/></g><g clip-path="url(#clip3)"><path d="M11898.5 6619.5 11898.5 7453.5" stroke="#D9D9D9" stroke-width="3.4375" stroke-linejoin="round" stroke-miterlimit="10" fill="none" fill-rule="evenodd"/></g><g clip-path="url(#clip4)"><path d="M11885.5 6619.5 11898.5 6619.5M11885.5 6828.72 11898.5 6828.72M11885.5 7036.73 11898.5 7036.73M11885.5 7245.74 11898.5 7245.74M11885.5 7453.5 11898.5 7453.5" stroke="#D9D9D9" stroke-width="3.4375" stroke-linejoin="round" stroke-miterlimit="10" fill="none"/></g><g clip-path="url(#clip5)"><path d="M11898.5 6619.5 13093.5 6619.5" stroke="#D9D9D9" stroke-width="3.4375" stroke-linejoin="round" stroke-miterlimit="10" fill="none" fill-rule="evenodd"/></g><g clip-path="url(#clip6)"><path d="M11898.5 6606.5 11898.5 6619.5M12173.9 6606.5 12173.9 6619.5M12447.9 6606.5 12447.9 6619.5M12722.9 6606.5 12722.9 6619.5M12997.5 6606.5 12997.5 6619.5" stroke="#D9D9D9" stroke-width="3.4375" stroke-linejoin="round" stroke-miterlimit="10" fill="none"/></g><g clip-path="url(#clip7)"><path d="M12174 7301 12187.4 7301 12200.4 7301 12214.4 7261.24 12228.4 7259.24 12242.4 7247.24 12255.4 7241.24 12269.4 7224.24 12283.4 7205.24 12297.4 7187.24 12310.4 7162.24 12324.4 7140.23 12338.4 7098.23 12352.4 7040.23 12365.4 7008.23 12379.4 7002.23 12393.4 6998.23 12406.4 7000.23 12420.4 7000.23 12434.4 6998.23 12448.4 6998.23 12461.4 6998.23 12475.4 6989.23 12489.4 6970.23 12503.4 6956.23 12516.4 6940.23 12530.4 6925.23 12544.4 6909.23 12558.4 6892.23 12571.4 6892.23 12585.4 6903.23 12599.4 6887.23 12613.4 6876.23 12626.4 6873.23 12640.4 6855.23 12654.4 6851.23 12667.4 6837 12681.4 6871.23 12695.4 6868.23 12708.4 6855.23 12722.4 6869.23 12736.4 6867.23 12750.4 6868.23 12763.4 6900.23 12777.4 6929.23 12791.4 6920.23 12805.4 6961.23 12818.4 6967.23 12832.4 7025.23 12846.4 7013.23 12859.4 6992.23 12873.4 6967.23 12887.4 6933.23 12901.4 6888.23 12914.4 6959.23 12928.4 7009.23 12942.4 7011.23 12955.4 6976.23 12969.4 7009.23 12983.4 7067.23 12997.4 7029.23 13011.4 7054.23 13024.4 7050.23 13038.4 6993.23 13052.4 6939.23 13065.4 6943.23 13079.4 6923.23 13093 6921.23" stroke="#EDB40D" stroke-width="10.3125" stroke-linecap="round" stroke-linejoin="round" stroke-miterlimit="10" fill="none"/></g><g clip-path="url(#clip8)"><path d="M12173.5 7001.5 12186.9 7001.5 12200.9 7001.5 12214.9 7001.5 12228.9 7001.5 12241.9 7001.5 12255.9 7001.5 12269.9 7001.5 12283.9 7001.5 12296.9 7001.5 12310.9 7001.5 12324.9 7001.5 12337.9 7001.5 12351.9 7001.5 12365.9 7001.5 12379.9 7001.5 12392.9 7001.5 12406.9 7001.5 12420.9 7001.5 12433.9 7001.5 12447.9 7001.5 12461.9 7001.5 12474.9 7001.5 12488.9 7001.5 12502.9 7001.5 12516.9 7001.5 12529.9 7001.5 12543.9 7001.5 12557.9 7001.5 12571.9 7001.5 12584.9 7001.5 12598.9 7001.5 12612.9 7001.5 12626.9 7001.5 12639.9 7001.5 12653.9 7001.5 12667.9 7001.5 12680.9 7001.5 12694.9 7001.5 12708.9 7001.5 12722.9 7001.5 12735.9 7001.5 12749.9 7001.5 12763.9 7001.5 12777.9 7001.5 12790.9 7001.5 12804.9 7001.5 12818.9 7001.5 12832.9 7001.5 12845.9 7001.5 12859.9 7001.5 12873.9 7001.5 12887.9 7001.5 12900.9 7001.5 12914.9 7001.5 12928.9 7001.5 12941.9 7001.5 12955.9 7001.5 12969.9 7001.5 12983.9 7001.5 12996.9 7001.5 13010.9 7001.5 13024.9 7001.5 13038.9 7001.5 13051.9 7001.5 13065.9 7001.5 13079.9 7001.5 13093.5 7001.5" stroke="#EDB40D" stroke-width="4.58333" stroke-linecap="round" stroke-linejoin="round" stroke-miterlimit="10" stroke-dasharray="13.75 18.3333" fill="none"/></g><g clip-path="url(#clip9)"><text fill="#595959" font-family="Calibri,Calibri_MSFontService,sans-serif" font-weight="400" font-size="41" transform="matrix(1 0 0 1 11839.7 6631)">5</text></g><g clip-path="url(#clip10)"><text fill="#595959" font-family="Calibri,Calibri_MSFontService,sans-serif" font-weight="400" font-size="41" transform="matrix(1 0 0 1 11839.7 6840)">6</text></g><g clip-path="url(#clip11)"><text fill="#595959" font-family="Calibri,Calibri_MSFontService,sans-serif" font-weight="400" font-size="41" transform="matrix(1 0 0 1 11839.7 7048)">7</text></g><g clip-path="url(#clip12)"><text fill="#595959" font-family="Calibri,Calibri_MSFontService,sans-serif" font-weight="400" font-size="41" transform="matrix(1 0 0 1 11839.7 7257)">8</text></g><g clip-path="url(#clip13)"><text fill="#595959" font-family="Calibri,Calibri_MSFontService,sans-serif" font-weight="400" font-size="41" transform="matrix(1 0 0 1 11839.7 7465)">9</text></g><g clip-path="url(#clip14)"><text fill="#595959" font-family="Calibri,Calibri_MSFontService,sans-serif" font-weight="400" font-size="41" transform="matrix(1 0 0 1 11857.2 6578)">2000</text></g><g clip-path="url(#clip15)"><text fill="#595959" font-family="Calibri,Calibri_MSFontService,sans-serif" font-weight="400" font-size="41" transform="matrix(1 0 0 1 12131.9 6578)">2005</text></g><g clip-path="url(#clip16)"><text fill="#595959" font-family="Calibri,Calibri_MSFontService,sans-serif" font-weight="400" font-size="41" transform="matrix(1 0 0 1 12406.4 6578)">2010</text></g><g clip-path="url(#clip17)"><text fill="#595959" font-family="Calibri,Calibri_MSFontService,sans-serif" font-weight="400" font-size="41" transform="matrix(1 0 0 1 12680.9 6578)">2015</text></g><g clip-path="url(#clip18)"><text fill="#595959" font-family="Calibri,Calibri_MSFontService,sans-serif" font-weight="400" font-size="41" transform="matrix(1 0 0 1 12955.5 6578)">2020</text></g><g clip-path="url(#clip19)"><rect x="12641" y="7340" width="116" height="23" fill="#D9D9D9"/></g><g clip-path="url(#clip20)"><text fill="#595959" font-family="Calibri,Calibri_MSFontService,sans-serif" font-weight="400" font-size="41" transform="matrix(1 0 0 1 12769.3 7363)">Percentile [20-80]</text></g><g clip-path="url(#clip21)"><path d="M12641.5 7416.5 12756.5 7416.5" stroke="#EDB40D" stroke-width="4.58333" stroke-linecap="round" stroke-linejoin="round" stroke-miterlimit="10" stroke-dasharray="13.75 18.3333" fill="none" fill-rule="evenodd"/></g><g clip-path="url(#clip22)"><text fill="#595959" font-family="Calibri,Calibri_MSFontService,sans-serif" font-weight="400" font-size="41" transform="matrix(1 0 0 1 12769.3 7429)">Mean</text></g><rect x="11810.5" y="6513.5" width="1334" height="991" stroke="#D9D9D9" stroke-width="3.4375" stroke-linejoin="round" stroke-miterlimit="10" fill="none"/></g></svg>