<svg width="1346" height="994" xmlns="http://www.w3.org/2000/svg" xmlns:xlink="http://www.w3.org/1999/xlink" overflow="hidden"><defs><clipPath id="clip0"><rect x="13775" y="6512" width="1346" height="994"/></clipPath><clipPath id="clip1"><rect x="13956" y="6563" width="1116" height="838"/></clipPath><clipPath id="clip2"><rect x="13956" y="6563" width="1116" height="838"/></clipPath><clipPath id="clip3"><rect x="13776" y="6513" width="1343" height="991"/></clipPath><clipPath id="clip4"><rect x="13776" y="6513" width="1343" height="991"/></clipPath><clipPath id="clip5"><rect x="13776" y="6513" width="1343" height="991"/></clipPath><clipPath id="clip6"><rect x="13776" y="6513" width="1343" height="991"/></clipPath><clipPath id="clip7"><rect x="13956" y="6563" width="1116" height="838"/></clipPath><clipPath id="clip8"><rect x="13956" y="6563" width="1116" height="838"/></clipPath><clipPath id="clip9"><rect x="13776" y="6513" width="1343" height="991"/></clipPath><clipPath id="clip10"><rect x="13776" y="6513" width="1343" height="991"/></clipPath><clipPath id="clip11"><rect x="13776" y="6513" width="1343" height="991"/></clipPath><clipPath id="clip12"><rect x="13776" y="6513" width="1343" height="991"/></clipPath><clipPath id="clip13"><rect x="13776" y="6513" width="1343" height="991"/></clipPath><clipPath id="clip14"><rect x="13776" y="6513" width="1343" height="991"/></clipPath><clipPath id="clip15"><rect x="13776" y="6513" width="1343" height="991"/></clipPath><clipPath id="clip16"><rect x="13776" y="6513" width="1343" height="991"/></clipPath><clipPath id="clip17"><rect x="13776" y="6513" width="1343" height="991"/></clipPath><clipPath id="clip18"><rect x="13776" y="6513" width="1343" height="991"/></clipPath><clipPath id="clip19"><rect x="13776" y="6513" width="1343" height="991"/></clipPath><clipPath id="clip20"><rect x="13776" y="6513" width="1343" height="991"/></clipPath><clipPath id="clip21"><rect x="13776" y="6513" width="1343" height="991"/></clipPath><clipPath id="clip22"><rect x="13776" y="6513" width="1343" height="991"/></clipPath><clipPath id="clip23"><rect x="13776" y="6513" width="1343" height="991"/></clipPath><clipPath id="clip24"><rect x="13776" y="6513" width="1343" height="991"/></clipPath><clipPath id="clip25"><rect x="13776" y="6513" width="1343" height="991"/></clipPath><clipPath id="clip26"><rect x="13776" y="6513" width="1343" height="991"/></clipPath><clipPath id="clip27"><rect x="13776" y="6513" width="1343" height="991"/></clipPath><clipPath id="clip28"><rect x="13776" y="6513" width="1343" height="991"/></clipPath><clipPath id="clip29"><rect x="13776" y="6513" width="1343" height="991"/></clipPath><clipPath id="clip30"><rect x="13776" y="6513" width="1343" height="991"/></clipPath><clipPath id="clip31"><rect x="13776" y="6513" width="1343" height="991"/></clipPath><clipPath id="clip32"><rect x="13776" y="6513" width="1343" height="991"/></clipPath><clipPath id="clip33"><rect x="13776" y="6513" width="1343" height="991"/></clipPath><clipPath id="clip34"><rect x="13776" y="6513" width="1343" height="991"/></clipPath><clipPath id="clip35"><rect x="13776" y="6513" width="1343" height="991"/></clipPath><clipPath id="clip36"><rect x="13776" y="6513" width="1343" height="991"/></clipPath><clipPath id="clip37"><rect x="13776" y="6513" width="1343" height="991"/></clipPath><clipPath id="clip38"><rect x="13776" y="6513" width="1343" height="991"/></clipPath><clipPath id="clip39"><rect x="13776" y="6513" width="1343" height="991"/></clipPath></defs><g clip-path="url(#clip0)" transform="translate(-13775 -6512)"><rect x="13776" y="6513" width="1343" height="991" fill="#FFFFFF"/><g clip-path="url(#clip1)"><path d="M13995 6814 14008.5 6814 14020.5 6814 14033.5 6814 14046.5 6814 14059.5 6814 14071.5 6814 14084.5 6814 14097.5 6814 14110.5 6814 14123.5 6814 14135.5 6814 14148.5 6814 14161.5 6814 14174.5 6814 14187.5 6814 14199.5 6814 14212.5 6814 14225.5 6814 14238.5 6814 14251.5 6814 14263.5 6814 14276.5 6814 14289.5 6814 14302.5 6814 14314.5 6814 14327.5 6814 14340.5 6814 14353.5 6814 14366.5 6814 14378.5 6814 14391.5 6814 14404.5 6814 14417.5 6814 14429.5 6814 14442.5 6814 14455.5 6814 14468.5 6814 14480.5 6814 14493.5 6814 14506.5 6814 14519.5 6814 14532.5 6814 14544.5 6814 14557.5 6814 14570.5 6814 14583.5 6814 14596.5 6814 14608.5 6814 14621.5 6814 14634.5 6814 14647.5 6814 14659.5 6814 14672.5 6814 14685.5 6814 14698.5 6814 14711.5 6814 14723.5 6814 14736.5 6814 14749.5 6814 14762.5 6814 14775.5 6814 14787.5 6814 14800.5 6814 14813.5 6814 14826.5 6814 14838.5 6814 14851.5 6814 14864.5 6814 14877.5 6814 14889.5 6814 14902.5 6814 14915.5 6814 14928.5 6814 14941.5 6814 14953.5 6814 14966.5 6814 14979.5 6814 14992.5 6814 15005.5 6814 15017.5 6814 15030.5 6814 15043.5 6814 15056.5 6814 15069 6814 15069 7398 15056.5 7398 15043.5 7398 15030.5 7398 15017.5 7398 15005.5 7398 14992.5 7398 14979.5 7398 14966.5 7398 14953.5 7398 14941.5 7398 14928.5 7398 14915.5 7398 14902.5 7398 14889.5 7398 14877.5 7398 14864.5 7398 14851.5 7398 14838.5 7398 14826.5 7398 14813.5 7398 14800.5 7398 14787.5 7398 14775.5 7398 14762.5 7398 14749.5 7398 14736.5 7398 14723.5 7398 14711.5 7398 14698.5 7398 14685.5 7398 14672.5 7398 14659.5 7398 14647.5 7398 14634.5 7398 14621.5 7398 14608.5 7398 14596.5 7398 14583.5 7398 14570.5 7398 14557.5 7398 14544.5 7398 14532.5 7398 14519.5 7398 14506.5 7398 14493.5 7398 14480.5 7398 14468.5 7398 14455.5 7398 14442.5 7398 14429.5 7398 14417.5 7398 14404.5 7398 14391.5 7398 14378.5 7398 14366.5 7398 14353.5 7398 14340.5 7398 14327.5 7398 14314.5 7398 14302.5 7398 14289.5 7398 14276.5 7398 14263.5 7398 14251.5 7398 14238.5 7398 14225.5 7398 14212.5 7398 14199.5 7398 14187.5 7398 14174.5 7398 14161.5 7398 14148.5 7398 14135.5 7398 14123.5 7398 14110.5 7398 14097.5 7398 14084.5 7398 14071.5 7398 14059.5 7398 14046.5 7398 14033.5 7398 14020.5 7398 14008.5 7398 13995 7398Z" fill="#D9D9D9"/></g><g clip-path="url(#clip2)"><path d="M13995 7229 14008.5 7229 14020.5 7229 14033.5 7229 14046.5 7229 14059.5 7229 14071.5 7229 14084.5 7229 14097.5 7229 14110.5 7229 14123.5 7229 14135.5 7229 14148.5 7229 14161.5 7229 14174.5 7229 14187.5 7229 14199.5 7229 14212.5 7229 14225.5 7229 14238.5 7229 14251.5 7229 14263.5 7229 14276.5 7229 14289.5 7229 14302.5 7229 14314.5 7229 14327.5 7229 14340.5 7229 14353.5 7229 14366.5 7229 14378.5 7229 14391.5 7229 14404.5 7229 14417.5 7229 14429.5 7229 14442.5 7229 14455.5 7229 14468.5 7229 14480.5 7229 14493.5 7229 14506.5 7229 14519.5 7229 14532.5 7229 14544.5 7229 14557.5 7229 14570.5 7229 14583.5 7229 14596.5 7229 14608.5 7229 14621.5 7229 14634.5 7229 14647.5 7229 14659.5 7229 14672.5 7229 14685.5 7229 14698.5 7229 14711.5 7229 14723.5 7229 14736.5 7229 14749.5 7229 14762.5 7229 14775.5 7229 14787.5 7229 14800.5 7229 14813.5 7229 14826.5 7229 14838.5 7229 14851.5 7229 14864.5 7229 14877.5 7229 14889.5 7229 14902.5 7229 14915.5 7229 14928.5 7229 14941.5 7229 14953.5 7229 14966.5 7229 14979.5 7229 14992.5 7229 15005.5 7229 15017.5 7229 15030.5 7229 15043.5 7229 15056.5 7229 15069 7229 15069 7398 15056.5 7398 15043.5 7398 15030.5 7398 15017.5 7398 15005.5 7398 14992.5 7398 14979.5 7398 14966.5 7398 14953.5 7398 14941.5 7398 14928.5 7398 14915.5 7398 14902.5 7398 14889.5 7398 14877.5 7398 14864.5 7398 14851.5 7398 14838.5 7398 14826.5 7398 14813.5 7398 14800.5 7398 14787.5 7398 14775.5 7398 14762.5 7398 14749.5 7398 14736.5 7398 14723.5 7398 14711.5 7398 14698.5 7398 14685.5 7398 14672.5 7398 14659.5 7398 14647.5 7398 14634.5 7398 14621.5 7398 14608.5 7398 14596.5 7398 14583.5 7398 14570.5 7398 14557.5 7398 14544.5 7398 14532.5 7398 14519.5 7398 14506.5 7398 14493.5 7398 14480.5 7398 14468.5 7398 14455.5 7398 14442.5 7398 14429.5 7398 14417.5 7398 14404.5 7398 14391.5 7398 14378.5 7398 14366.5 7398 14353.5 7398 14340.5 7398 14327.5 7398 14314.5 7398 14302.5 7398 14289.5 7398 14276.5 7398 14263.5 7398 14251.5 7398 14238.5 7398 14225.5 7398 14212.5 7398 14199.5 7398 14187.5 7398 14174.5 7398 14161.5 7398 14148.5 7398 14135.5 7398 14123.5 7398 14110.5 7398 14097.5 7398 14084.5 7398 14071.5 7398 14059.5 7398 14046.5 7398 14033.5 7398 14020.5 7398 14008.5 7398 13995 7398Z" fill="#FFFFFF"/></g><g clip-path="url(#clip3)"><path d="M0 0 0.000360892 835" stroke="#D9D9D9" stroke-width="3.4375" stroke-linejoin="round" stroke-miterlimit="10" fill="none" fill-rule="evenodd" transform="matrix(1 0 0 -1 13956.5 7398.5)"/></g><g clip-path="url(#clip4)"><path d="M13943.5 7398.5 13956.5 7398.5M13943.5 7358.74 13956.5 7358.74M13943.5 7318.74 13956.5 7318.74M13943.5 7278.74 13956.5 7278.74M13943.5 7238.74 13956.5 7238.74M13943.5 7199.74 13956.5 7199.74M13943.5 7159.73 13956.5 7159.73M13943.5 7119.73 13956.5 7119.73M13943.5 7079.73 13956.5 7079.73M13943.5 7040.73 13956.5 7040.73M13943.5 7000.73 13956.5 7000.73M13943.5 6960.73 13956.5 6960.73M13943.5 6921.73 13956.5 6921.73M13943.5 6881.73 13956.5 6881.73M13943.5 6841.72 13956.5 6841.72M13943.5 6801.72 13956.5 6801.72M13943.5 6762.72 13956.5 6762.72M13943.5 6722.72 13956.5 6722.72M13943.5 6682.72 13956.5 6682.72M13943.5 6643.72 13956.5 6643.72M13943.5 6603.72 13956.5 6603.72M13943.5 6563.5 13956.5 6563.5" stroke="#D9D9D9" stroke-width="3.4375" stroke-linejoin="round" stroke-miterlimit="10" fill="none"/></g><g clip-path="url(#clip5)"><path d="M13956.5 7398.5 15069.5 7398.5" stroke="#D9D9D9" stroke-width="3.4375" stroke-linejoin="round" stroke-miterlimit="10" fill="none" fill-rule="evenodd"/></g><g clip-path="url(#clip6)"><path d="M13956.5 7398.5 13956.5 7411.5M14213 7398.5 14213 7411.5M14468 7398.5 14468 7411.5M14724 7398.5 14724 7411.5M14979.5 7398.5 14979.5 7411.5" stroke="#D9D9D9" stroke-width="3.4375" stroke-linejoin="round" stroke-miterlimit="10" fill="none"/></g><g clip-path="url(#clip7)"><path d="M13995 7289.24 14008.5 7291.24 14020.5 7296 14033.5 7290.24 14046.5 7282.24 14059.5 7287.24 14071.5 7277.24 14084.5 7273.24 14097.5 7270.24 14110.5 7260.24 14123.5 7265.24 14135.5 7258.24 14148.5 7245.24 14161.5 7229.24 14174.5 7228.24 14187.5 7240.24 14199.5 7231.24 14212.5 7227.24 14225.5 7229.24 14238.5 7228.24 14251.5 7211.24 14263.5 7192.24 14276.5 7167.24 14289.5 7154.23 14302.5 7160.23 14314.5 7145.23 14327.5 7134.23 14340.5 7140.23 14353.5 7101.23 14366.5 7066.23 14378.5 7047.23 14391.5 7023.23 14404.5 7048.23 14417.5 7047.23 14429.5 7030.23 14442.5 7024.23 14455.5 7001.23 14468.5 6963.23 14480.5 6951.23 14493.5 6919.23 14506.5 6875.23 14519.5 6833.22 14532.5 6830.22 14544.5 6809.22 14557.5 6754.22 14570.5 6776.22 14583.5 6735.22 14596.5 6761.22 14608.5 6690.22 14621.5 6732.22 14634.5 6762.22 14647.5 6899.23 14659.5 6887.23 14672.5 6920.23 14685.5 6889.23 14698.5 6871.23 14711.5 6915.23 14723.5 6927.23 14736.5 6918.23 14749.5 6933.23 14762.5 6955.23 14775.5 6977.23 14787.5 6912.23 14800.5 6867.23 14813.5 6876.23 14826.5 6941.23 14838.5 6902.23 14851.5 6905.23 14864.5 6889.23 14877.5 6879.23 14889.5 6872.23 14902.5 6901.23 14915.5 6926.23 14928.5 6890.23 14941.5 6886.23 14953.5 6847.22 14966.5 6809.22 14979.5 6794.22 14992.5 6771.22 15005.5 6693.22 15017.5 6640 15030.5 6646.22 15043.5 6712.22 15056.5 6692.22 15069 6700.22" stroke="#EDB40D" stroke-width="10.3125" stroke-linecap="round" stroke-linejoin="round" stroke-miterlimit="10" fill="none"/></g><g clip-path="url(#clip8)"><path d="M13995.5 6992.5 14008 6992.5 14021 6992.5 14034 6992.5 14047 6992.5 14059 6992.5 14072 6992.5 14085 6992.5 14098 6992.5 14110 6992.5 14123 6992.5 14136 6992.5 14149 6992.5 14162 6992.5 14174 6992.5 14187 6992.5 14200 6992.5 14213 6992.5 14225 6992.5 14238 6992.5 14251 6992.5 14264 6992.5 14276 6992.5 14289 6992.5 14302 6992.5 14315 6992.5 14328 6992.5 14340 6992.5 14353 6992.5 14366 6992.5 14379 6992.5 14392 6992.5 14404 6992.5 14417 6992.5 14430 6992.5 14443 6992.5 14456 6992.5 14468 6992.5 14481 6992.5 14494 6992.5 14507 6992.5 14519 6992.5 14532 6992.5 14545 6992.5 14558 6992.5 14571 6992.5 14583 6992.5 14596 6992.5 14609 6992.5 14622 6992.5 14634 6992.5 14647 6992.5 14660 6992.5 14673 6992.5 14685 6992.5 14698 6992.5 14711 6992.5 14724 6992.5 14737 6992.5 14749 6992.5 14762 6992.5 14775 6992.5 14788 6992.5 14801 6992.5 14813 6992.5 14826 6992.5 14839 6992.5 14852 6992.5 14864 6992.5 14877 6992.5 14890 6992.5 14903 6992.5 14916 6992.5 14928 6992.5 14941 6992.5 14954 6992.5 14967 6992.5 14980 6992.5 14992 6992.5 15005 6992.5 15018 6992.5 15031 6992.5 15043 6992.5 15056 6992.5 15068.5 6992.5" stroke="#EDB40D" stroke-width="4.58333" stroke-linecap="round" stroke-linejoin="round" stroke-miterlimit="10" stroke-dasharray="13.75 18.3333" fill="none"/></g><g clip-path="url(#clip9)"><text fill="#595959" font-family="Calibri,Calibri_MSFontService,sans-serif" font-weight="400" font-size="41" transform="matrix(1 0 0 1 13887.4 7410)"> -</text></g><g clip-path="url(#clip10)"><text fill="#595959" font-family="Calibri,Calibri_MSFontService,sans-serif" font-weight="400" font-size="41" transform="matrix(1 0 0 1 13837.4 7370)"> 100</text></g><g clip-path="url(#clip11)"><text fill="#595959" font-family="Calibri,Calibri_MSFontService,sans-serif" font-weight="400" font-size="41" transform="matrix(1 0 0 1 13837.4 7330)"> 200</text></g><g clip-path="url(#clip12)"><text fill="#595959" font-family="Calibri,Calibri_MSFontService,sans-serif" font-weight="400" font-size="41" transform="matrix(1 0 0 1 13837.4 7290)"> 300</text></g><g clip-path="url(#clip13)"><text fill="#595959" font-family="Calibri,Calibri_MSFontService,sans-serif" font-weight="400" font-size="41" transform="matrix(1 0 0 1 13837.4 7251)"> 400</text></g><g clip-path="url(#clip14)"><text fill="#595959" font-family="Calibri,Calibri_MSFontService,sans-serif" font-weight="400" font-size="41" transform="matrix(1 0 0 1 13837.4 7211)"> 500</text></g><g clip-path="url(#clip15)"><text fill="#595959" font-family="Calibri,Calibri_MSFontService,sans-serif" font-weight="400" font-size="41" transform="matrix(1 0 0 1 13837.4 7171)"> 600</text></g><g clip-path="url(#clip16)"><text fill="#595959" font-family="Calibri,Calibri_MSFontService,sans-serif" font-weight="400" font-size="41" transform="matrix(1 0 0 1 13837.4 7131)"> 700</text></g><g clip-path="url(#clip17)"><text fill="#595959" font-family="Calibri,Calibri_MSFontService,sans-serif" font-weight="400" font-size="41" transform="matrix(1 0 0 1 13837.4 7092)"> 800</text></g><g clip-path="url(#clip18)"><text fill="#595959" font-family="Calibri,Calibri_MSFontService,sans-serif" font-weight="400" font-size="41" transform="matrix(1 0 0 1 13837.4 7052)"> 900</text></g><g clip-path="url(#clip19)"><text fill="#595959" font-family="Calibri,Calibri_MSFontService,sans-serif" font-weight="400" font-size="41" transform="matrix(1 0 0 1 13806.2 7012)"> 1,000</text></g><g clip-path="url(#clip20)"><text fill="#595959" font-family="Calibri,Calibri_MSFontService,sans-serif" font-weight="400" font-size="41" transform="matrix(1 0 0 1 13806.2 6973)"> 1,100</text></g><g clip-path="url(#clip21)"><text fill="#595959" font-family="Calibri,Calibri_MSFontService,sans-serif" font-weight="400" font-size="41" transform="matrix(1 0 0 1 13806.2 6933)"> 1,200</text></g><g clip-path="url(#clip22)"><text fill="#595959" font-family="Calibri,Calibri_MSFontService,sans-serif" font-weight="400" font-size="41" transform="matrix(1 0 0 1 13806.2 6893)"> 1,300</text></g><g clip-path="url(#clip23)"><text fill="#595959" font-family="Calibri,Calibri_MSFontService,sans-serif" font-weight="400" font-size="41" transform="matrix(1 0 0 1 13806.2 6853)"> 1,400</text></g><g clip-path="url(#clip24)"><text fill="#595959" font-family="Calibri,Calibri_MSFontService,sans-serif" font-weight="400" font-size="41" transform="matrix(1 0 0 1 13806.2 6814)"> 1,500</text></g><g clip-path="url(#clip25)"><text fill="#595959" font-family="Calibri,Calibri_MSFontService,sans-serif" font-weight="400" font-size="41" transform="matrix(1 0 0 1 13806.2 6774)"> 1,600</text></g><g clip-path="url(#clip26)"><text fill="#595959" font-family="Calibri,Calibri_MSFontService,sans-serif" font-weight="400" font-size="41" transform="matrix(1 0 0 1 13806.2 6734)"> 1,700</text></g><g clip-path="url(#clip27)"><text fill="#595959" font-family="Calibri,Calibri_MSFontService,sans-serif" font-weight="400" font-size="41" transform="matrix(1 0 0 1 13806.2 6695)"> 1,800</text></g><g clip-path="url(#clip28)"><text fill="#595959" font-family="Calibri,Calibri_MSFontService,sans-serif" font-weight="400" font-size="41" transform="matrix(1 0 0 1 13806.2 6655)"> 1,900</text></g><g clip-path="url(#clip29)"><text fill="#595959" font-family="Calibri,Calibri_MSFontService,sans-serif" font-weight="400" font-size="41" transform="matrix(1 0 0 1 13806.2 6615)"> 2,000</text></g><g clip-path="url(#clip30)"><text fill="#595959" font-family="Calibri,Calibri_MSFontService,sans-serif" font-weight="400" font-size="41" transform="matrix(1 0 0 1 13806.2 6575)"> 2,100</text></g><g clip-path="url(#clip31)"><text fill="#595959" font-family="Calibri,Calibri_MSFontService,sans-serif" font-weight="400" font-size="41" transform="matrix(1 0 0 1 13915.2 7463)">2000</text></g><g clip-path="url(#clip32)"><text fill="#595959" font-family="Calibri,Calibri_MSFontService,sans-serif" font-weight="400" font-size="41" transform="matrix(1 0 0 1 14171 7463)">2005</text></g><g clip-path="url(#clip33)"><text fill="#595959" font-family="Calibri,Calibri_MSFontService,sans-serif" font-weight="400" font-size="41" transform="matrix(1 0 0 1 14426.6 7463)">2010</text></g><g clip-path="url(#clip34)"><text fill="#595959" font-family="Calibri,Calibri_MSFontService,sans-serif" font-weight="400" font-size="41" transform="matrix(1 0 0 1 14682.1 7463)">2015</text></g><g clip-path="url(#clip35)"><text fill="#595959" font-family="Calibri,Calibri_MSFontService,sans-serif" font-weight="400" font-size="41" transform="matrix(1 0 0 1 14937.7 7463)">2020</text></g><g clip-path="url(#clip36)"><rect x="14636" y="6561" width="116" height="22.9995" fill="#D9D9D9"/></g><g clip-path="url(#clip37)"><text fill="#595959" font-family="Calibri,Calibri_MSFontService,sans-serif" font-weight="400" font-size="41" transform="matrix(1 0 0 1 14764.6 6584)">Percentile [20-80]</text></g><g clip-path="url(#clip38)"><path d="M14636.5 6635.5 14751.5 6635.5" stroke="#EDB40D" stroke-width="4.58333" stroke-linecap="round" stroke-linejoin="round" stroke-miterlimit="10" stroke-dasharray="13.75 18.3333" fill="none" fill-rule="evenodd"/></g><g clip-path="url(#clip39)"><text fill="#595959" font-family="Calibri,Calibri_MSFontService,sans-serif" font-weight="400" font-size="41" transform="matrix(1 0 0 1 14764.6 6647)">Mean</text></g><rect x="13776.5" y="6513.5" width="1343" height="991" stroke="#D9D9D9" stroke-width="3.4375" stroke-linejoin="round" stroke-miterlimit="10" fill="none"/></g></svg>