<svg width="1346" height="994" xmlns="http://www.w3.org/2000/svg" xmlns:xlink="http://www.w3.org/1999/xlink" overflow="hidden"><defs><clipPath id="clip0"><rect x="15768" y="6512" width="1346" height="994"/></clipPath><clipPath id="clip1"><rect x="15970" y="6563" width="1095" height="838"/></clipPath><clipPath id="clip2"><rect x="15970" y="6563" width="1095" height="838"/></clipPath><clipPath id="clip3"><rect x="15769" y="6513" width="1343" height="991"/></clipPath><clipPath id="clip4"><rect x="15769" y="6513" width="1343" height="991"/></clipPath><clipPath id="clip5"><rect x="15769" y="6513" width="1343" height="991"/></clipPath><clipPath id="clip6"><rect x="15769" y="6513" width="1343" height="991"/></clipPath><clipPath id="clip7"><rect x="15970" y="6563" width="1095" height="838"/></clipPath><clipPath id="clip8"><rect x="15970" y="6563" width="1095" height="838"/></clipPath><clipPath id="clip9"><rect x="15769" y="6513" width="1343" height="991"/></clipPath><clipPath id="clip10"><rect x="15769" y="6513" width="1343" height="991"/></clipPath><clipPath id="clip11"><rect x="15769" y="6513" width="1343" height="991"/></clipPath><clipPath id="clip12"><rect x="15769" y="6513" width="1343" height="991"/></clipPath><clipPath id="clip13"><rect x="15769" y="6513" width="1343" height="991"/></clipPath><clipPath id="clip14"><rect x="15769" y="6513" width="1343" height="991"/></clipPath><clipPath id="clip15"><rect x="15769" y="6513" width="1343" height="991"/></clipPath><clipPath id="clip16"><rect x="15769" y="6513" width="1343" height="991"/></clipPath><clipPath id="clip17"><rect x="15769" y="6513" width="1343" height="991"/></clipPath><clipPath id="clip18"><rect x="15769" y="6513" width="1343" height="991"/></clipPath><clipPath id="clip19"><rect x="15769" y="6513" width="1343" height="991"/></clipPath><clipPath id="clip20"><rect x="15769" y="6513" width="1343" height="991"/></clipPath><clipPath id="clip21"><rect x="15769" y="6513" width="1343" height="991"/></clipPath><clipPath id="clip22"><rect x="15769" y="6513" width="1343" height="991"/></clipPath><clipPath id="clip23"><rect x="15769" y="6513" width="1343" height="991"/></clipPath><clipPath id="clip24"><rect x="15769" y="6513" width="1343" height="991"/></clipPath><clipPath id="clip25"><rect x="15769" y="6513" width="1343" height="991"/></clipPath></defs><g clip-path="url(#clip0)" transform="translate(-15768 -6512)"><rect x="15769" y="6513" width="1343" height="991" fill="#FFFFFF"/><g clip-path="url(#clip1)"><path d="M16711 7271 16723.5 7271 16735.5 7271 16748.5 7271 16760.6 7271 16773.6 7271 16785.6 7271 16798.6 7271 16810.6 7271 16823.6 7271 16835.6 7271 16848.6 7271 16861.6 7271 16873.6 7271 16886.6 7271 16898.6 7271 16911.6 7271 16923.6 7271 16936.6 7271 16948.6 7271 16961.6 7271 16973.6 7271 16986.6 7271 16998.6 7271 17011.6 7271 17024.6 7271 17036.6 7271 17049.6 7271 17062 7271 17062 7398 17049.6 7398 17036.6 7398 17024.6 7398 17011.6 7398 16998.6 7398 16986.6 7398 16973.6 7398 16961.6 7398 16948.6 7398 16936.6 7398 16923.6 7398 16911.6 7398 16898.6 7398 16886.6 7398 16873.6 7398 16861.6 7398 16848.6 7398 16835.6 7398 16823.6 7398 16810.6 7398 16798.6 7398 16785.6 7398 16773.6 7398 16760.6 7398 16748.5 7398 16735.5 7398 16723.5 7398 16711 7398Z" fill="#D9D9D9"/></g><g clip-path="url(#clip2)"><path d="M16711 7393 16723.5 7393 16735.5 7393 16748.5 7393 16760.6 7393 16773.6 7393 16785.6 7393 16798.6 7393 16810.6 7393 16823.6 7393 16835.6 7393 16848.6 7393 16861.6 7393 16873.6 7393 16886.6 7393 16898.6 7393 16911.6 7393 16923.6 7393 16936.6 7393 16948.6 7393 16961.6 7393 16973.6 7393 16986.6 7393 16998.6 7393 17011.6 7393 17024.6 7393 17036.6 7393 17049.6 7393 17062 7393 17062 7398 17049.6 7398 17036.6 7398 17024.6 7398 17011.6 7398 16998.6 7398 16986.6 7398 16973.6 7398 16961.6 7398 16948.6 7398 16936.6 7398 16923.6 7398 16911.6 7398 16898.6 7398 16886.6 7398 16873.6 7398 16861.6 7398 16848.6 7398 16835.6 7398 16823.6 7398 16810.6 7398 16798.6 7398 16785.6 7398 16773.6 7398 16760.6 7398 16748.5 7398 16735.5 7398 16723.5 7398 16711 7398Z" fill="#FFFFFF"/></g><g clip-path="url(#clip3)"><path d="M0 0 0.000360892 835" stroke="#D9D9D9" stroke-width="3.4375" stroke-linejoin="round" stroke-miterlimit="10" fill="none" fill-rule="evenodd" transform="matrix(1 0 0 -1 15970.5 7398.5)"/></g><g clip-path="url(#clip4)"><path d="M15957.5 7398.5 15970.5 7398.5M15957.5 7278.74 15970.5 7278.74M15957.5 7159.73 15970.5 7159.73M15957.5 7040.73 15970.5 7040.73M15957.5 6921.73 15970.5 6921.73M15957.5 6801.72 15970.5 6801.72M15957.5 6682.72 15970.5 6682.72M15957.5 6563.5 15970.5 6563.5" stroke="#D9D9D9" stroke-width="3.4375" stroke-linejoin="round" stroke-miterlimit="10" fill="none"/></g><g clip-path="url(#clip5)"><path d="M15970.5 7398.5 17061.5 7398.5" stroke="#D9D9D9" stroke-width="3.4375" stroke-linejoin="round" stroke-miterlimit="10" fill="none" fill-rule="evenodd"/></g><g clip-path="url(#clip6)"><path d="M15970.5 7398.5 15970.5 7411.5M16222 7398.5 16222 7411.5M16472 7398.5 16472 7411.5M16723 7398.5 16723 7411.5M16973.5 7398.5 16973.5 7411.5" stroke="#D9D9D9" stroke-width="3.4375" stroke-linejoin="round" stroke-miterlimit="10" fill="none"/></g><g clip-path="url(#clip7)"><path d="M16711 7393.24 16723.5 7394.24 16735.5 7395.24 16748.5 7395.24 16760.6 7395 16773.6 7393.24 16785.6 7393.24 16798.6 7390.24 16810.6 7390.24 16823.6 7386.24 16835.6 7385.24 16848.6 7369.24 16861.6 7345.24 16873.6 7235.24 16886.6 7316.24 16898.6 7322.24 16911.6 7319.24 16923.6 7352.24 16936.6 7348.24 16948.6 7272.24 16961.6 7298.24 16973.6 7312.24 16986.6 7319.24 16998.6 7288.24 17011.6 7271.24 17024.6 7048.23 17036.6 6694 17049.6 6998.23 17062 6824.22" stroke="#EDB40D" stroke-width="10.3125" stroke-linecap="round" stroke-linejoin="round" stroke-miterlimit="10" fill="none"/></g><g clip-path="url(#clip8)"><path d="M16710.5 7284.5 16723 7284.5 16736 7284.5 16748 7284.5 16761.1 7284.5 16773.1 7284.5 16786.1 7284.5 16798.1 7284.5 16811.1 7284.5 16824.1 7284.5 16836.1 7284.5 16848.1 7284.5 16861.1 7284.5 16874.1 7284.5 16886.1 7284.5 16899.1 7284.5 16911.1 7284.5 16924.1 7284.5 16936.1 7284.5 16949.1 7284.5 16961.1 7284.5 16974.1 7284.5 16986.1 7284.5 16999.1 7284.5 17012.1 7284.5 17024.1 7284.5 17037.1 7284.5 17049.1 7284.5 17061.5 7284.5" stroke="#EDB40D" stroke-width="4.58333" stroke-linecap="round" stroke-linejoin="round" stroke-miterlimit="10" stroke-dasharray="13.75 18.3333" fill="none"/></g><g clip-path="url(#clip9)"><text fill="#595959" font-family="Calibri,Calibri_MSFontService,sans-serif" font-weight="400" font-size="41" transform="matrix(1 0 0 1 15901.1 7410)"> -</text></g><g clip-path="url(#clip10)"><text fill="#595959" font-family="Calibri,Calibri_MSFontService,sans-serif" font-weight="400" font-size="41" transform="matrix(1 0 0 1 15799 7290)"> 10,000</text></g><g clip-path="url(#clip11)"><text fill="#595959" font-family="Calibri,Calibri_MSFontService,sans-serif" font-weight="400" font-size="41" transform="matrix(1 0 0 1 15799 7171)"> 20,000</text></g><g clip-path="url(#clip12)"><text fill="#595959" font-family="Calibri,Calibri_MSFontService,sans-serif" font-weight="400" font-size="41" transform="matrix(1 0 0 1 15799 7052)"> 30,000</text></g><g clip-path="url(#clip13)"><text fill="#595959" font-family="Calibri,Calibri_MSFontService,sans-serif" font-weight="400" font-size="41" transform="matrix(1 0 0 1 15799 6933)"> 40,000</text></g><g clip-path="url(#clip14)"><text fill="#595959" font-family="Calibri,Calibri_MSFontService,sans-serif" font-weight="400" font-size="41" transform="matrix(1 0 0 1 15799 6814)"> 50,000</text></g><g clip-path="url(#clip15)"><text fill="#595959" font-family="Calibri,Calibri_MSFontService,sans-serif" font-weight="400" font-size="41" transform="matrix(1 0 0 1 15799 6695)"> 60,000</text></g><g clip-path="url(#clip16)"><text fill="#595959" font-family="Calibri,Calibri_MSFontService,sans-serif" font-weight="400" font-size="41" transform="matrix(1 0 0 1 15799 6575)"> 70,000</text></g><g clip-path="url(#clip17)"><text fill="#595959" font-family="Calibri,Calibri_MSFontService,sans-serif" font-weight="400" font-size="41" transform="matrix(1 0 0 1 15928.9 7463)">2000</text></g><g clip-path="url(#clip18)"><text fill="#595959" font-family="Calibri,Calibri_MSFontService,sans-serif" font-weight="400" font-size="41" transform="matrix(1 0 0 1 16179.9 7463)">2005</text></g><g clip-path="url(#clip19)"><text fill="#595959" font-family="Calibri,Calibri_MSFontService,sans-serif" font-weight="400" font-size="41" transform="matrix(1 0 0 1 16430.7 7463)">2010</text></g><g clip-path="url(#clip20)"><text fill="#595959" font-family="Calibri,Calibri_MSFontService,sans-serif" font-weight="400" font-size="41" transform="matrix(1 0 0 1 16681.4 7463)">2015</text></g><g clip-path="url(#clip21)"><text fill="#595959" font-family="Calibri,Calibri_MSFontService,sans-serif" font-weight="400" font-size="41" transform="matrix(1 0 0 1 16932.2 7463)">2020</text></g><g clip-path="url(#clip22)"><rect x="16629" y="6561" width="116" height="22.9995" fill="#D9D9D9"/></g><g clip-path="url(#clip23)"><text fill="#595959" font-family="Calibri,Calibri_MSFontService,sans-serif" font-weight="400" font-size="41" transform="matrix(1 0 0 1 16757.4 6584)">Percentile [20-80]</text></g><g clip-path="url(#clip24)"><path d="M16629.5 6635.5 16744.5 6635.5" stroke="#EDB40D" stroke-width="4.58333" stroke-linecap="round" stroke-linejoin="round" stroke-miterlimit="10" stroke-dasharray="13.75 18.3333" fill="none" fill-rule="evenodd"/></g><g clip-path="url(#clip25)"><text fill="#595959" font-family="Calibri,Calibri_MSFontService,sans-serif" font-weight="400" font-size="41" transform="matrix(1 0 0 1 16757.4 6647)">Mean</text></g><rect x="15769.5" y="6513.5" width="1343" height="991" stroke="#D9D9D9" stroke-width="3.4375" stroke-linejoin="round" stroke-miterlimit="10" fill="none"/></g></svg>