<svg width="1037" height="1061" xmlns="http://www.w3.org/2000/svg" xmlns:xlink="http://www.w3.org/1999/xlink" overflow="hidden"><defs><clipPath id="clip0"><rect x="850" y="336" width="1037" height="1061"/></clipPath></defs><g clip-path="url(#clip0)" transform="translate(-850 -336)"><path d="M1859 849.5C1859 895.063 1637.38 932 1364 932L1364 849.5Z" fill="#BFBFBF" fill-rule="evenodd" fill-opacity="0.501961"/><path d="M1367 850 1367 349 1860 850Z" fill="#F2F2F2" fill-rule="evenodd" fill-opacity="0.501961"/><path d="M1617 850C1617 872.644 1506.19 891 1369.5 891L1369.5 850Z" stroke="#F2F2F2" stroke-width="13.75" stroke-miterlimit="8" fill="none" fill-rule="evenodd"/><path d="M1371 848 1607.5 925" stroke="#F2F2F2" stroke-width="13.75" stroke-miterlimit="8" fill="none" fill-rule="evenodd"/><path d="M0 0 242 430.375" stroke="#F2F2F2" stroke-width="13.75" stroke-miterlimit="8" fill="none" fill-rule="evenodd" transform="matrix(-1 0 0 1 1607 925)"/><path d="M1110 925 1367.12 1344.38" stroke="#F2F2F2" stroke-width="13.75" stroke-miterlimit="8" fill="none" fill-rule="evenodd"/><path d="M0 0 495 495" stroke="#F2F2F2" stroke-width="13.75" stroke-miterlimit="8" fill="none" fill-rule="evenodd" transform="matrix(1 0 0 -1 870 843)"/><path d="M1365 345 1860 840" stroke="#F2F2F2" stroke-width="13.75" stroke-miterlimit="8" fill="none" fill-rule="evenodd"/><path d="M870 862 1365 1357" stroke="#F2F2F2" stroke-width="13.75" stroke-miterlimit="8" fill="none" fill-rule="evenodd"/><path d="M0 0 495 495" stroke="#F2F2F2" stroke-width="13.75" stroke-miterlimit="8" fill="none" fill-rule="evenodd" transform="matrix(1 0 0 -1 1365 1357)"/><path d="M0 0 251.625 576.125" stroke="#F2F2F2" stroke-width="13.75" stroke-miterlimit="8" fill="none" fill-rule="evenodd" transform="matrix(1 0 0 -1 1110 929.125)"/><path d="M1368 355 1368 1345" stroke="#F2F2F2" stroke-width="13.75" stroke-miterlimit="8" fill="none" fill-rule="evenodd"/><path d="M1370 848 1865 848" stroke="#F2F2F2" stroke-width="13.75" stroke-miterlimit="8" fill="none" fill-rule="evenodd"/><path d="M1371 351 1494.98 850.125" stroke="#F2F2F2" stroke-width="13.75" stroke-miterlimit="8" fill="none" fill-rule="evenodd"/><path d="M1371 348 1736.98 849.875" stroke="#F2F2F2" stroke-width="13.75" stroke-miterlimit="8" fill="none" fill-rule="evenodd"/><path d="M1372 601 1619.5 601" stroke="#F2F2F2" stroke-width="13.75" stroke-miterlimit="8" fill="none" fill-rule="evenodd"/><path d="M1365 355 1365 932.5" stroke="#F2F2F2" stroke-width="13.75" stroke-miterlimit="8" fill="none" fill-rule="evenodd"/><path d="M1368 351 1607.25 847.375" stroke="#F2F2F2" stroke-width="13.75" stroke-miterlimit="8" fill="none" fill-rule="evenodd"/><path d="M1364 719 1736.9 719" stroke="#F2F2F2" stroke-width="13.75" stroke-miterlimit="8" fill="none" fill-rule="evenodd"/><path d="M1370 472 1495.4 472" stroke="#F2F2F2" stroke-width="13.75" stroke-miterlimit="8" stroke-dasharray="13.75 13.75" fill="none" fill-rule="evenodd"/><path d="M870 848.5C870 802.936 1091.62 766 1365 766 1638.38 766 1860 802.936 1860 848.5 1860 894.063 1638.38 931 1365 931 1091.62 931 870 894.063 870 848.5Z" stroke="#F2F2F2" stroke-width="13.75" stroke-miterlimit="8" fill="none" fill-rule="evenodd"/><path d="M1112 601C1112 578.356 1222.81 560 1359.5 560 1496.19 560 1607 578.356 1607 601 1607 623.644 1496.19 642 1359.5 642 1222.81 642 1112 623.644 1112 601Z" stroke="#F2F2F2" stroke-width="13.75" stroke-miterlimit="8" fill="none" fill-rule="evenodd"/><path d="M1123 1107C1123 1084.36 1233.81 1066 1370.5 1066 1507.19 1066 1618 1084.36 1618 1107 1618 1129.64 1507.19 1148 1370.5 1148 1233.81 1148 1123 1129.64 1123 1107Z" stroke="#F2F2F2" stroke-width="13.75" stroke-miterlimit="8" fill="none" fill-rule="evenodd"/><path d="M1837 852.5C1837 838.969 1848.19 828 1862 828 1875.81 828 1887 838.969 1887 852.5 1887 866.031 1875.81 877 1862 877 1848.19 877 1837 866.031 1837 852.5Z" fill="#FF0000" fill-rule="evenodd"/><path d="M1581 924C1581 910.193 1592.19 899 1606 899 1619.81 899 1631 910.193 1631 924 1631 937.807 1619.81 949 1606 949 1592.19 949 1581 937.807 1581 924Z" fill="#FFFF01" fill-rule="evenodd"/><path d="M1460 891C1460 877.193 1471.19 866 1485 866 1498.81 866 1510 877.193 1510 891 1510 904.807 1498.81 916 1485 916 1471.19 916 1460 904.807 1460 891Z" fill="#C0C040" fill-rule="evenodd"/><path d="M1345 891C1345 877.193 1355.97 866 1369.5 866 1383.03 866 1394 877.193 1394 891 1394 904.807 1383.03 916 1369.5 916 1355.97 916 1345 904.807 1345 891Z" fill="#80C040" fill-rule="evenodd"/><path d="M1089 924C1089 910.193 1100.19 899 1114 899 1127.81 899 1139 910.193 1139 924 1139 937.807 1127.81 949 1114 949 1100.19 949 1089 937.807 1089 924Z" fill="#01FF01" fill-rule="evenodd"/><path d="M850 855.5C850 841.969 860.969 831 874.5 831 888.031 831 899 841.969 899 855.5 899 869.031 888.031 880 874.5 880 860.969 880 850 869.031 850 855.5Z" fill="#01FFFF" fill-rule="evenodd"/><path d="M1345 599.5C1345 585.969 1355.97 575 1369.5 575 1383.03 575 1394 585.969 1394 599.5 1394 613.031 1383.03 624 1369.5 624 1355.97 624 1345 613.031 1345 599.5Z" fill="#BFBFBF" fill-rule="evenodd"/><path d="M1345 855.5C1345 841.969 1355.97 831 1369.5 831 1383.03 831 1394 841.969 1394 855.5 1394 869.031 1383.03 880 1369.5 880 1355.97 880 1345 869.031 1345 855.5Z" fill="#7F7F7F" fill-rule="evenodd"/><path d="M1345 1372.5C1345 1358.97 1355.97 1348 1369.5 1348 1383.03 1348 1394 1358.97 1394 1372.5 1394 1386.03 1383.03 1397 1369.5 1397 1355.97 1397 1345 1386.03 1345 1372.5Z" fill-rule="evenodd"/><path d="M1590 602.5C1590 588.969 1600.97 578 1614.5 578 1628.03 578 1639 588.969 1639 602.5 1639 616.031 1628.03 627 1614.5 627 1600.97 627 1590 616.031 1590 602.5Z" fill="#FF7F7F" fill-rule="evenodd"/><path d="M1592 1108.5C1592 1094.97 1603.19 1084 1617 1084 1630.81 1084 1642 1094.97 1642 1108.5 1642 1122.03 1630.81 1133 1617 1133 1603.19 1133 1592 1122.03 1592 1108.5Z" fill="#800000" fill-rule="evenodd"/><path d="M1581 852.5C1581 838.969 1592.19 828 1606 828 1619.81 828 1631 838.969 1631 852.5 1631 866.031 1619.81 877 1606 877 1592.19 877 1581 866.031 1581 852.5Z" fill="#C04040" fill-rule="evenodd"/><path d="M1345.5 363.5C1345.5 349.693 1356.47 338.5 1370 338.5 1383.53 338.5 1394.5 349.693 1394.5 363.5 1394.5 377.307 1383.53 388.5 1370 388.5 1356.47 388.5 1345.5 377.307 1345.5 363.5Z" stroke="#F2F2F2" stroke-width="4.58333" stroke-miterlimit="8" fill="#FFFFFF" fill-rule="evenodd"/><path d="M1345 938C1345 924.193 1355.97 913 1369.5 913 1383.03 913 1394 924.193 1394 938 1394 951.807 1383.03 963 1369.5 963 1355.97 963 1345 951.807 1345 938Z" fill="#80FF01" fill-rule="evenodd"/><path d="M1089 613.5C1089 599.969 1100.19 589 1114 589 1127.81 589 1139 599.969 1139 613.5 1139 627.031 1127.81 638 1114 638 1100.19 638 1089 627.031 1089 613.5Z" fill="#7FFFFF" fill-rule="evenodd"/><path d="M1097 1116.5C1097 1102.97 1108.19 1092 1122 1092 1135.81 1092 1147 1102.97 1147 1116.5 1147 1130.03 1135.81 1141 1122 1141 1108.19 1141 1097 1130.03 1097 1116.5Z" fill="#008080" fill-rule="evenodd"/><path d="M1345 1152.5C1345 1138.97 1355.97 1128 1369.5 1128 1383.03 1128 1394 1138.97 1394 1152.5 1394 1166.03 1383.03 1177 1369.5 1177 1355.97 1177 1345 1166.03 1345 1152.5Z" fill="#408000" fill-rule="evenodd"/><path d="M1345 473C1345 459.193 1355.97 448 1369.5 448 1383.03 448 1394 459.193 1394 473 1394 486.807 1383.03 498 1369.5 498 1355.97 498 1345 486.807 1345 473Z" fill="#DFDFDF" fill-rule="evenodd"/><path d="M1460 473C1460 459.193 1471.19 448 1485 448 1498.81 448 1510 459.193 1510 473 1510 486.807 1498.81 498 1485 498 1471.19 498 1460 486.807 1460 473Z" fill="#FFBFBF" fill-rule="evenodd"/><path d="M1403 473C1403 459.193 1413.97 448 1427.5 448 1441.03 448 1452 459.193 1452 473 1452 486.807 1441.03 498 1427.5 498 1413.97 498 1403 486.807 1403 473Z" fill="#EFCFCF" fill-rule="evenodd"/><path d="M1216 638C1216 624.193 1226.97 613 1240.5 613 1254.03 613 1265 624.193 1265 638 1265 651.807 1254.03 663 1240.5 663 1226.97 663 1216 651.807 1216 638Z" fill="#7FFF7F" fill-rule="evenodd"/><path d="M1221 1141.5C1221 1127.97 1232.19 1117 1246 1117 1259.81 1117 1271 1127.97 1271 1141.5 1271 1155.03 1259.81 1166 1246 1166 1232.19 1166 1221 1155.03 1221 1141.5Z" fill="#008000" fill-rule="evenodd"/><path d="M1460 1147C1460 1133.19 1471.19 1122 1485 1122 1498.81 1122 1510 1133.19 1510 1147 1510 1160.81 1498.81 1172 1485 1172 1471.19 1172 1460 1160.81 1460 1147Z" fill="#808000" fill-rule="evenodd"/><path d="M1471 852.5C1471 838.969 1482.19 828 1496 828 1509.81 828 1521 838.969 1521 852.5 1521 866.031 1509.81 877 1496 877 1482.19 877 1471 866.031 1471 852.5Z" fill="#A06060" fill-rule="evenodd"/><path d="M1702 852.5C1702 838.969 1713.19 828 1727 828 1740.81 828 1752 838.969 1752 852.5 1752 866.031 1740.81 877 1727 877 1713.19 877 1702 866.031 1702 852.5Z" fill="#DF2121" fill-rule="evenodd"/><path d="M1620 720.5C1620 706.969 1630.97 696 1644.5 696 1658.03 696 1669 706.969 1669 720.5 1669 734.031 1658.03 745 1644.5 745 1630.97 745 1620 734.031 1620 720.5Z" fill="#E75757" fill-rule="evenodd"/><path d="M1526 602.5C1526 588.969 1537.19 578 1551 578 1564.81 578 1576 588.969 1576 602.5 1576 616.031 1564.81 627 1551 627 1537.19 627 1526 616.031 1526 602.5Z" fill="#EF8F8F" fill-rule="evenodd"/><path d="M1436 715C1436 701.193 1446.97 690 1460.5 690 1474.03 690 1485 701.193 1485 715 1485 728.807 1474.03 740 1460.5 740 1446.97 740 1436 728.807 1436 715Z" fill="#B78787" fill-rule="evenodd"/><path d="M1403 602.5C1403 588.969 1413.97 578 1427.5 578 1441.03 578 1452 588.969 1452 602.5 1452 616.031 1441.03 627 1427.5 627 1413.97 627 1403 616.031 1403 602.5Z" fill="#CFAFAF" fill-rule="evenodd"/><path d="M1345 646.5C1345 632.969 1355.97 622 1369.5 622 1383.03 622 1394 632.969 1394 646.5 1394 660.031 1383.03 671 1369.5 671 1355.97 671 1345 660.031 1345 646.5Z" fill="#BFFF7F" fill-rule="evenodd"/><path d="M1345 723.5C1345 709.969 1355.97 699 1369.5 699 1383.03 699 1394 709.969 1394 723.5 1394 737.031 1383.03 748 1369.5 748 1355.97 748 1345 737.031 1345 723.5Z" fill="#A0A0A0" fill-rule="evenodd"/><path d="M1711 720.5C1711 706.969 1721.97 696 1735.5 696 1749.03 696 1760 706.969 1760 720.5 1760 734.031 1749.03 745 1735.5 745 1721.97 745 1711 734.031 1711 720.5Z" fill="#FF3F3F" fill-rule="evenodd"/><path d="M1521 723.5C1521 709.969 1531.97 699 1545.5 699 1559.03 699 1570 709.969 1570 723.5 1570 737.031 1559.03 748 1545.5 748 1531.97 748 1521 737.031 1521 723.5Z" fill="#CF6F6F" fill-rule="evenodd"/><path d="M1460 602.5C1460 588.969 1471.19 578 1485 578 1498.81 578 1510 588.969 1510 602.5 1510 616.031 1498.81 627 1485 627 1471.19 627 1460 616.031 1460 602.5Z" fill="#DF9F9F" fill-rule="evenodd"/></g></svg>